<?xml version="1.0" encoding="utf-8"?>
<!-- Generator: Adobe Illustrator 26.2.1, SVG Export Plug-In . SVG Version: 6.00 Build 0)  -->
<svg version="1.1" id="Layer_1" xmlns="http://www.w3.org/2000/svg" xmlns:xlink="http://www.w3.org/1999/xlink" x="0px" y="0px"
	 width="1236.1px" height="402.3px" viewBox="0 0 1236.1 402.3" style="enable-background:new 0 0 1236.1 402.3;"
	 xml:space="preserve">
<style type="text/css">
	.st0{fill:#191E3E;}
	.st1{fill:url(#SVGID_1_);}
	.st2{fill:url(#SVGID_00000152264109903740469910000016374032508118562183_);}
	.st3{fill:url(#SVGID_00000177455450495622868660000015056939191011933862_);}
	.st4{fill:url(#SVGID_00000100340456010704875720000005290571935524508830_);}
	.st5{fill:url(#SVGID_00000073716584925848566870000002040629749400779144_);}
	.st6{fill:url(#SVGID_00000128449571000347347090000003364898433544858040_);}
	.st7{fill:url(#SVGID_00000123403846103158068930000012323015879737819778_);}
	.st8{fill:url(#SVGID_00000006667473136444498080000014206782213730791358_);}
	.st9{fill:url(#SVGID_00000093172430801070728470000000301473805627299202_);}
	.st10{fill:url(#SVGID_00000106106152922515969810000006770446775298201762_);}
	.st11{fill:url(#SVGID_00000115485308269854447720000000362137760862868881_);}
	.st12{fill:url(#SVGID_00000174596711379028013420000012151226784374623360_);}
	.st13{fill:url(#SVGID_00000023984061965192072000000000129312250887296399_);}
</style>
<g>
	<g>
		<path class="st0" d="M400.6,257.5c0-52.1,35.2-82.7,77.2-82.7c21.1,0,37.9,9.6,48.7,20.3L509,215.2c-8.3-7.7-17.9-13.3-30.5-13.3
			c-25.1,0-44,20.5-44,54.5c0,34.4,17.1,55.1,43.3,55.1c14.1,0,25.4-6.4,34.3-15.6l17.5,19.7c-13.7,15.2-31.4,23.3-52.9,23.3
			C434.7,338.9,400.6,310.3,400.6,257.5z"/>
		<path class="st0" d="M534.8,256.2c0-51.5,30.3-81.4,74.3-81.4c44,0,74.3,30.1,74.3,81.4c0,51.3-30.3,82.7-74.3,82.7
			C565.1,338.9,534.8,307.5,534.8,256.2z M649.5,256.2c0-34-15.7-54.3-40.4-54.3c-24.7,0-40.4,20.3-40.4,54.3
			c0,33.8,15.7,55.3,40.4,55.3C633.8,311.5,649.5,289.9,649.5,256.2z"/>
		<path class="st0" d="M704.3,177.8h45.5c50.7,0,82.1,25,82.1,78.4c0,53.2-31.4,79.7-80.3,79.7h-47.3V177.8z M747.8,310.5
			c31,0,50.3-15.8,50.3-54.3c0-38.7-19.3-53.2-50.3-53.2h-10.3v107.5H747.8z"/>
		<path class="st0" d="M857.4,179.9c0-10.3,8.3-17.1,19.7-17.1c11.2,0,19.5,6.8,19.5,17.1c0,9.8-8.3,17.1-19.5,17.1
			C865.7,197,857.4,189.7,857.4,179.9z M860.5,216.2h32.8v119.7h-32.8V216.2z"/>
		<path class="st0" d="M930.9,177.8h54.5c36.8,0,65.1,12.2,65.1,49.6c0,36.1-28.5,52.4-64.2,52.4h-22.2v56.2h-33.2V177.8z
			 M984.1,254.7c22.9,0,33.9-9.2,33.9-27.4c0-18.4-12.1-24.6-35-24.6h-18.8v51.9H984.1z"/>
		<path class="st0" d="M1141.4,295.3h-53.8l-11.7,40.6h-33.7l53.2-158.1h39l53.4,158.1H1153L1141.4,295.3z M1134.2,270.7l-4.9-17.3
			c-5.2-16.5-9.6-34.6-14.6-51.7h-0.9c-4.3,17.3-9.2,35.3-14.1,51.7l-4.9,17.3H1134.2z"/>
		<path class="st0" d="M1202.9,177.8h33.2v158.1h-33.2V177.8z"/>
	</g>
	<g>
		<g>
			<linearGradient id="SVGID_1_" gradientUnits="userSpaceOnUse" x1="135.6473" y1="371.3848" x2="89.6443" y2="288.7609">
				<stop  offset="0" style="stop-color:#322675"/>
				<stop  offset="0.3116" style="stop-color:#342877"/>
				<stop  offset="0.4914" style="stop-color:#3A317D"/>
				<stop  offset="0.6377" style="stop-color:#433F87"/>
				<stop  offset="0.766" style="stop-color:#515396"/>
				<stop  offset="0.8824" style="stop-color:#626CA9"/>
				<stop  offset="0.9889" style="stop-color:#788CC0"/>
				<stop  offset="1" style="stop-color:#7A8FC2"/>
			</linearGradient>
			<path class="st1" d="M112.6,330.1L112.6,330.1C112.6,330.1,112.6,330.1,112.6,330.1L112.6,330.1z"/>
			
				<linearGradient id="SVGID_00000165950084507380824230000011783453323025659040_" gradientUnits="userSpaceOnUse" x1="217.1281" y1="502.2968" x2="92.9157" y2="279.2043">
				<stop  offset="0" style="stop-color:#322675"/>
				<stop  offset="0.3116" style="stop-color:#342877"/>
				<stop  offset="0.4914" style="stop-color:#3A317D"/>
				<stop  offset="0.6377" style="stop-color:#433F87"/>
				<stop  offset="0.766" style="stop-color:#515396"/>
				<stop  offset="0.8824" style="stop-color:#626CA9"/>
				<stop  offset="0.9889" style="stop-color:#788CC0"/>
				<stop  offset="1" style="stop-color:#7A8FC2"/>
			</linearGradient>
			<path style="fill:url(#SVGID_00000165950084507380824230000011783453323025659040_);" d="M117.8,282.1c-1.6-1.3-3.3-2.5-5.2-3.3
				c-2.7-1.3-5.8-2-9-2c-2,0-3.8,0.3-5.6,0.8c-0.3,0.1-0.5,0.1-0.8,0.2c-0.8,0.3-1.7,0.6-2.4,0.9c-0.8,0.3-1.6,0.7-2.3,1.2
				c-2.7,1.6-4.9,3.7-6.7,6.3c-1,1.4-1.8,3-2.4,4.6c-0.9,2.4-1.4,4.9-1.4,7.6c0,0.8,0.1,1.6,0.1,2.4c0.2,1.9,0.6,3.7,1.3,5.4
				c0.9,2.3,2.2,4.5,3.8,6.3c0.9,1.1,1.9,2,3,2.9c2.3,1.8,4.9,3.1,7.8,3.9c1.8,0.5,3.7,0.8,5.6,0.8c3.2,0,6.2-0.7,9-2
				c1.6-0.7,3.1-1.7,4.5-2.7c4.4-3.5,7.4-8.7,8.1-14.6c0.1-0.8,0.1-1.6,0.1-2.4c0-4.6-1.4-8.8-3.8-12.3
				C120.4,284.7,119.2,283.3,117.8,282.1z"/>
			
				<linearGradient id="SVGID_00000179624677050635676110000017015220467125947266_" gradientUnits="userSpaceOnUse" x1="256.5374" y1="480.3551" x2="132.3251" y2="257.263">
				<stop  offset="0" style="stop-color:#322675"/>
				<stop  offset="0.3116" style="stop-color:#342877"/>
				<stop  offset="0.4914" style="stop-color:#3A317D"/>
				<stop  offset="0.6377" style="stop-color:#433F87"/>
				<stop  offset="0.766" style="stop-color:#515396"/>
				<stop  offset="0.8824" style="stop-color:#626CA9"/>
				<stop  offset="0.9889" style="stop-color:#788CC0"/>
				<stop  offset="1" style="stop-color:#7A8FC2"/>
			</linearGradient>
			
				<rect x="112.6" y="227.7" style="fill:url(#SVGID_00000179624677050635676110000017015220467125947266_);" width="14.6" height="14.6"/>
			
				<linearGradient id="SVGID_00000025404278619922510820000005229152047811375526_" gradientUnits="userSpaceOnUse" x1="199.0712" y1="512.351" x2="74.8587" y2="289.2585">
				<stop  offset="0" style="stop-color:#322675"/>
				<stop  offset="0.3116" style="stop-color:#342877"/>
				<stop  offset="0.4914" style="stop-color:#3A317D"/>
				<stop  offset="0.6377" style="stop-color:#433F87"/>
				<stop  offset="0.766" style="stop-color:#515396"/>
				<stop  offset="0.8824" style="stop-color:#626CA9"/>
				<stop  offset="0.9889" style="stop-color:#788CC0"/>
				<stop  offset="1" style="stop-color:#7A8FC2"/>
			</linearGradient>
			
				<rect x="58.4" y="263.6" style="fill:url(#SVGID_00000025404278619922510820000005229152047811375526_);" width="9.5" height="9.5"/>
			
				<linearGradient id="SVGID_00000127749542239461387240000006820362253741191091_" gradientUnits="userSpaceOnUse" x1="184.4411" y1="520.495" x2="60.2292" y2="297.4035">
				<stop  offset="0" style="stop-color:#322675"/>
				<stop  offset="0.3116" style="stop-color:#342877"/>
				<stop  offset="0.4914" style="stop-color:#3A317D"/>
				<stop  offset="0.6377" style="stop-color:#433F87"/>
				<stop  offset="0.766" style="stop-color:#515396"/>
				<stop  offset="0.8824" style="stop-color:#626CA9"/>
				<stop  offset="0.9889" style="stop-color:#788CC0"/>
				<stop  offset="1" style="stop-color:#7A8FC2"/>
			</linearGradient>
			
				<rect x="46.1" y="274.6" style="fill:url(#SVGID_00000127749542239461387240000006820362253741191091_);" width="6.5" height="6.5"/>
			
				<linearGradient id="SVGID_00000094597146601230065940000010723786382026701976_" gradientUnits="userSpaceOnUse" x1="185.7114" y1="519.7884" x2="61.499" y2="296.6961">
				<stop  offset="0" style="stop-color:#322675"/>
				<stop  offset="0.3116" style="stop-color:#342877"/>
				<stop  offset="0.4914" style="stop-color:#3A317D"/>
				<stop  offset="0.6377" style="stop-color:#433F87"/>
				<stop  offset="0.766" style="stop-color:#515396"/>
				<stop  offset="0.8824" style="stop-color:#626CA9"/>
				<stop  offset="0.9889" style="stop-color:#788CC0"/>
				<stop  offset="1" style="stop-color:#7A8FC2"/>
			</linearGradient>
			
				<rect x="38" y="256.3" style="fill:url(#SVGID_00000094597146601230065940000010723786382026701976_);" width="4.6" height="4.6"/>
			
				<linearGradient id="SVGID_00000141442036589473541780000006012718157487024262_" gradientUnits="userSpaceOnUse" x1="260.2182" y1="478.3057" x2="136.0052" y2="255.2124">
				<stop  offset="0" style="stop-color:#322675"/>
				<stop  offset="0.3116" style="stop-color:#342877"/>
				<stop  offset="0.4914" style="stop-color:#3A317D"/>
				<stop  offset="0.6377" style="stop-color:#433F87"/>
				<stop  offset="0.766" style="stop-color:#515396"/>
				<stop  offset="0.8824" style="stop-color:#626CA9"/>
				<stop  offset="0.9889" style="stop-color:#788CC0"/>
				<stop  offset="1" style="stop-color:#7A8FC2"/>
			</linearGradient>
			
				<rect x="141.9" y="271.6" style="fill:url(#SVGID_00000141442036589473541780000006012718157487024262_);" width="14.6" height="14.6"/>
			
				<linearGradient id="SVGID_00000067958993448899523420000006997260323184448954_" gradientUnits="userSpaceOnUse" x1="218.0099" y1="501.8061" x2="93.7974" y2="278.7135">
				<stop  offset="0" style="stop-color:#322675"/>
				<stop  offset="0.3116" style="stop-color:#342877"/>
				<stop  offset="0.4914" style="stop-color:#3A317D"/>
				<stop  offset="0.6377" style="stop-color:#433F87"/>
				<stop  offset="0.766" style="stop-color:#515396"/>
				<stop  offset="0.8824" style="stop-color:#626CA9"/>
				<stop  offset="0.9889" style="stop-color:#788CC0"/>
				<stop  offset="1" style="stop-color:#7A8FC2"/>
			</linearGradient>
			<path style="fill:url(#SVGID_00000067958993448899523420000006997260323184448954_);" d="M112.7,330.1h14.6v-8.7
				C123.3,325.4,118.3,328.5,112.7,330.1z"/>
			
				<linearGradient id="SVGID_00000096054505666657109670000013099492818586052268_" gradientUnits="userSpaceOnUse" x1="241.58" y1="488.683" x2="117.3671" y2="265.5896">
				<stop  offset="0" style="stop-color:#322675"/>
				<stop  offset="0.3116" style="stop-color:#342877"/>
				<stop  offset="0.4914" style="stop-color:#3A317D"/>
				<stop  offset="0.6377" style="stop-color:#433F87"/>
				<stop  offset="0.766" style="stop-color:#515396"/>
				<stop  offset="0.8824" style="stop-color:#626CA9"/>
				<stop  offset="0.9889" style="stop-color:#788CC0"/>
				<stop  offset="1" style="stop-color:#7A8FC2"/>
			</linearGradient>
			
				<rect x="141.9" y="315.4" style="fill:url(#SVGID_00000096054505666657109670000013099492818586052268_);" width="14.6" height="14.6"/>
			
				<linearGradient id="SVGID_00000003785950998096582540000004230883128021608371_" gradientUnits="userSpaceOnUse" x1="246.3458" y1="486.0309" x2="122.1329" y2="262.9376">
				<stop  offset="0" style="stop-color:#322675"/>
				<stop  offset="0.3116" style="stop-color:#342877"/>
				<stop  offset="0.4914" style="stop-color:#3A317D"/>
				<stop  offset="0.6377" style="stop-color:#433F87"/>
				<stop  offset="0.766" style="stop-color:#515396"/>
				<stop  offset="0.8824" style="stop-color:#626CA9"/>
				<stop  offset="0.9889" style="stop-color:#788CC0"/>
				<stop  offset="1" style="stop-color:#7A8FC2"/>
			</linearGradient>
			<path style="fill:url(#SVGID_00000003785950998096582540000004230883128021608371_);" d="M136.6,298.4c0,0.8-0.1,1.6-0.1,2.4h5.4
				v-14.6h-7.7C135.7,290,136.6,294.1,136.6,298.4z"/>
		</g>
		
			<linearGradient id="SVGID_00000183226243840084467060000007753997424094350761_" gradientUnits="userSpaceOnUse" x1="442.8672" y1="376.6179" x2="318.652" y2="153.5205">
			<stop  offset="0" style="stop-color:#322675"/>
			<stop  offset="0.3116" style="stop-color:#342877"/>
			<stop  offset="0.4914" style="stop-color:#3A317D"/>
			<stop  offset="0.6377" style="stop-color:#433F87"/>
			<stop  offset="0.766" style="stop-color:#515396"/>
			<stop  offset="0.8824" style="stop-color:#626CA9"/>
			<stop  offset="0.9889" style="stop-color:#788CC0"/>
			<stop  offset="1" style="stop-color:#7A8FC2"/>
		</linearGradient>
		<path style="fill:url(#SVGID_00000183226243840084467060000007753997424094350761_);" d="M298.1,116.5c0.1,0.3,0.2,0.5,0.3,0.8
			C298.3,116.9,298.2,116.6,298.1,116.5z"/>
		
			<linearGradient id="SVGID_00000170997812366169148470000009997210936118631333_" gradientUnits="userSpaceOnUse" x1="352.7848" y1="450.3816" x2="195.8845" y2="229.741">
			<stop  offset="0" style="stop-color:#322675"/>
			<stop  offset="0.3116" style="stop-color:#342877"/>
			<stop  offset="0.4914" style="stop-color:#3A317D"/>
			<stop  offset="0.6377" style="stop-color:#433F87"/>
			<stop  offset="0.766" style="stop-color:#515396"/>
			<stop  offset="0.8824" style="stop-color:#626CA9"/>
			<stop  offset="0.9889" style="stop-color:#788CC0"/>
			<stop  offset="1" style="stop-color:#7A8FC2"/>
		</linearGradient>
		<path style="fill:url(#SVGID_00000170997812366169148470000009997210936118631333_);" d="M341.4,271.6c-2-2.9-5.1-6.3-9.5-10.6
			c-1.3-1.2-2.7-2.6-4.1-4c-2-1.9-4.2-4-6.7-6.3c-0.6-0.6-2-1.9-3.8-3.7c-1.3-1.3-2.7-2.9-4.2-4.6c-3.5-4.1-7-9.5-9.5-14.6
			c-2.4-4.7-2.7-13-0.9-17.9c12.7-33.2,0.2-78.2-3.6-90.4c-0.1-0.3-0.2-0.5-0.2-0.8c-0.2-0.6-0.4-1.1-0.5-1.5
			c-0.1-0.3-0.2-0.5-0.3-0.8c0,0,0,0,0,0v0c-13-38.3-49.1-65.9-91.7-66.2l-6.7-20.7c-0.4-1.2-1.7-1.9-2.9-1.5l-11,3.5l-3.3-10.1
			l4.3-1.4c1.2-0.4,1.9-1.8,1.5-3l-4.9-15.3c-0.4-1.2-1.8-1.9-3-1.5l-41.7,13.5c-1.2,0.4-1.9,1.7-1.5,3l5,15.4
			c0.4,1.2,1.7,1.9,3,1.5l4.3-1.4l3.3,10.2l-11,3.5c-1.2,0.4-1.9,1.7-1.5,2.9l3.3,10.2l3.6,11.1c-23.5,17.8-38.7,46-38.7,77.7
			c0,8.3,1.1,16.4,3,24.1l-17.9,7.8C85.2,162.7,68.2,152,49.4,152C22.1,152,0,174.2,0,201.4c0,27.2,22.1,49.4,49.4,49.4
			c7.6,0,14.7-1.8,21.2-4.8L82,267.2c-1.9,1.3-3.7,2.7-5.3,4.4c-3.3,3.3-6,7.2-7.9,11.5c-0.4,1-0.8,2-1.2,3.1c-1.3,3.9-2,8-2,12.3
			c0,0.8,0.1,1.6,0.1,2.4c0.3,4.8,1.3,9.1,3.1,13.1c0.2,0.5,0.4,1,0.7,1.5c2.5,4.7,6.1,9.1,10.9,13.1c0.4,0.4,1.1,0.9,1.9,1.5
			c0.3,0.3,0.7,0.5,1.1,0.8c3.1,2.2,8.1,5.6,14.6,9.8c2,1.3,4.2,2.6,6.6,4.1c2.5,1.5,5.2,3.1,8,4.7c4.5,2.6,9.4,5.3,14.6,8
			c1.2,0.6,2.4,1.2,3.6,1.9c3.5,1.8,7.2,3.6,11,5.4c4.7,2.3,9.6,4.5,14.6,6.6c2.1,0.9,4.2,1.8,6.3,2.6c0.7,0.3,1.4,0.5,2.1,0.8
			c2.1,0.8,4.1,1.6,6.3,2.4c4.9,1.9,9.8,3.6,14.6,5.3c4.9,1.7,9.8,3.3,14.6,4.8c1.3,0.4,2.7,0.8,4,1.2c3.6,1.1,7.1,2.1,10.6,3.1
			c5,1.4,9.9,2.7,14.6,3.8c5.1,1.2,10,2.3,14.6,3.2c5.2,1,10.1,1.9,14.6,2.5c2.8,0.4,5.6,0.7,8.1,1c2.4,0.2,4.5,0.3,6.5,0.1
			c6.5-0.4,11.3-2.5,14.6-5.6c2.5-2.3,4.2-5.1,5.3-8.1c1.2-3.3,1.7-6.8,1.6-10.3c0-1.6,0-3-0.1-4.3c-0.1-7.7-0.2-11.7,0.9-14.6
			c0.7-2,1.8-3.5,3.7-5.4c1.3-1.3,2.4-2.5,3.2-3.7c1.4-1.9,2.2-3.8,2.6-5.5c1-4.2-0.8-7.5-2.6-9.6c-1.3-1.6-2.6-2.4-2.6-2.4
			c0.8-0.4,1.7-0.9,2.6-1.3c1-0.4,2-0.9,3-1.4c4.6-2.3,9.2-5.7,8.9-14.6c-0.1-2.5-0.5-5.4-1.5-8.8c-0.7-2.4-0.9-4.2-0.6-5.8
			c0.5-2.3,2-4,4.8-5.7c3.2-2,7.9-4.1,14.6-7.2c1.1-0.5,2.2-1.1,3.4-1.6c0.1-0.1,0.2-0.1,0.3-0.1C344.1,282,346.2,278.5,341.4,271.6
			z M141.9,90.1c1.8-4.1,5.1-7.5,9.5-9.4c0.5-0.3,1.1-0.5,1.7-0.7c9.7-3.1,20.1,2.2,23.2,11.9c3.1,9.7-2.2,20.1-11.9,23.2
			c-0.6,0.2-1.2,0.4-1.8,0.4c-9.2,2-18.5-3.2-21.4-12.3C139.8,98.7,140.2,94,141.9,90.1z M49.4,245.7c-24.4,0-44.3-19.8-44.3-44.3
			s19.8-44.3,44.3-44.3c17.7,0,33.7,10.5,40.7,26.7c2.4,5.6,3.6,11.5,3.6,17.6C93.6,225.8,73.8,245.7,49.4,245.7z M200.4,373.9
			h-14.6v-14.6h14.6V373.9z M215,344.7h-14.6v-14.6h-14.6v-14.6h-14.6v14.6h-14.6v14.6h-14.6v-14.6h-14.6v14.6h-14.6v-14.6
			c-2.8,0.8-5.8,1.3-9,1.3c-1.9,0-3.8-0.2-5.6-0.5c-1.1-0.2-2.2-0.4-3.3-0.7c-4.2-1.2-8-3.2-11.4-5.8c-1.6-1.3-3.1-2.6-4.4-4.2
			c-1.3-1.4-2.4-3-3.4-4.6c-2.6-4.3-4.3-9.3-4.7-14.6c-0.1-0.8-0.1-1.6-0.1-2.4c0-4.3,0.9-8.5,2.4-12.3c2.2-5.4,5.7-10.1,10.2-13.6
			c0.4-0.4,0.9-0.7,1.3-1c1-0.7,2.1-1.4,3.2-2c0.8-0.4,1.6-0.8,2.4-1.1c0.8-0.4,1.6-0.7,2.4-0.9c1.7-0.6,3.5-1.1,5.4-1.4
			c1.9-0.3,3.7-0.5,5.6-0.5c3.1,0,6.1,0.4,9,1.2c3.6,1,6.9,2.6,9.9,4.8h19.4v-29.3h-14.6v14.6h13.6c-3.9,4.4-7.8,8.8-11.8,13.2
			c-0.6-0.5-1.2-1-1.8-1.5c-4.2-3.3-9.2-5.8-14.6-7.2c-2.9-0.7-5.9-1.1-9-1.1c-1.9,0-3.8,0.2-5.6,0.5c-2.5,0.4-7.6,1.9-11.6,3.8
			L75,243.5c14.2-8.7,23.7-24.3,23.7-42.1c0-5.9-1.1-11.6-3.1-17.1l17.3-7.5c7.8,24.6,25.1,45.1,47.7,56.9l-1.1,1.2
			c-1,1.2-2,2.4-3,3.6c-1,1.2-2,2.4-3,3.7h17.7v14.6h-14.6v14.6h14.6v14.6h-14.6v29.3h14.6v-14.6h14.6v14.6h14.6v14.6H215V344.7z
			 M185.7,256.9v-14.6h14.6v14.6H185.7z M229.6,271.6H215v-14.6h14.6V271.6z M205.8,238.6c-42.1,0-77.7-28.8-88-67.7
			c-1.3-14.3,4.8-35.7,47.3-45.3L186,190c0.4,1.2,1.7,1.9,2.9,1.5l11-3.5l7.2,22.5c0.4,1.2,1.7,1.9,2.9,1.5l28.6-9.2
			c1.2-0.4,1.9-1.7,1.5-2.9l-7.2-22.5l11-3.5c1.2-0.4,1.9-1.7,1.5-2.9L208.5,56.7c48.9,1.4,88.3,41.7,88.3,91
			C296.8,197.8,256,238.6,205.8,238.6z"/>
		
			<linearGradient id="SVGID_00000018931921691517324980000015683033746592748690_" gradientUnits="userSpaceOnUse" x1="345.9675" y1="430.556" x2="221.7566" y2="207.4664">
			<stop  offset="0" style="stop-color:#322675"/>
			<stop  offset="0.3116" style="stop-color:#342877"/>
			<stop  offset="0.4914" style="stop-color:#3A317D"/>
			<stop  offset="0.6377" style="stop-color:#433F87"/>
			<stop  offset="0.766" style="stop-color:#515396"/>
			<stop  offset="0.8824" style="stop-color:#626CA9"/>
			<stop  offset="0.9889" style="stop-color:#788CC0"/>
			<stop  offset="1" style="stop-color:#7A8FC2"/>
		</linearGradient>
		
			<line style="fill:url(#SVGID_00000018931921691517324980000015683033746592748690_);" x1="150.7" y1="80.6" x2="149.3" y2="76.4"/>
	</g>
</g>
</svg>
