<svg width="14" height="11" viewBox="0 0 14 11" fill="none" xmlns="http://www.w3.org/2000/svg">
<path d="M6.42361 10.6832C6.48783 10.7809 6.57376 10.8608 6.67401 10.916C6.77425 10.9712 6.8858 11 6.99905 11C7.1123 11 7.22385 10.9712 7.32409 10.916C7.42434 10.8608 7.51027 10.7809 7.5745 10.6832L13.875 1.15052C13.9479 1.04057 13.9907 0.911787 13.9986 0.778164C14.0066 0.644541 13.9794 0.511189 13.9201 0.392595C13.8608 0.274002 13.7716 0.174703 13.6622 0.105489C13.5528 0.0362741 13.4274 -0.000209971 13.2995 9.09017e-07H0.698558C0.571038 0.000552638 0.446075 0.0375059 0.337106 0.106886C0.228137 0.176267 0.139286 0.27545 0.0801075 0.393769C0.020929 0.512088 -0.00633771 0.645066 0.00123966 0.778403C0.00881702 0.911741 0.0509517 1.04039 0.123113 1.15052L6.42361 10.6832Z" fill="black"/>
</svg>
