<svg width="24" height="24" viewBox="0 0 24 24" fill="none" xmlns="http://www.w3.org/2000/svg">
<path fill-rule="evenodd" clip-rule="evenodd" d="M10.7823 1.88C10.3939 1.88 10.0796 2.19628 10.0796 2.58025V5.24507C10.0796 5.56648 9.99263 6.01392 9.58851 6.1806C9.18518 6.34694 8.80804 6.09219 8.58138 5.86552L6.69732 3.98122C6.69728 3.98119 6.69735 3.98126 6.69732 3.98122C6.4249 3.70906 5.97884 3.70947 5.70522 3.9831L3.9831 5.70522C3.7084 5.97992 3.70973 6.42568 3.98122 6.69732L5.8655 8.58136C6.09278 8.80862 6.34771 9.18646 6.17997 9.59006C6.01249 9.99302 5.56562 10.0796 5.24507 10.0796H2.58025C2.19511 10.0796 1.88 10.3953 1.88 10.7823V13.2177C1.88 13.6061 2.19628 13.9204 2.58025 13.9204H5.24507C5.56648 13.9204 6.01392 14.0074 6.1806 14.4115C6.34694 14.8148 6.09219 15.192 5.86552 15.4186L3.98122 17.3027C3.98119 17.3027 3.98126 17.3026 3.98122 17.3027C3.70906 17.5751 3.70947 18.0212 3.9831 18.2948L5.70522 20.0169C5.97989 20.2916 6.42556 20.2903 6.69721 20.0189C6.69725 20.0188 6.69718 20.0189 6.69721 20.0189L8.58136 18.1345C8.80862 17.9072 9.18646 17.6523 9.59006 17.82C9.99301 17.9875 10.0796 18.4344 10.0796 18.7549V21.4197C10.0796 21.8049 10.3953 22.12 10.7823 22.12H13.2177C13.6061 22.12 13.9204 21.8037 13.9204 21.4197V18.7549C13.9204 18.4335 14.0074 17.9861 14.4115 17.8194C14.8148 17.6531 15.192 17.9078 15.4186 18.1345L17.3027 20.0188C17.3027 20.0188 17.3026 20.0187 17.3027 20.0188C17.5751 20.2909 18.0212 20.2905 18.2948 20.0169L20.0169 18.2948C20.2916 18.0201 20.2903 17.5744 20.0189 17.3028C20.0188 17.3027 20.0189 17.3028 20.0189 17.3028L18.1345 15.4186C17.9072 15.1914 17.6523 14.8135 17.82 14.4099C17.9875 14.007 18.4344 13.9204 18.7549 13.9204H21.4197C21.8049 13.9204 22.12 13.6047 22.12 13.2177V10.7823C22.12 10.3939 21.8037 10.0796 21.4197 10.0796H18.7549C18.4335 10.0796 17.9861 9.99264 17.8194 9.58851C17.6531 9.18519 17.9078 8.80804 18.1345 8.58138L20.0188 6.69732C20.291 6.42491 20.2906 5.97888 20.0169 5.70522L18.2948 3.9831C18.0201 3.70843 17.5744 3.70973 17.3028 3.98112C17.3027 3.98115 17.3028 3.98108 17.3028 3.98112L15.4186 5.8655C15.1914 6.09278 14.8135 6.34771 14.4099 6.17997C14.007 6.01249 13.9204 5.56562 13.9204 5.24507V2.58025C13.9204 2.19511 13.6047 1.88 13.2177 1.88H10.7823ZM9.19959 2.58025C9.19959 1.70977 9.90838 1 10.7823 1H13.2177C14.0876 1 14.8004 1.70602 14.8004 2.58025V5.23923L16.6805 3.3589C17.2962 2.74357 18.2991 2.7429 18.917 3.36084L20.6392 5.08296C21.2542 5.69803 21.2592 6.70112 20.6412 7.31941L18.7608 9.19959H21.4197C22.2902 9.19959 23 9.90838 23 10.7823V13.2177C23 14.0876 22.294 14.8004 21.4197 14.8004H18.7608L20.6411 16.6805C21.2564 17.2962 21.2571 18.2991 20.6392 18.917L18.917 20.6392C18.302 21.2542 17.2989 21.2592 16.6806 20.6412L14.8004 18.7608V21.4197C14.8004 22.2902 14.0916 23 13.2177 23H10.7823C9.91238 23 9.19959 22.294 9.19959 21.4197V18.7608L7.31951 20.6411C6.70383 21.2564 5.70092 21.2571 5.08296 20.6392L3.36085 18.917C2.74578 18.302 2.74085 17.2989 3.3588 16.6806L5.23923 14.8004H2.58025C1.70977 14.8004 1 14.0916 1 13.2177V10.7823C1 9.91238 1.70602 9.19959 2.58025 9.19959H5.23923L3.3589 7.31951C2.74356 6.70383 2.7429 5.70092 3.36084 5.08296L5.08296 3.36085C5.69803 2.74578 6.70112 2.74085 7.31941 3.3588L9.19959 5.23923V2.58025Z" fill="white"/>
</svg>
