<svg width="24" height="24" viewBox="0 0 24 24" fill="none" xmlns="http://www.w3.org/2000/svg">
<path d="M21.1064 16.3392L19.0594 12.5599V8.625C19.0594 4.69627 15.8631 1.5 11.9344 1.5C8.00562 1.5 4.80936 4.69627 4.80936 8.625V12.5599L2.76223 16.3391C2.6694 16.5105 2.62267 16.703 2.62664 16.8979C2.6306 17.0927 2.68512 17.2832 2.78485 17.4507C2.88458 17.6181 3.0261 17.7568 3.19554 17.8531C3.36498 17.9494 3.55654 18 3.75143 18H7.82651C7.81514 18.1247 7.8094 18.2498 7.80931 18.375C7.80931 19.469 8.2439 20.5182 9.01749 21.2918C9.79108 22.0654 10.8403 22.5 11.9343 22.5C13.0283 22.5 14.0775 22.0654 14.8511 21.2918C15.6247 20.5182 16.0593 19.469 16.0593 18.375C16.0593 18.2484 16.0533 18.1236 16.0421 18H20.1172C20.3121 18 20.5036 17.9493 20.673 17.853C20.8424 17.7567 20.9839 17.6181 21.0836 17.4506C21.1833 17.2832 21.2378 17.0927 21.2418 16.8979C21.2458 16.7031 21.1991 16.5105 21.1062 16.3392H21.1064ZM14.5594 18.375C14.5596 18.7357 14.4856 19.0927 14.3418 19.4235C14.198 19.7543 13.9875 20.052 13.7236 20.2979C13.4596 20.5438 13.1478 20.7326 12.8076 20.8526C12.4674 20.9726 12.1062 21.0212 11.7464 20.9954C11.3865 20.9696 11.0359 20.8698 10.7164 20.7025C10.3968 20.5351 10.1152 20.3036 9.88906 20.0226C9.66294 19.7415 9.49718 19.4168 9.40213 19.0688C9.30707 18.7208 9.28476 18.357 9.33659 18H14.5321C14.5501 18.1242 14.5592 18.2495 14.5594 18.375V18.375ZM4.38101 16.5L6.30936 12.9401V8.625C6.30936 7.13316 6.90199 5.70242 7.95688 4.64752C9.01177 3.59263 10.4425 3 11.9344 3C13.4262 3 14.8569 3.59263 15.9118 4.64752C16.9667 5.70242 17.5594 7.13316 17.5594 8.625V12.9401L19.4876 16.5H4.38101Z" fill="white"/>
</svg>
