<svg width="24" height="24" viewBox="0 0 24 24" fill="none" xmlns="http://www.w3.org/2000/svg">
<path d="M21.887 16.5823C21.4208 16.5864 20.9684 16.7399 20.597 17.0198C20.2258 17.2997 19.9554 17.691 19.8262 18.1355H18.7566C18.4107 18.1355 18.0789 17.999 17.8344 17.7563C17.5896 17.5136 17.4522 17.1845 17.4522 16.8412V12.7513H19.0176C19.5993 12.7575 20.1703 12.5955 20.6611 12.2853C21.7626 11.5831 22.4303 10.3748 22.4349 9.07559C22.4304 8.232 22.1472 7.41332 21.629 6.74469C21.1105 6.07625 20.3857 5.59469 19.5652 5.37388C19.4653 3.9438 18.6854 2.6461 17.4646 1.87943C16.2438 1.11276 14.7282 0.968681 13.3827 1.49104C12.4179 0.558244 11.1308 0.0254196 9.78389 0.000874681C8.43696 -0.0235011 7.13136 0.462394 6.13269 1.35963C5.13403 2.25684 4.51753 3.49804 4.40871 4.83041C3.00663 5.33415 1.97308 6.52988 1.68463 7.98177C1.39639 9.43348 1.89553 10.9289 3.00007 11.9229C3.56271 12.4123 4.28676 12.6793 5.03485 12.6737H6.54789V16.8671C6.54789 17.2103 6.41051 17.5395 6.16576 17.7824C5.9212 18.025 5.58947 18.1614 5.24354 18.1614H4.19997C4.01181 17.4906 3.50396 16.954 2.84102 16.7254C2.17813 16.497 1.44444 16.6057 0.877746 17.0164C0.310913 17.427 -0.0168042 18.0875 0.000664771 18.7836C0.0183159 19.4797 0.378795 20.123 0.96565 20.5051C1.55233 20.8871 2.29054 20.9594 2.94109 20.6983C3.59182 20.4372 4.072 19.8762 4.22615 19.1967H5.24354C5.86623 19.1967 6.46329 18.9513 6.90365 18.5144C7.34401 18.0776 7.59132 17.485 7.59132 16.8671V12.7253H11.4783V19.7662C10.7881 19.9363 10.226 20.4317 9.97474 21.0919C9.72326 21.7518 9.81442 22.4925 10.2188 23.073C10.6231 23.6533 11.2889 24 12 24C12.7111 24 13.377 23.6533 13.7813 23.073C14.1856 22.4925 14.2768 21.7518 14.0253 21.0919C13.774 20.4317 13.2119 19.9363 12.5217 19.7662V12.7253H16.4087V16.8671C16.4087 17.485 16.656 18.0776 17.0964 18.5144C17.5368 18.9513 18.1338 19.1967 18.7565 19.1967H19.7739C19.8922 19.7182 20.2043 20.1761 20.6479 20.4791C21.0914 20.7821 21.6338 20.9079 22.1668 20.8315C22.6998 20.755 23.1842 20.482 23.5232 20.0667C23.862 19.6515 24.0307 19.1247 23.9954 18.5915C23.9601 18.0583 23.7234 17.5579 23.3325 17.1903C22.9417 16.8227 22.4256 16.6149 21.887 16.6082L21.887 16.5823ZM2.11307 19.818C1.81264 19.8248 1.52201 19.7118 1.30623 19.5041C1.0906 19.2967 0.967774 19.012 0.965589 18.7136C0.963224 18.4155 1.0815 18.129 1.29404 17.9181C1.50658 17.7073 1.79538 17.5898 2.0958 17.5921C2.39623 17.5945 2.68317 17.7162 2.89248 17.9303C3.10174 18.1443 3.21565 18.4327 3.20874 18.7308C3.202 19.0169 3.08445 19.2898 2.88047 19.4922C2.6763 19.6948 2.40154 19.8114 2.11309 19.8179L2.11307 19.818ZM13.0957 21.837H13.0955C13.0955 22.1337 12.9759 22.4181 12.7638 22.627C12.5514 22.8359 12.2639 22.9522 11.9649 22.9498C11.666 22.9475 11.3803 22.8267 11.1714 22.6145C10.9625 22.4022 10.8475 22.116 10.8522 21.8194C10.8569 21.5227 10.9807 21.2403 11.1961 21.0346C11.4116 20.8289 11.7009 20.717 11.9999 20.724C12.2974 20.724 12.5828 20.8412 12.7931 21.05C13.0034 21.2587 13.1215 21.5418 13.1215 21.837L13.0957 21.837ZM3.67828 11.1722C3.09617 10.656 2.72369 9.94674 2.63071 9.17757C2.53772 8.4084 2.73061 7.63193 3.17318 6.99367C3.61572 6.35536 4.27773 5.89909 5.0349 5.7104C5.26181 5.65226 5.42195 5.45111 5.42613 5.21853C5.43395 4.07342 5.91051 2.98046 6.74632 2.19086C7.58226 1.40126 8.70573 0.9827 9.85886 1.03128C11.012 1.08003 12.0956 1.59156 12.861 2.44888C13.0155 2.62872 13.2729 2.68199 13.4871 2.57816C14.5714 2.03938 15.8598 2.09679 16.8912 2.72983C17.9225 3.36288 18.5495 4.48112 18.5478 5.68456V5.73639V5.73621C18.5314 6.00416 18.7239 6.24014 18.9912 6.27989C19.7537 6.39238 20.4363 6.80985 20.8801 7.43494C21.3239 8.06021 21.4904 8.83844 21.3405 9.5887C21.1907 10.3388 20.7376 10.9953 20.0871 11.4052C19.7603 11.6128 19.3794 11.721 18.9913 11.7157L5.03475 11.6639L5.03493 11.6641C4.5369 11.6726 4.05341 11.4974 3.67836 11.1722L3.67828 11.1722ZM21.887 19.818C21.588 19.818 21.3014 19.6993 21.0909 19.4888C20.8803 19.2781 20.7633 18.9928 20.7657 18.6962C20.7681 18.3995 20.8896 18.116 21.1036 17.9087C21.3174 17.7014 21.6058 17.5873 21.9048 17.592C22.2038 17.5965 22.4885 17.7195 22.6958 17.9333C22.9031 18.1471 23.0157 18.4342 23.0088 18.7308C23.0019 19.0215 22.8809 19.298 22.6711 19.5013C22.4614 19.7044 22.1801 19.8182 21.887 19.818L21.887 19.818Z" fill="white"/>
</svg>
