<svg width="24" height="24" viewBox="0 0 24 24" fill="none" xmlns="http://www.w3.org/2000/svg">
<path d="M22.4986 5.24938C22.4986 5.74177 22.2271 6.22934 21.6995 6.68425C21.1718 7.13916 20.3985 7.5525 19.4236 7.90068C18.4488 8.24885 17.2914 8.52504 16.0176 8.71347C14.7439 8.9019 13.3787 8.99888 12 8.99888C9.2156 8.99888 6.54524 8.60385 4.57637 7.90068C2.6075 7.19751 1.5014 6.24381 1.5014 5.24938C1.5014 4.75699 1.77296 4.26942 2.30056 3.81451C2.82817 3.3596 3.60149 2.94625 4.57637 2.59808C5.55126 2.24991 6.70862 1.97372 7.98237 1.78529C9.25611 1.59686 10.6213 1.49988 12 1.49988C13.3787 1.49988 14.7439 1.59686 16.0176 1.78529C17.2914 1.97372 18.4488 2.24991 19.4236 2.59808C20.3985 2.94625 21.1718 3.3596 21.6995 3.81451C22.2271 4.26942 22.4986 4.75699 22.4986 5.24938V5.24938Z" stroke="white" stroke-linecap="round" stroke-linejoin="round"/>
<path d="M22.4986 18.7476C22.4986 19.4057 22.0135 20.0523 21.0921 20.6223C20.1706 21.1923 18.8453 21.6656 17.2493 21.9947C15.6533 22.3238 13.8429 22.4971 12 22.4971C10.1571 22.4971 8.34669 22.3238 6.7507 21.9947C5.15472 21.6656 3.82939 21.1923 2.90795 20.6223C1.9865 20.0523 1.5014 19.4057 1.5014 18.7476" stroke="white" stroke-linecap="round" stroke-linejoin="round"/>
<path d="M22.4986 14.2482C22.4986 14.9063 22.0135 15.5529 21.0921 16.1229C20.1706 16.6929 18.8453 17.1662 17.2493 17.4953C15.6533 17.8244 13.8429 17.9977 12 17.9977C10.1571 17.9977 8.34669 17.8244 6.7507 17.4953C5.15472 17.1662 3.82939 16.6929 2.90795 16.1229C1.98651 15.5529 1.5014 14.9063 1.5014 14.2482" stroke="white" stroke-linecap="round" stroke-linejoin="round"/>
<path d="M22.4986 9.74878C22.4986 10.407 22.0135 11.0535 21.0921 11.6235C20.1706 12.1935 18.8453 12.6669 17.2493 12.9959C15.6533 13.325 13.8429 13.4983 12 13.4983C10.1571 13.4983 8.34669 13.325 6.7507 12.9959C5.15472 12.6669 3.82939 12.1935 2.90795 11.6235C1.9865 11.0535 1.5014 10.407 1.5014 9.74878" stroke="white" stroke-linecap="round" stroke-linejoin="round"/>
<path d="M1.5014 5.24939V18.7476" stroke="white" stroke-linecap="round" stroke-linejoin="round"/>
<path d="M22.4986 5.24939V18.7476" stroke="white" stroke-linecap="round" stroke-linejoin="round"/>
</svg>
