<svg width="24" height="24" viewBox="0 0 24 24" fill="none" xmlns="http://www.w3.org/2000/svg">
<path d="M1.81643 11.836L10.8727 2.78443L11.4797 2.1774C11.618 2.04 11.8051 1.96289 12 1.96289C12.195 1.96289 12.382 2.04 12.5203 2.1774L22.1836 11.836C22.3253 11.9772 22.4373 12.1453 22.513 12.3305C22.5887 12.5156 22.6265 12.7141 22.6242 12.9141C22.6149 13.7391 21.9281 14.3977 21.1031 14.3977H20.107V22.0313H3.89299V14.3977H2.8758C2.47502 14.3977 2.09768 14.2407 1.81409 13.9571C1.67445 13.8179 1.56381 13.6524 1.48857 13.4701C1.41334 13.2879 1.37501 13.0925 1.3758 12.8954C1.3758 12.4969 1.53284 12.1196 1.81643 11.836V11.836ZM10.6875 20.3438H13.3125V15.5625H10.6875V20.3438ZM5.58049 12.7102V20.3438H9.18752V15C9.18752 14.4821 9.60705 14.0625 10.125 14.0625H13.875C14.393 14.0625 14.8125 14.4821 14.8125 15V20.3438H18.4195V12.7102H20.6695L11.9977 4.04537L11.4563 4.58677L3.32815 12.7102H5.58049Z" fill="white"/>
</svg>
