<svg width="24" height="24" viewBox="0 0 24 24" fill="none" xmlns="http://www.w3.org/2000/svg">
<path fill-rule="evenodd" clip-rule="evenodd" d="M0.0952759 17.2813C0.0952759 19.2574 1.53571 20.8655 3.30578 20.8655H20.7191C22.4759 20.8655 23.9047 19.2578 23.9047 17.2813V6.71871C23.9047 4.74222 22.4754 3.13452 20.7191 3.13452H3.30578C1.53571 3.13452 0.0952759 4.74222 0.0952759 6.71871V17.2813ZM3.30578 19.9998C2.01304 19.9998 0.960961 18.7805 0.960961 17.2813V8.45942H23.064V17.2813C23.064 18.7805 22.0119 19.9998 20.7191 19.9998H3.30578ZM0.960961 6.71871C0.960961 5.19419 1.9908 4.00021 3.30578 4.00021H20.7191C22.0123 4.00021 23.064 5.21955 23.064 6.71871V7.61865H0.960961V6.71871ZM19.7974 11.7759H13.993V13.0215H19.7974V11.7759ZM18.8508 14.0927H13.993V15.3382H18.8508V14.0927ZM13.993 16.3347H16.4094V17.5803H13.993V16.3347ZM15.388 5.74715C15.388 6.21513 15.0086 6.59415 14.541 6.59415C14.0735 6.59415 13.694 6.21469 13.694 5.74715C13.694 5.27961 14.073 4.90015 14.541 4.90015C15.009 4.90015 15.388 5.27916 15.388 5.74715ZM17.1567 6.59415C17.6247 6.59415 18.0037 6.21513 18.0037 5.74715C18.0037 5.27916 17.6247 4.90015 17.1567 4.90015C16.6887 4.90015 16.3097 5.27961 16.3097 5.74715C16.3097 6.21469 16.6887 6.59415 17.1567 6.59415ZM20.769 5.74715C20.769 6.21513 20.3899 6.59415 19.922 6.59415C19.454 6.59415 19.075 6.21469 19.075 5.74715C19.075 5.27961 19.454 4.90015 19.922 4.90015C20.3899 4.90015 20.769 5.27916 20.769 5.74715ZM8.5052 11.153C8.46255 11.1246 8.41251 11.11 8.3616 11.1111H6.99403C6.94313 11.11 6.89308 11.1246 6.85043 11.153C6.80738 11.1861 6.77615 11.2328 6.76154 11.2857L6.48803 12.1446C6.37268 12.1988 6.26276 12.2643 6.15981 12.3402L5.2914 12.1446C5.24215 12.131 5.19022 12.131 5.14096 12.1446C5.09191 12.1654 5.05102 12.2023 5.02472 12.2494L4.34093 13.4575C4.32426 13.5073 4.32426 13.5613 4.34093 13.6111C4.3441 13.6638 4.36598 13.7134 4.40247 13.7508L4.99737 14.4491C4.99053 14.5793 4.99053 14.7099 4.99737 14.8401L4.40247 15.5385C4.36598 15.5758 4.3441 15.6255 4.34093 15.6781C4.32426 15.7279 4.32426 15.782 4.34093 15.8318L5.02472 17.0398C5.05102 17.087 5.09191 17.1238 5.14096 17.1446C5.19022 17.1582 5.24215 17.1582 5.2914 17.1446L6.15981 16.9491C6.26276 17.0249 6.37268 17.0904 6.48803 17.1446L6.76154 18.0035C6.7734 18.0578 6.80522 18.1053 6.85043 18.1362C6.89308 18.1646 6.94313 18.1792 6.99403 18.1781H8.3616C8.41251 18.1792 8.46255 18.1646 8.5052 18.1362C8.55041 18.1053 8.58224 18.0578 8.59409 18.0035L8.86761 17.1446C8.98295 17.0904 9.09287 17.0249 9.19582 16.9491L10.0642 17.1446C10.1135 17.1582 10.1654 17.1582 10.2147 17.1446C10.2637 17.1238 10.3046 17.087 10.3309 17.0398L11.0147 15.8318C11.0314 15.782 11.0314 15.7279 11.0147 15.6781C11.0115 15.6255 10.9897 15.5758 10.9532 15.5385L10.3583 14.8401C10.3651 14.7099 10.3651 14.5793 10.3583 14.4491L10.9532 13.7508C10.9897 13.7134 11.0115 13.6638 11.0147 13.6111C11.0314 13.5613 11.0314 13.5073 11.0147 13.4575L10.3309 12.2494C10.3046 12.2023 10.2637 12.1654 10.2147 12.1446C10.1654 12.131 10.1135 12.131 10.0642 12.1446L9.19582 12.3402C9.09287 12.2643 8.98295 12.1988 8.86761 12.1446L8.59409 11.2857C8.58224 11.2315 8.55041 11.184 8.5052 11.153ZM7.17181 11.6139H8.18382L8.46417 12.5008L8.65563 12.5986C8.74885 12.6442 8.83807 12.698 8.92231 12.7592L9.09326 12.8779L9.98902 12.6824L10.495 13.5692L9.87961 14.2675V14.477C9.88645 14.584 9.88645 14.6913 9.87961 14.7982V15.0077L10.495 15.7061L9.98902 16.5929L9.09326 16.3974L8.92231 16.5161C8.83807 16.5773 8.74885 16.631 8.65563 16.6767L8.46417 16.7745L8.18382 17.6613H7.17181L6.89146 16.7745L6.70684 16.6767C6.61063 16.6327 6.51899 16.5789 6.43332 16.5161L6.26238 16.3974L5.36661 16.5929L4.86061 15.7061L5.47602 15.0077V14.7982C5.46918 14.6913 5.46918 14.584 5.47602 14.477V14.2675L4.86061 13.5692L5.36661 12.6824L6.26238 12.8779L6.43332 12.7592C6.51899 12.6964 6.61063 12.6426 6.70684 12.5986L6.89146 12.5008L7.17181 11.6139ZM8.63173 13.4279C8.362 13.205 8.02482 13.0846 7.67782 13.0874C7.48314 13.0874 7.29042 13.1269 7.11082 13.2037C6.93123 13.2804 6.76835 13.3928 6.63162 13.5343C6.38603 13.7847 6.2332 14.1144 6.19926 14.4671C6.16532 14.8197 6.25237 15.1735 6.44554 15.4679C6.6387 15.7623 6.92599 15.9791 7.2583 16.0812C7.59061 16.1832 7.94732 16.1642 8.26746 16.0275C8.58759 15.8907 8.85128 15.6447 9.01346 15.3314C9.17564 15.0181 9.22624 14.657 9.15662 14.3098C9.08699 13.9626 8.90145 13.6509 8.63173 13.4279ZM7.05251 13.8096C7.23059 13.667 7.45159 13.5919 7.67782 13.5971V13.6111C7.93432 13.6149 8.17941 13.72 8.3616 13.9044C8.5182 14.0712 8.61331 14.2883 8.6307 14.5187C8.64808 14.7492 8.58669 14.9786 8.45696 15.1679C8.32724 15.3573 8.13723 15.4948 7.91932 15.5571C7.70141 15.6194 7.46909 15.6026 7.26197 15.5095C7.05484 15.4164 6.88574 15.2529 6.78349 15.0467C6.68123 14.8406 6.65215 14.6046 6.70121 14.379C6.75027 14.1534 6.87442 13.9522 7.05251 13.8096Z" fill="white"/>
</svg>
