<svg width="24" height="24" viewBox="0 0 24 24" fill="none" xmlns="http://www.w3.org/2000/svg">
<path fill-rule="evenodd" clip-rule="evenodd" d="M10.1442 11.5518C9.12241 11.5518 8.12359 11.2424 7.27402 10.6627C6.42445 10.0829 5.76229 9.25895 5.37128 8.2949C4.98027 7.33086 4.87796 6.27005 5.0773 5.24663C5.27663 4.2232 5.76866 3.28313 6.49116 2.54528C7.21366 1.80743 8.13418 1.30495 9.13631 1.10138C10.1384 0.897805 11.1772 1.00229 12.1212 1.40161C13.0652 1.80093 13.872 2.47715 14.4397 3.34477C15.0073 4.21239 15.3103 5.23243 15.3103 6.2759C15.307 7.67412 14.7617 9.0141 13.7935 10.0028C12.8254 10.9915 11.5133 11.5484 10.1442 11.5518ZM10.1442 2.02445C9.32081 2.02445 8.51593 2.27379 7.83133 2.74095C7.14673 3.20811 6.61314 3.87209 6.29805 4.64894C5.98297 5.4258 5.90052 6.28062 6.06116 7.10532C6.22179 7.93002 6.61827 8.68756 7.20048 9.28214C7.78269 9.87671 8.52447 10.2816 9.33201 10.4457C10.1396 10.6097 10.9766 10.5255 11.7373 10.2037C12.498 9.88195 13.1482 9.33703 13.6056 8.63789C14.063 7.93874 14.3072 7.11676 14.3072 6.2759C14.3072 5.14835 13.8686 4.06697 13.0879 3.26967C12.3071 2.47237 11.2483 2.02445 10.1442 2.02445ZM10.6082 21.6426H0.501575C0.368551 21.6426 0.240975 21.5886 0.146913 21.4926C0.052851 21.3965 7.53373e-06 21.2662 7.53373e-06 21.1304V18.1083C-0.00127175 17.4554 0.160394 16.813 0.469742 16.2416C0.779091 15.6703 1.22592 15.1889 1.76803 14.8428C4.0434 13.46 6.64376 12.7341 9.29154 12.7427H10.0564C10.1371 12.7491 10.2153 12.7743 10.2849 12.8165C10.3545 12.8587 10.4136 12.9167 10.4577 12.986C10.4972 13.0608 10.5179 13.1444 10.5179 13.2293C10.5179 13.3143 10.4972 13.3979 10.4577 13.4726C10.0104 14.4423 9.7751 15.4998 9.76803 16.5716C9.75748 18.0614 10.1952 19.5187 11.022 20.7462C11.0683 20.8256 11.0928 20.9163 11.0928 21.0087C11.0928 21.1012 11.0683 21.1919 11.022 21.2712C10.9933 21.3661 10.9394 21.451 10.8664 21.5166C10.7934 21.5821 10.704 21.6257 10.6082 21.6426ZM1.00314 20.6182H9.70534C9.15614 19.5872 8.82946 18.448 8.74727 17.2774C8.66508 16.1067 8.82929 14.9316 9.22885 13.8312C6.78458 13.8136 4.38075 14.4683 2.2696 15.7264C1.8776 15.9797 1.55622 16.332 1.33656 16.7493C1.1169 17.1665 1.00637 17.6346 1.01568 18.1083L1.00314 20.6182ZM19.3354 10.1944C19.2572 10.1423 19.1655 10.1155 19.0721 10.1176H16.5643C16.4709 10.1155 16.3792 10.1423 16.301 10.1944C16.222 10.2551 16.1647 10.3406 16.1379 10.4377L15.6364 12.0128C15.4249 12.1122 15.2233 12.2322 15.0345 12.3714L13.442 12.0128C13.3517 11.9878 13.2565 11.9878 13.1662 12.0128C13.0762 12.0509 13.0012 12.1185 12.953 12.2049L11.6991 14.4203C11.6685 14.5116 11.6685 14.6107 11.6991 14.702C11.7049 14.7985 11.745 14.8896 11.8119 14.9581L12.9028 16.2386C12.8903 16.4775 12.8903 16.7169 12.9028 16.9558L11.8119 18.2363C11.745 18.3048 11.7049 18.3959 11.6991 18.4924C11.6685 18.5837 11.6685 18.6828 11.6991 18.7742L12.953 20.9895C13.0012 21.0759 13.0762 21.1435 13.1662 21.1816C13.2565 21.2066 13.3517 21.2066 13.442 21.1816L15.0345 20.823C15.2233 20.9622 15.4249 21.0822 15.6364 21.1816L16.1379 22.7567C16.1597 22.8562 16.2181 22.9433 16.301 23C16.3792 23.0521 16.4709 23.0789 16.5643 23.0768H19.0721C19.1655 23.0789 19.2572 23.0521 19.3354 23C19.4183 22.9433 19.4767 22.8562 19.4984 22.7567L20 21.1816C20.2115 21.0822 20.4131 20.9622 20.6019 20.823L22.1944 21.1816C22.2847 21.2066 22.3799 21.2066 22.4702 21.1816C22.5602 21.1435 22.6352 21.0759 22.6834 20.9895L23.9373 18.7742C23.9679 18.6828 23.9679 18.5837 23.9373 18.4924C23.9315 18.3959 23.8914 18.3048 23.8245 18.2363L22.7336 16.9558C22.7461 16.7169 22.7461 16.4775 22.7336 16.2386L23.8245 14.9581C23.8914 14.8896 23.9315 14.7985 23.9373 14.702C23.9679 14.6107 23.9679 14.5116 23.9373 14.4203L22.6834 12.2049C22.6352 12.1185 22.5602 12.0509 22.4702 12.0128C22.3799 11.9878 22.2847 11.9878 22.1944 12.0128L20.6019 12.3714C20.4131 12.2322 20.2115 12.1122 20 12.0128L19.4984 10.4377C19.4767 10.3383 19.4183 10.2511 19.3354 10.1944ZM16.8903 11.0396H18.7461L19.2602 12.6659L19.6113 12.8452C19.7822 12.9289 19.9458 13.0275 20.1003 13.1397L20.4138 13.3574L22.0564 12.9988L22.9843 14.6251L21.8558 15.9057V16.2899C21.8684 16.486 21.8684 16.6828 21.8558 16.8789V17.2631L22.9843 18.5437L22.0564 20.17L20.4138 19.8114L20.1003 20.0291C19.9458 20.1413 19.7822 20.2399 19.6113 20.3236L19.2602 20.5029L18.7461 22.1292H16.8903L16.3762 20.5029L16.0376 20.3236C15.8612 20.2429 15.6932 20.1442 15.5361 20.0291L15.2226 19.8114L13.58 20.17L12.6521 18.5437L13.7806 17.2631V16.8789C13.768 16.6828 13.768 16.486 13.7806 16.2899V15.9057L12.6521 14.6251L13.58 12.9988L15.2226 13.3574L15.5361 13.1397C15.6932 13.0246 15.8612 12.9259 16.0376 12.8452L16.3762 12.6659L16.8903 11.0396ZM19.5675 14.3661C19.0728 13.9572 18.4545 13.7365 17.8182 13.7416C17.4612 13.7416 17.1078 13.8141 16.7785 13.9548C16.4491 14.0955 16.1504 14.3016 15.8997 14.5611C15.4493 15.0202 15.1691 15.6248 15.1068 16.2716C15.0446 16.9183 15.2042 17.5671 15.5585 18.107C15.9127 18.6469 16.4395 19.0443 17.0489 19.2315C17.6583 19.4187 18.3124 19.3839 18.8995 19.1331C19.4865 18.8823 19.9701 18.4311 20.2675 17.8566C20.5649 17.282 20.6577 16.6199 20.53 15.9832C20.4023 15.3465 20.0621 14.7749 19.5675 14.3661ZM16.6715 15.0659C16.9981 14.8045 17.4033 14.6668 17.8182 14.6764V14.702C18.2886 14.7088 18.738 14.9016 19.0721 15.2398C19.3593 15.5457 19.5337 15.9439 19.5656 16.3664C19.5975 16.7889 19.4849 17.2096 19.247 17.5569C19.0091 17.9041 18.6607 18.1563 18.2611 18.2705C17.8615 18.3848 17.4354 18.3539 17.0556 18.1832C16.6758 18.0126 16.3657 17.7126 16.1782 17.3346C15.9907 16.9566 15.9374 16.5238 16.0273 16.1101C16.1173 15.6964 16.3449 15.3274 16.6715 15.0659Z" fill="white"/>
</svg>
