<svg width="16" height="16" viewBox="0 0 16 16" fill="none" xmlns="http://www.w3.org/2000/svg">
<path fill-rule="evenodd" clip-rule="evenodd" d="M2.8943 7.94708C2.8943 5.41174 4.87069 2.8943 7.94708 2.8943C10.4314 2.8943 11.6602 4.73297 12.1834 5.71133H10.63C10.5114 5.71133 10.3976 5.75844 10.3138 5.8423C10.2299 5.92616 10.1828 6.03989 10.1828 6.15848C10.1828 6.27707 10.2299 6.39081 10.3138 6.47466C10.3976 6.55852 10.5114 6.60563 10.63 6.60563H13.3129C13.4315 6.60563 13.5452 6.55852 13.629 6.47466C13.7129 6.39081 13.76 6.27707 13.76 6.15848V3.47559C13.76 3.357 13.7129 3.24327 13.629 3.15941C13.5452 3.07555 13.4315 3.02844 13.3129 3.02844C13.1943 3.02844 13.0805 3.07555 12.9967 3.15941C12.9128 3.24327 12.8657 3.357 12.8657 3.47559V5.09695C12.2361 3.98623 10.7784 2 7.94708 2C4.31355 2 2 4.98248 2 7.94708C2 10.9117 4.31355 13.8942 7.94708 13.8942C9.68559 13.8942 11.1326 13.2055 12.1628 12.1574C12.7095 11.5998 13.1431 10.9418 13.4399 10.2195C13.4622 10.1652 13.4736 10.107 13.4734 10.0483C13.4732 9.98955 13.4615 9.93144 13.4389 9.87725C13.4162 9.82307 13.3831 9.77387 13.3415 9.73247C13.2999 9.69106 13.2505 9.65827 13.1962 9.63596C13.1418 9.61364 13.0837 9.60225 13.0249 9.60242C12.9662 9.60259 12.9081 9.61432 12.8539 9.63695C12.7997 9.65958 12.7505 9.69266 12.7091 9.73431C12.6677 9.77595 12.6349 9.82534 12.6126 9.87965C12.3599 10.4949 11.9907 11.0555 11.5252 11.5305C10.6568 12.4159 9.43608 12.9999 7.94708 12.9999C4.87069 12.9999 2.8943 10.4824 2.8943 7.94708V7.94708Z" fill="#212529"/>
</svg>
