<svg width="24" height="24" viewBox="0 0 24 24" fill="none" xmlns="http://www.w3.org/2000/svg">
<path fill-rule="evenodd" clip-rule="evenodd" d="M5.11684 1.70303C5.11684 0.765535 4.35111 0 3.41341 0C2.47571 0 1.71004 0.765803 1.71004 1.70311C1.71004 2.64061 2.47631 3.40614 3.41401 3.40614C3.83976 3.40614 4.22901 3.24691 4.52826 2.98685L7.48079 5.03342C7.4513 5.15842 7.43437 5.28797 7.43437 5.4217C7.43437 6.35901 8.20064 7.12415 9.13834 7.12415C9.60651 7.12415 10.0323 6.93336 10.341 6.62555L13.3539 9.38745C13.2966 9.49626 13.25 9.6123 13.2169 9.73577C12.9741 10.6411 13.5161 11.5792 14.4219 11.8217C15.3276 12.0643 16.2661 11.5227 16.5088 10.6174C16.5628 10.4159 16.5758 10.2133 16.5568 10.0166L19.3773 8.22204C19.5829 8.4313 19.8437 8.5911 20.1464 8.67215C21.0522 8.91468 21.9906 8.37366 22.2334 7.4683C22.4761 6.56294 21.9341 5.62489 21.0284 5.38233C20.1224 5.13994 19.1846 5.68135 18.9418 6.58671C18.8309 6.99989 18.8851 7.41864 19.0611 7.77609L16.4084 9.46408C16.2031 9.0208 15.8102 8.66753 15.3036 8.53189C14.7087 8.37267 14.1011 8.55281 13.6843 8.95061L10.6614 6.17921C10.7759 5.95051 10.8419 5.69371 10.8419 5.42167C10.8419 4.48417 10.0757 3.71863 9.13795 3.71863C8.53181 3.71863 7.99878 4.03958 7.69649 4.51879L4.87866 2.56597C5.02895 2.31238 5.11684 2.01788 5.11684 1.70303ZM5.11658 9.70924C5.11658 9.55857 4.99444 9.43682 4.84377 9.43663H1.98192C1.83125 9.43682 1.70912 9.55876 1.70912 9.70943V23.4545H0.2768C0.203748 23.4534 0.133361 23.4818 0.0812359 23.5329C0.0292986 23.5843 0 23.6543 0 23.7274C0 23.8004 0.0293005 23.8704 0.0812359 23.9216C0.133361 23.9729 0.203748 24.0011 0.2768 24H7.65869V24H8.15869H10.1587H10.6587V24H13.3894V24.0001H13.8894H15.8894H16.3894V24H19.1204V24.0001H19.6204H21.6204H22.1204V24H23.7232C23.7963 24.0011 23.8666 23.9729 23.9188 23.9216C23.9707 23.8704 24 23.8004 24 23.7274C24 23.6543 23.9707 23.5843 23.9188 23.5329C23.8666 23.4818 23.7963 23.4534 23.7232 23.4545H22.2909V15.0021C22.2909 14.8516 22.1689 14.7295 22.0183 14.7295H19.1557C19.0051 14.7295 18.8829 14.8516 18.8829 15.0021V23.4545H16.5664V18.0068C16.5664 17.8562 16.4443 17.734 16.2936 17.734H13.4311C13.2804 17.734 13.1584 17.856 13.1584 18.0066V23.4544H10.8413V12.1417C10.8413 11.9912 10.7192 11.8691 10.5685 11.8691H7.70651C7.55584 11.8691 7.4337 11.9912 7.4337 12.1417V23.4544H5.11658V9.70924ZM10.1587 23.4544V12.5H8.15869V23.4544H10.1587ZM21.6204 23.4541V15.3931H19.6204V23.4541H21.6204ZM15.8894 23.4545V18.4146H13.8894V23.4545H15.8894ZM4.38074 10.0955H2.38074V23.341H4.38074V10.0955Z" fill="white"/>
</svg>
