<svg width="24" height="24" viewBox="0 0 24 24" fill="none" xmlns="http://www.w3.org/2000/svg">
<path d="M6.97036 13.1736V17.3596C6.97036 17.6184 6.76262 17.7343 6.52803 17.7343C6.29343 17.7343 6.08569 17.6184 6.08569 17.3596V13.1736C6.08569 12.9148 6.29273 12.799 6.52803 12.799C6.76332 12.799 6.97036 12.9148 6.97036 13.1736Z" fill="#E6A603"/>
<path d="M8.82024 12.8262C9.22795 12.8262 9.3728 12.9078 9.62152 13.5238L10.5684 15.8568L11.4735 13.5308C11.7018 12.9371 11.8742 12.8283 12.2819 12.8283H12.4274C12.8691 12.8283 13.0146 12.9643 13.0146 13.3941V17.3785C13.0146 17.624 12.821 17.7329 12.5907 17.7329C12.3787 17.7329 12.1759 17.624 12.1759 17.3785V13.5901C12.1195 13.8412 12.0435 14.0875 11.9484 14.3269L11.0361 16.544C10.9188 16.8308 10.8016 16.9054 10.5663 16.9054C10.2836 16.9054 10.1656 16.8238 10.0483 16.5238L9.15658 14.3269C9.06098 14.0863 8.98028 13.8403 8.91492 13.5901V17.3764C8.91492 17.6219 8.71425 17.7308 8.49096 17.7308C8.28393 17.7308 8.08325 17.6219 8.08325 17.3764V13.392C8.08325 12.9622 8.22881 12.8262 8.67114 12.8262H8.82024Z" fill="#E6A603"/>
<path d="M17.5963 13.1331C17.804 13.2726 17.8175 13.5078 17.686 13.6912C17.5546 13.8747 17.3476 13.9236 17.1752 13.814C16.9123 13.6508 16.588 13.5552 16.1661 13.5552C15.2405 13.5552 14.8399 13.9375 14.8399 15.1926V15.3357C14.8399 16.5915 15.2193 16.9731 16.2078 16.9731C16.4912 16.9825 16.7734 16.9338 17.0367 16.8301V15.6915H16.2629C16.051 15.6915 15.952 15.5205 15.952 15.3231C15.952 15.1257 16.0488 14.961 16.2629 14.961H17.3271C17.7694 14.961 17.9143 15.1005 17.9143 15.5275V16.8782C17.9143 17.227 17.8104 17.3966 17.5136 17.5194C17.0887 17.6829 16.6364 17.7662 16.1803 17.7649C14.736 17.7649 13.9481 17.1307 13.9481 15.4047V15.1257C13.9481 13.3996 14.736 12.7654 16.1661 12.7654C16.8155 12.7647 17.272 12.9147 17.5963 13.1331Z" fill="#E6A603"/>
<path d="M3.17595 23.5651C3.12928 23.5651 3.08453 23.5468 3.05153 23.5142C3.01854 23.4816 3 23.4375 3 23.3914L3 1.17372C2.99991 1.15088 3.0044 1.12825 3.0132 1.10713C3.02201 1.08601 3.03497 1.06683 3.05133 1.05068C3.06768 1.03453 3.08712 1.02174 3.1085 1.01304C3.12989 1.00434 3.15281 0.99991 3.17595 1H14.1127C14.1358 0.999885 14.1587 1.0044 14.1799 1.01328C14.2012 1.02215 14.2204 1.0352 14.2364 1.05163L20.9491 7.6097C20.9823 7.64308 21.001 7.68784 21.0014 7.73458V23.3914C21.0014 23.4375 20.9829 23.4816 20.9499 23.5142C20.9169 23.5468 20.8721 23.5651 20.8255 23.5651H3.17595ZM3.57235 23H20.4276V8.58922H13.7665C13.7072 8.58932 13.6484 8.57785 13.5936 8.55548C13.5388 8.5331 13.489 8.50027 13.447 8.45885C13.4051 8.41744 13.3718 8.36826 13.3492 8.31413C13.3265 8.26 13.3149 8.20199 13.315 8.14342V1.56511H3.57235V23ZM13.9163 7.99342H20.4326L13.9163 1.55953V7.99342Z" fill="#31363D"/>
</svg>
