<svg width="24" height="24" viewBox="0 0 24 24" fill="none" xmlns="http://www.w3.org/2000/svg">
<path d="M3.17593 23.5405C3.12933 23.5404 3.08469 23.5228 3.05173 23.4917C3.01878 23.4606 3.00019 23.4184 3 23.3744L3 1.16617C3 1.1221 3.01854 1.07983 3.05153 1.04867C3.08452 1.01751 3.12927 1 3.17593 1H14.1119C14.1349 0.99989 14.1578 1.00421 14.1791 1.0127C14.2003 1.02119 14.2195 1.03367 14.2355 1.04938L20.9477 7.32232C20.9808 7.35426 20.9996 7.39707 21 7.44178V23.3744C20.9998 23.4184 20.9812 23.4606 20.9483 23.4917C20.9153 23.5228 20.8707 23.5404 20.8241 23.5405H3.17593ZM3.5723 23H20.427V8.25926H13.765C13.7056 8.25944 13.6468 8.24853 13.5919 8.22717C13.537 8.20581 13.4871 8.17442 13.445 8.1348C13.403 8.09517 13.3697 8.0481 13.347 7.99628C13.3243 7.94446 13.3127 7.88891 13.3128 7.83283V1.54054H3.5723V23ZM13.9162 7.68936H20.4319L13.9162 1.5352V7.68936Z" fill="#31363D"/>
<path d="M8.46586 12.6824C8.67358 12.6824 8.76685 12.8405 8.76685 13.0234C8.76685 13.2062 8.67358 13.3644 8.46586 13.3644H6.48258V14.6323H8.32879C8.53581 14.6323 8.62978 14.7905 8.62978 14.9733C8.62978 15.1562 8.53581 15.3143 8.32879 15.3143H6.48258V16.8619C6.48258 17.1021 6.28192 17.2096 6.05512 17.2096C5.82832 17.2096 5.62695 17.1021 5.62695 16.8619V13.2049C5.62695 12.8045 5.76826 12.6804 6.19219 12.6804L8.46586 12.6824Z" fill="#31363D"/>
<path d="M10.3678 12.992V16.8625C10.3678 17.1027 10.1672 17.2102 9.93967 17.2102C9.71216 17.2102 9.51221 17.1027 9.51221 16.8625V12.992C9.51221 12.7517 9.71216 12.6443 9.93967 12.6443C10.1672 12.6443 10.3678 12.7517 10.3678 12.992Z" fill="#31363D"/>
<path d="M12.3074 12.992V16.4915H14.2469C14.4539 16.4915 14.5478 16.6489 14.5478 16.8325C14.5478 17.016 14.4539 17.1735 14.2469 17.1735H12.0198C11.5917 17.1735 11.451 17.0473 11.451 16.6489V12.992C11.451 12.7517 11.6517 12.6443 11.8792 12.6443C12.1067 12.6443 12.3074 12.7517 12.3074 12.992Z" fill="#31363D"/>
<path d="M18.031 12.6824C18.2317 12.6824 18.3257 12.8339 18.3257 13.016C18.3257 13.1982 18.2317 13.3497 18.031 13.3497H16.0315V14.5429H17.8975C18.0918 14.5429 18.1851 14.6951 18.1851 14.8719C18.1851 15.0487 18.0918 15.2002 17.8975 15.2002H16.0315V16.5015H18.0805C18.2812 16.5015 18.3744 16.659 18.3744 16.8352C18.3744 17.0114 18.2812 17.1689 18.0805 17.1689H15.751C15.3229 17.1689 15.1823 17.0427 15.1823 16.6443V13.2069C15.1823 12.8065 15.3236 12.6824 15.751 12.6824H18.031Z" fill="#31363D"/>
</svg>
