<svg width="24" height="24" viewBox="0 0 24 24" fill="none" xmlns="http://www.w3.org/2000/svg">
<path d="M3.17594 23.5651C3.12934 23.5649 3.08469 23.5466 3.05174 23.514C3.01878 23.4815 3.00019 23.4374 3 23.3914V1.17372C3 1.12765 3.01854 1.08346 3.05153 1.05088C3.08453 1.0183 3.12928 1 3.17594 1H14.1127C14.1358 0.999885 14.1587 1.0044 14.1799 1.01328C14.2012 1.02215 14.2204 1.0352 14.2364 1.05163L20.9491 7.6097C20.9826 7.64288 21.0014 7.68777 21.0014 7.73458V23.3914C21.0014 23.4373 20.983 23.4814 20.9501 23.514C20.9173 23.5465 20.8727 23.5649 20.8262 23.5651H3.17594ZM3.57235 23H20.4284V8.58923H13.7651C13.7058 8.58932 13.647 8.57785 13.5922 8.55548C13.5374 8.53311 13.4876 8.50027 13.4456 8.45886C13.4037 8.41744 13.3704 8.36826 13.3478 8.31413C13.3251 8.26 13.3135 8.20199 13.3136 8.14342V1.56511H3.57235V23ZM13.917 7.99342H20.4333L13.917 1.55953V7.99342Z" fill="#31363D"/>
<path d="M9.36504 12.9218C9.57702 12.9218 9.67453 13.0913 9.67453 13.288C9.67453 13.4848 9.57773 13.6543 9.36504 13.6543H8.18289V17.2738C8.18289 17.5319 7.97657 17.647 7.74339 17.647C7.51021 17.647 7.30317 17.5319 7.30317 17.2738V13.655H6.11396C5.90198 13.655 5.80518 13.4855 5.80518 13.2887C5.80518 13.092 5.90127 12.9225 6.11396 12.9225L9.36504 12.9218Z" fill="#ADB2B9"/>
<path d="M13.8039 13.505L12.5603 15.2897L13.8406 16.9955C13.9919 17.2131 13.9438 17.4434 13.717 17.5794C13.5177 17.6945 13.2563 17.6743 13.1192 17.4643L11.9886 15.8799L10.8425 17.4503C10.7825 17.5439 10.6879 17.6107 10.5789 17.6368C10.4699 17.6628 10.3549 17.646 10.2582 17.5899C10.0518 17.4678 9.97552 17.2369 10.1168 17.0317L11.4594 15.2785L10.2426 13.5343C10.0914 13.3174 10.1882 13.0662 10.4214 12.9441C10.5226 12.884 10.6439 12.866 10.7586 12.894C10.8733 12.922 10.9721 12.9937 11.0333 13.0934L12.0501 14.6981L13.0881 13.0899C13.1153 13.0428 13.1519 13.0016 13.1957 12.9689C13.2395 12.9362 13.2896 12.9125 13.3429 12.8995C13.3963 12.8864 13.4517 12.8842 13.5059 12.893C13.5601 12.9017 13.612 12.9213 13.6583 12.9504C13.8795 13.0641 13.9551 13.2811 13.8039 13.505Z" fill="#ADB2B9"/>
<path d="M17.886 12.9218C18.098 12.9218 18.1955 13.0913 18.1955 13.288C18.1955 13.4848 18.0994 13.6543 17.886 13.6543H16.7039V17.2738C16.7039 17.5319 16.4976 17.647 16.2644 17.647C16.0312 17.647 15.8242 17.5319 15.8242 17.2738V13.655H14.6357C14.4237 13.655 14.3262 13.4855 14.3262 13.2887C14.3262 13.092 14.4223 12.9225 14.6357 12.9225L17.886 12.9218Z" fill="#ADB2B9"/>
</svg>
