<svg width="24" height="24" viewBox="0 0 24 24" fill="none" xmlns="http://www.w3.org/2000/svg">
<path d="M6.07923 13.4457V14.8564H7.87188V13.4457C7.87188 13.2204 8.05206 13.1192 8.25627 13.1192C8.46048 13.1192 8.64066 13.2204 8.64066 13.4457V17.0799C8.64066 17.3052 8.46048 17.4057 8.25627 17.4057C8.05206 17.4057 7.87188 17.3052 7.87188 17.0799V15.4878H6.0764V17.0827C6.0764 17.308 5.89622 17.4085 5.69201 17.4085C5.48781 17.4085 5.30762 17.308 5.30762 17.0827V13.4457C5.30762 13.2204 5.48781 13.1192 5.69201 13.1192C5.89622 13.1192 6.07923 13.2232 6.07923 13.4457Z" fill="#3B82EC"/>
<path d="M12.5885 13.4778L13.3658 16.2643L14.1282 13.3829C14.1819 13.1694 14.3684 13.0927 14.5663 13.1338C14.7783 13.1757 14.8729 13.3431 14.8129 13.5524L13.8236 17.0498C13.8017 17.1524 13.7441 17.2441 13.6609 17.3091C13.5776 17.3741 13.474 17.4082 13.3679 17.4057C13.1813 17.4057 12.9835 17.3108 12.9114 17.038L12.1257 14.1434L11.3032 17.054C11.2771 17.156 11.2172 17.2464 11.1329 17.3108C11.0487 17.3752 10.945 17.4098 10.8385 17.4092C10.732 17.4086 10.6287 17.3727 10.5453 17.3073C10.4619 17.2419 10.403 17.1507 10.3782 17.0485L9.41161 13.5915C9.3459 13.3606 9.45966 13.1945 9.67588 13.1415C9.87444 13.0941 10.0786 13.1234 10.1444 13.3724L10.8828 16.2719L11.6699 13.4813C11.695 13.3797 11.7539 13.2893 11.8372 13.2247C11.9204 13.1601 12.0233 13.125 12.1292 13.125C12.2351 13.125 12.338 13.1601 12.4213 13.2247C12.5045 13.2893 12.5634 13.3797 12.5885 13.4813V13.4778Z" fill="#3B82EC"/>
<path d="M17.2062 13.1575C18.2449 13.1575 18.69 13.6794 18.69 14.3791V14.4622C18.69 15.1556 18.2096 15.7487 17.2062 15.7487H16.3413V17.0826C16.3413 17.3079 16.1611 17.4084 15.9569 17.4084C15.7527 17.4084 15.5725 17.3079 15.5725 17.0826V13.6494C15.5725 13.2761 15.699 13.1575 16.0827 13.1575H17.2062ZM16.3413 15.111H17.1037C17.6082 15.111 17.9142 14.9512 17.9142 14.4531V14.3875C17.9142 13.9194 17.6082 13.7945 17.1701 13.7945H16.3413V15.111Z" fill="#3B82EC"/>
<path d="M3.17594 23.5651C3.12928 23.5651 3.08453 23.5468 3.05153 23.5142C3.01853 23.4816 3 23.4375 3 23.3914L3 1.17372C2.99991 1.15088 3.00439 1.12825 3.0132 1.10713C3.02201 1.08601 3.03497 1.06683 3.05132 1.05068C3.06768 1.03453 3.08711 1.02173 3.1085 1.01304C3.12989 1.00434 3.15281 0.999909 3.17594 1H14.1127C14.1358 0.999925 14.1587 1.00446 14.1799 1.01333C14.2012 1.0222 14.2204 1.03523 14.2364 1.05163L20.9491 7.6097C20.9823 7.64309 21.001 7.68785 21.0014 7.73459V23.3914C21.0012 23.4374 20.9826 23.4815 20.9497 23.514C20.9167 23.5466 20.8721 23.5649 20.8255 23.5651H3.17594ZM3.57235 23H20.4276V8.58923H13.7651C13.7057 8.5895 13.6468 8.57817 13.5919 8.55587C13.5369 8.53357 13.487 8.50076 13.445 8.45931C13.4029 8.41787 13.3696 8.36862 13.3469 8.3144C13.3243 8.26018 13.3127 8.20207 13.3129 8.14342V1.56511H3.57235V23ZM13.9163 7.99342H20.4326L13.9163 1.55953V7.99342Z" fill="#31363D"/>
</svg>
