<svg width="24" height="24" viewBox="0 0 24 24" fill="none" xmlns="http://www.w3.org/2000/svg">
<path d="M3.17593 23.5651C3.12933 23.5649 3.08469 23.5466 3.05173 23.514C3.01878 23.4815 3.00019 23.4374 3 23.3914L3 1.17372C3 1.12765 3.01854 1.08346 3.05153 1.05088C3.08452 1.0183 3.12927 1 3.17593 1H14.1119C14.1349 0.999885 14.1578 1.0044 14.1791 1.01328C14.2003 1.02215 14.2195 1.0352 14.2355 1.05163L20.9477 7.6097C20.9808 7.64309 20.9996 7.68785 21 7.73458V23.3914C20.9998 23.4374 20.9812 23.4815 20.9483 23.514C20.9153 23.5466 20.8707 23.5649 20.8241 23.5651H3.17593ZM3.5723 23H20.427V8.58923H13.7642C13.7049 8.58945 13.6461 8.57803 13.5913 8.55563C13.5365 8.53324 13.4867 8.50031 13.4449 8.45876C13.4028 8.41746 13.3695 8.36831 13.3468 8.31418C13.3241 8.26004 13.3125 8.202 13.3128 8.14342V1.56511H3.5723V23ZM13.9162 7.99342H20.4333L13.9176 1.55953L13.9162 7.99342Z" fill="#31363D"/>
<path d="M7.79812 12.762C8.99572 12.762 9.50796 13.3634 9.50796 14.1699V14.2654C9.50796 15.065 8.95403 15.7487 7.79812 15.7487H6.80117V17.1475C6.80117 17.407 6.59345 17.5235 6.35817 17.5235C6.12289 17.5235 5.91516 17.407 5.91516 17.1475V13.3292C5.91516 12.8987 6.06 12.762 6.50301 12.762H7.79812ZM6.80117 15.0105H7.68012C8.26161 15.0105 8.61489 14.8257 8.61489 14.2515V14.1768C8.61489 13.6368 8.26161 13.4931 7.75643 13.4931H6.80117V15.0105Z" fill="#BD5433"/>
<path d="M12.2007 12.762C13.3983 12.762 13.9106 13.3634 13.9106 14.1699V14.2654C13.9106 15.065 13.3566 15.7487 12.2007 15.7487H11.2038V17.1475C11.2038 17.407 10.996 17.5235 10.7608 17.5235C10.5255 17.5235 10.3177 17.407 10.3177 17.1475V13.3292C10.3177 12.8987 10.4626 12.762 10.9056 12.762H12.2007ZM11.2038 15.0105H12.0827C12.6642 15.0105 13.0175 14.8257 13.0175 14.2515V14.1768C13.0175 13.6368 12.6642 13.4931 12.159 13.4931H11.2038V15.0105Z" fill="#BD5433"/>
<path d="M17.7725 12.762C17.9845 12.762 18.0841 12.9329 18.0841 13.131C18.0841 13.3292 17.9873 13.5001 17.7725 13.5001H16.582V17.1475C16.582 17.407 16.3742 17.5235 16.139 17.5235C15.9037 17.5235 15.696 17.407 15.696 17.1475V13.5001H14.4984C14.2864 13.5001 14.1868 13.3292 14.1868 13.131C14.1868 12.9329 14.2836 12.762 14.4984 12.762H17.7725Z" fill="#BD5433"/>
</svg>
