<svg width="24" height="24" viewBox="0 0 24 24" fill="none" xmlns="http://www.w3.org/2000/svg">
<path d="M7.74982 12.8806C8.91501 12.8806 9.41317 13.466 9.41317 14.2508V14.3436C9.41317 15.1222 8.87473 15.7871 7.74982 15.7871H6.77966V17.2829C6.77966 17.5362 6.57757 17.6492 6.34863 17.6492C6.11969 17.6492 5.9176 17.5362 5.9176 17.2829V13.4325C5.9176 13.0139 6.05893 12.8806 6.48995 12.8806H7.74982ZM6.77966 15.0685H7.63535C8.20063 15.0685 8.54475 14.8892 8.54475 14.3304V14.2571C8.54475 13.7318 8.20064 13.5922 7.70955 13.5922H6.77966V15.0685Z" fill="#E92121"/>
<path d="M11.8855 12.8806C13.2796 12.8806 14.0053 13.5127 14.0053 15.1222V15.3678C14.0053 16.9773 13.2775 17.6094 11.8855 17.6094H10.774C10.343 17.6094 10.2017 17.4762 10.2017 17.0569V13.4325C10.2017 13.0139 10.343 12.8806 10.774 12.8806H11.8855ZM11.0567 16.8908H11.771C12.7546 16.8908 13.1383 16.4987 13.1383 15.3015V15.1899C13.1383 13.9927 12.7546 13.6006 11.771 13.6006H11.0567V16.8908Z" fill="#E92121"/>
<path d="M17.7793 12.8806C17.9913 12.8806 18.0824 13.0467 18.0824 13.2399C18.0824 13.4332 17.9878 13.5992 17.7793 13.5992H15.7789V14.9359H17.638C17.85 14.9359 17.9411 15.102 17.9411 15.2945C17.9411 15.4871 17.8464 15.6538 17.638 15.6538H15.7789V17.2829C15.7789 17.5362 15.5768 17.6492 15.3479 17.6492C15.119 17.6492 14.9169 17.5362 14.9169 17.2829V13.4325C14.9169 13.0139 15.0582 12.8806 15.4892 12.8806H17.7793Z" fill="#E92121"/>
<path d="M3.17594 23.5651C3.12928 23.5651 3.08453 23.5468 3.05153 23.5142C3.01854 23.4817 3 23.4375 3 23.3914L3 1.17372C2.99991 1.15088 3.00439 1.12825 3.0132 1.10713C3.02201 1.08601 3.03497 1.06683 3.05133 1.05068C3.06768 1.03453 3.08711 1.02174 3.1085 1.01304C3.12989 1.00434 3.15281 0.99991 3.17594 1H14.1127C14.1358 0.999885 14.1587 1.0044 14.1799 1.01328C14.2012 1.02215 14.2204 1.0352 14.2364 1.05163L20.9491 7.6097C20.9823 7.64309 21.001 7.68785 21.0014 7.73459V23.3914C21.0014 23.4375 20.9829 23.4817 20.9499 23.5142C20.9169 23.5468 20.8721 23.5651 20.8255 23.5651H3.17594ZM3.57235 23H20.4277V8.58923H13.7665C13.7072 8.58932 13.6484 8.57785 13.5936 8.55548C13.5388 8.53311 13.489 8.50027 13.447 8.45886C13.4051 8.41744 13.3718 8.36826 13.3492 8.31413C13.3265 8.26 13.3149 8.20199 13.315 8.14342V1.56511H3.57235V23ZM13.9163 7.99342H20.4326L13.9163 1.55953V7.99342Z" fill="#31363D"/>
</svg>
