<svg width="24" height="24" viewBox="0 0 24 24" fill="none" xmlns="http://www.w3.org/2000/svg">
<path d="M8.08226 13.4264L7.0613 14.9106L8.11028 16.4455C8.2344 16.6256 8.19503 16.8178 8.00885 16.9306C7.84537 17.0267 7.6305 17.0094 7.51773 16.8345L6.58752 15.4017L5.6533 16.8232C5.60373 16.9005 5.52601 16.9555 5.43658 16.9766C5.34716 16.9976 5.25305 16.9831 5.17419 16.9359C5.00469 16.8345 4.94264 16.643 5.06141 16.4735L6.16111 14.8999L5.16017 13.4498C5.03606 13.2696 5.1148 13.0607 5.30698 12.9593C5.38999 12.9093 5.48948 12.8942 5.58357 12.9175C5.67767 12.9408 5.75867 13.0005 5.80878 13.0834L6.64357 14.4148L7.4957 13.0801C7.51793 13.0409 7.54785 13.0067 7.58365 12.9794C7.61946 12.9521 7.66041 12.9324 7.70405 12.9214C7.74769 12.9103 7.79312 12.9082 7.83758 12.9152C7.88205 12.9222 7.92465 12.9381 7.96281 12.962C8.14565 13.0601 8.20637 13.2383 8.08226 13.4264Z" fill="#13A71A"/>
<path d="M9.66708 13.2182V16.3433H11.3026C11.4781 16.3433 11.5569 16.4841 11.5569 16.6476C11.5569 16.8111 11.4781 16.9526 11.3026 16.9526H9.42485C9.06385 16.9526 8.94507 16.8398 8.94507 16.4855V13.2182C8.94507 13.0033 9.11456 12.9079 9.30608 12.9079C9.49759 12.9079 9.66708 13.0033 9.66708 13.2182Z" fill="#13A71A"/>
<path d="M14.4676 13.0881C14.5057 13.1071 14.5393 13.1338 14.5664 13.1664C14.5936 13.1991 14.6136 13.2371 14.6253 13.278C14.637 13.3188 14.64 13.3617 14.6343 13.4038C14.6285 13.4459 14.614 13.4863 14.5918 13.5225C14.5759 13.5591 14.5526 13.5919 14.5234 13.619C14.4943 13.6462 14.4598 13.667 14.4223 13.6802C14.3847 13.6934 14.3448 13.6988 14.3051 13.6958C14.2653 13.6929 14.2266 13.6819 14.1914 13.6633C13.9603 13.5621 13.7095 13.514 13.4574 13.5225C12.9662 13.5225 12.7066 13.7761 12.7066 14.013V14.047C12.7066 14.3293 12.8648 14.4588 13.5528 14.6003C14.495 14.7918 14.8673 15.1695 14.8673 15.7734V15.8242C14.8673 16.5916 14.3542 17.0147 13.3726 17.0147C12.9102 17.0147 12.4384 16.8845 12.1368 16.6984C11.9566 16.5856 11.9453 16.3881 12.0467 16.2312C12.1481 16.0744 12.3136 16.031 12.4811 16.1238C12.7633 16.2837 13.0823 16.3674 13.4066 16.3667C13.9251 16.3667 14.1453 16.1578 14.1453 15.8815V15.8408C14.1453 15.5252 13.9138 15.367 13.3726 15.2603C12.425 15.0741 11.9906 14.8145 11.9906 14.0644V14.0244C11.9906 13.3931 12.4984 12.8792 13.446 12.8792C13.8524 12.8792 14.1914 12.9473 14.4676 13.0881Z" fill="#13A71A"/>
<path d="M18.534 13.4264L17.5131 14.9106L18.5627 16.4454C18.6869 16.6256 18.6475 16.8178 18.4613 16.9306C18.2972 17.0267 18.083 17.0093 17.9702 16.8345L17.036 15.4017L16.1018 16.8232C16.0521 16.9006 15.9742 16.9556 15.8847 16.9766C15.7951 16.9977 15.7009 16.9831 15.622 16.9359C15.4531 16.8345 15.3911 16.643 15.5092 16.4735L16.6096 14.8999L15.6086 13.4498C15.4845 13.2696 15.5632 13.0607 15.7548 12.9593C15.8379 12.9092 15.9375 12.8942 16.0317 12.9174C16.1259 12.9407 16.207 13.0004 16.2572 13.0834L17.092 14.4147L17.9435 13.0801C17.9657 13.0409 17.9956 13.0067 18.0314 12.9794C18.0672 12.9521 18.1082 12.9324 18.1518 12.9213C18.1955 12.9103 18.2409 12.9082 18.2854 12.9152C18.3298 12.9222 18.3724 12.9381 18.4106 12.962C18.5968 13.0601 18.6588 13.2382 18.534 13.4264Z" fill="#13A71A"/>
<path d="M3.17593 23.5405C3.12927 23.5405 3.08452 23.523 3.05153 23.4919C3.01854 23.4607 3 23.4184 3 23.3744L3 1.16617C2.99991 1.14432 3.0044 1.12267 3.0132 1.10247C3.02201 1.08227 3.03497 1.06392 3.05132 1.04847C3.06768 1.03303 3.08711 1.02079 3.1085 1.01247C3.12988 1.00415 3.1528 0.999914 3.17593 1H14.1119C14.1349 0.99989 14.1578 1.00421 14.1791 1.0127C14.2003 1.02119 14.2195 1.03367 14.2355 1.04938L20.9477 7.32232C20.9808 7.35426 20.9996 7.39707 21 7.44178V23.3744C21 23.4184 20.9815 23.4607 20.9485 23.4919C20.9155 23.523 20.8707 23.5405 20.8241 23.5405H3.17593ZM3.5723 23H20.4263V8.25926H13.7657C13.7063 8.25935 13.6476 8.24838 13.5928 8.22698C13.538 8.20558 13.4881 8.17417 13.4462 8.13456C13.4043 8.09494 13.371 8.0479 13.3484 7.99612C13.3257 7.94435 13.3141 7.88886 13.3142 7.83283V1.54054H3.5723V23ZM13.9155 7.68936H20.4312L13.9155 1.5352V7.68936Z" fill="#31363D"/>
</svg>
