<svg xmlns="http://www.w3.org/2000/svg" width="17.862" height="21.984" viewBox="0 0 17.862 21.984">
    <g id="그룹_35741" data-name="그룹 35741" transform="translate(-1015.551 -600)">
        <g id="files" transform="translate(1015.551 600)">
            <g id="그룹_35740" data-name="그룹 35740" transform="translate(0 0)">
                <g id="그룹_35739" data-name="그룹 35739">
                    <path id="패스_57708" data-name="패스 57708" d="M65.662,4.321,61.541.2a.687.687,0,0,0-.488-.2H50.061A2.061,2.061,0,0,0,48,2.061V19.922a2.061,2.061,0,0,0,2.061,2.061H63.8a2.061,2.061,0,0,0,2.061-2.061V4.809A.687.687,0,0,0,65.662,4.321Zm-1.175,15.6a.687.687,0,0,1-.687.687H50.061a.687.687,0,0,1-.687-.687V2.061a.687.687,0,0,1,.687-.687h10.3V4.122A1.374,1.374,0,0,0,61.74,5.5h2.748Z" transform="translate(-48 0)" fill="#fff"/>
                    <rect id="사각형_72218" data-name="사각형 72218" width="1" height="2" transform="translate(13.449 16)" fill="#fff"/>
                    <rect id="사각형_72219" data-name="사각형 72219" width="12" height="1" transform="translate(2.449 10)" fill="#fff"/>
                    <rect id="사각형_72220" data-name="사각형 72220" width="12" height="1" transform="translate(2.449 13)" fill="#fff"/>
                    <rect id="사각형_72221" data-name="사각형 72221" width="10" height="2" transform="translate(2.449 16)" fill="#fff"/>
                </g>
            </g>
        </g>
    </g>
</svg>
