<svg xmlns="http://www.w3.org/2000/svg" width="17.053" height="17.05" viewBox="0 0 17.053 17.05">
    <g id="cog" transform="translate(0.026 0.027)">
        <path id="Path" d="M6.935,1.193a1.386,1.386,0,0,0,2.06,0l.67-.735a1.388,1.388,0,0,1,2.415,1l-.05.992A1.387,1.387,0,0,0,13.483,3.9l.992-.05a1.388,1.388,0,0,1,1,2.415l-.738.666a1.388,1.388,0,0,0,0,2.061l.738.666a1.388,1.388,0,0,1-1,2.415l-.992-.05a1.387,1.387,0,0,0-1.456,1.456l.05.992a1.388,1.388,0,0,1-2.41,1L9,14.737a1.388,1.388,0,0,0-2.06,0l-.669.737a1.388,1.388,0,0,1-2.413-1l.051-.992a1.387,1.387,0,0,0-1.456-1.456l-.992.05a1.387,1.387,0,0,1-1-2.413L1.194,9a1.388,1.388,0,0,0,0-2.061L.456,6.27a1.387,1.387,0,0,1,1-2.413l.992.05A1.387,1.387,0,0,0,3.9,2.449l-.047-.992a1.388,1.388,0,0,1,2.413-1Z" transform="translate(0.535 0.534)" fill="none" stroke="#fff" stroke-linecap="round" stroke-linejoin="round" stroke-miterlimit="10" stroke-width="1.063"/>
        <circle id="Oval" cx="3.188" cy="3.188" r="3.188" transform="translate(5.313 5.313)" fill="none" stroke="#fff" stroke-linecap="round" stroke-linejoin="round" stroke-miterlimit="10" stroke-width="1.063"/>
    </g>
</svg>
