<?xml version="1.0" encoding="UTF-8"?><svg id="_레이어_1" xmlns="http://www.w3.org/2000/svg" viewBox="0 0 25.45 11.31"><defs><style>.cls-1{fill:#fff;}.cls-2{fill:#e94638;}</style></defs><rect class="cls-2" x="0" y="0" width="25.45" height="11.31" rx="2.83" ry="2.83"/><g><path class="cls-1" d="M4.73,4.42c0-.53,0-.97-.04-1.36h1.02l.06,.69h.03c.2-.36,.7-.79,1.46-.79,.8,0,1.63,.52,1.63,1.96v2.72h-1.16v-2.58c0-.66-.24-1.16-.87-1.16-.46,0-.78,.33-.9,.68-.04,.1-.05,.24-.05,.38v2.69h-1.17v-3.21Z"/><path class="cls-1" d="M10.92,5.67c.03,.83,.68,1.18,1.41,1.18,.54,0,.92-.08,1.27-.21l.17,.8c-.4,.16-.94,.28-1.6,.28-1.48,0-2.36-.91-2.36-2.31,0-1.27,.77-2.46,2.24-2.46s1.97,1.22,1.97,2.23c0,.22-.02,.39-.04,.49h-3.06Zm2.01-.81c0-.42-.18-1.12-.95-1.12-.71,0-1.02,.65-1.06,1.12h2.01Z"/><path class="cls-1" d="M15.62,3.05l.48,2.08c.1,.49,.21,.99,.29,1.48h.02c.09-.5,.24-1.01,.38-1.48l.59-2.09h.94l.57,2.03c.14,.54,.26,1.03,.37,1.53h.02c.08-.5,.18-1,.3-1.53l.51-2.03h1.14l-1.44,4.58h-1.07l-.54-1.86c-.14-.48-.24-.91-.35-1.47h-.02c-.09,.56-.22,1.01-.35,1.47l-.58,1.86h-1.08l-1.35-4.58h1.18Z"/></g></svg>