<svg width="24" height="24" viewBox="0 0 24 24" fill="none" xmlns="http://www.w3.org/2000/svg">
<path fill-rule="evenodd" clip-rule="evenodd" d="M12 3.33348C10.8047 3.33348 9.62377 3.41762 8.52589 3.58003C7.42673 3.74263 6.44172 3.97912 5.62465 4.27093C4.80129 4.56498 4.19693 4.898 3.81259 5.22937C3.42736 5.56153 3.3335 5.82637 3.3335 6C3.3335 6.17623 3.42997 6.44072 3.81259 6.77062C4.19297 7.09859 4.79366 7.4323 5.62465 7.72907C7.28355 8.32153 9.57728 8.66652 12 8.66652C13.1953 8.66652 14.3762 8.58238 15.4741 8.41997C16.5733 8.25737 17.5583 8.02088 18.3754 7.72907C19.1987 7.43502 19.8031 7.102 20.1874 6.77062C20.5726 6.43847 20.6665 6.17363 20.6665 6C20.6665 5.82637 20.5726 5.56153 20.1874 5.22937C19.8031 4.898 19.1987 4.56498 18.3754 4.27093C17.5583 3.97912 16.5733 3.74263 15.4741 3.58003C14.3762 3.41762 13.1953 3.33348 12 3.33348ZM8.33075 2.26091C9.49759 2.08829 10.744 2 12 2C13.256 2 14.5024 2.08829 15.6693 2.26091C16.8348 2.43333 17.9076 2.6879 18.8239 3.01513C19.7338 3.34012 20.5044 3.74201 21.0582 4.21946C21.611 4.69613 22 5.29817 22 6C22 6.70183 21.611 7.30387 21.0582 7.78054C20.5044 8.25798 19.7338 8.65988 18.8239 8.98487C17.9076 9.3121 16.8348 9.56667 15.6693 9.73909C14.5024 9.91171 13.256 10 12 10C9.47206 10 7.01789 9.64262 5.17614 8.98487C4.25681 8.65654 3.49067 8.25377 2.94181 7.78054C2.39519 7.30924 2 6.7078 2 6C2 5.29817 2.38896 4.69613 2.94181 4.21946C3.49556 3.74201 4.26616 3.34012 5.17614 3.01513C6.09241 2.6879 7.16519 2.43333 8.33075 2.26091Z" fill="white"/>
<path fill-rule="evenodd" clip-rule="evenodd" d="M2.66675 17C3.03499 17 3.3335 17.3198 3.3335 17.7144C3.3335 17.9646 3.51431 18.393 4.26793 18.8925C4.99604 19.375 6.09103 19.8033 7.46802 20.1075C8.83724 20.41 10.4011 20.5713 12 20.5713C13.5989 20.5713 15.1628 20.41 16.532 20.1075C17.909 19.8033 19.004 19.375 19.7321 18.8925C20.4857 18.393 20.6665 17.9646 20.6665 17.7144C20.6665 17.3198 20.965 17 21.3333 17C21.7015 17 22 17.3198 22 17.7144C22 18.7179 21.3183 19.5212 20.4336 20.1075C19.5234 20.7108 18.2619 21.1841 16.8013 21.5068C15.3328 21.8312 13.6778 22 12 22C10.3222 22 8.66718 21.8312 7.19873 21.5068C5.73805 21.1841 4.47662 20.7108 3.56641 20.1075C2.6817 19.5212 2 18.7179 2 17.7144C2 17.3198 2.29851 17 2.66675 17Z" fill="white"/>
<path fill-rule="evenodd" clip-rule="evenodd" d="M2.66675 13C3.03498 13 3.3335 13.3198 3.3335 13.7144C3.3335 13.9646 3.51431 14.393 4.26793 14.8925C4.99604 15.375 6.09103 15.8033 7.46802 16.1075C8.83724 16.41 10.4011 16.5713 12 16.5713C13.5989 16.5713 15.1628 16.41 16.532 16.1075C17.909 15.8033 19.004 15.375 19.7321 14.8925C20.4857 14.393 20.6665 13.9646 20.6665 13.7144C20.6665 13.3198 20.965 13 21.3332 13C21.7015 13 22 13.3198 22 13.7144C22 14.7179 21.3183 15.5212 20.4336 16.1075C19.5234 16.7108 18.2619 17.1841 16.8013 17.5068C15.3328 17.8312 13.6778 18 12 18C10.3222 18 8.66718 17.8312 7.19873 17.5068C5.73805 17.1841 4.47662 16.7108 3.56641 16.1075C2.6817 15.5212 2 14.7179 2 13.7144C2 13.3198 2.29851 13 2.66675 13Z" fill="white"/>
<path fill-rule="evenodd" clip-rule="evenodd" d="M2.66675 9C3.03499 9 3.3335 9.31983 3.3335 9.71435C3.3335 9.96461 3.51431 10.393 4.26793 10.8925C4.99604 11.375 6.09103 11.8033 7.46802 12.1075C8.83724 12.41 10.4011 12.5713 12 12.5713C13.5989 12.5713 15.1628 12.41 16.532 12.1075C17.909 11.8033 19.004 11.375 19.7321 10.8925C20.4857 10.393 20.6665 9.96461 20.6665 9.71435C20.6665 9.31983 20.965 9 21.3332 9C21.7015 9 22 9.31983 22 9.71435C22 10.7179 21.3183 11.5212 20.4336 12.1075C19.5234 12.7108 18.262 13.1841 16.8013 13.5068C15.3328 13.8312 13.6778 14 12 14C10.3222 14 8.66718 13.8312 7.19873 13.5068C5.73805 13.1841 4.47662 12.7108 3.56641 12.1075C2.6817 11.5212 2 10.7179 2 9.71435C2 9.31983 2.29851 9 2.66675 9Z" fill="white"/>
<path fill-rule="evenodd" clip-rule="evenodd" d="M2.5 5C2.77614 5 3 5.31344 3 5.70008V18.2999C3 18.6866 2.77614 19 2.5 19C2.22386 19 2 18.6866 2 18.2999V5.70008C2 5.31344 2.22386 5 2.5 5Z" fill="white"/>
<path fill-rule="evenodd" clip-rule="evenodd" d="M21.5 5C21.7761 5 22 5.31344 22 5.70008V18.2999C22 18.6866 21.7761 19 21.5 19C21.2239 19 21 18.6866 21 18.2999V5.70008C21 5.31344 21.2239 5 21.5 5Z" fill="white"/>
</svg>
