<svg id="icon_left_end_arrow" xmlns="http://www.w3.org/2000/svg" width="26" height="26">
    <defs>
        <style>
            .cls-2{fill:#7a8193}
        </style>
    </defs>
    <rect id="사각형_181" data-name="사각형 181" width="26" height="26" rx="13" transform="rotate(90 13 13)" style="fill:#f5f5f5"/>
    <g id="그룹_35674" data-name="그룹 35674" transform="translate(8.818 9.62)">
        <g id="arrow-down-sign-to-navigate" transform="rotate(90 2.004 2.004)">
            <path id="패스_84" data-name="패스 84" class="cls-2" d="M3.607 4.008a.511.511 0 0 1-.357-.144L.148.841a.484.484 0 0 1 0-.7.515.515 0 0 1 .715 0L3.607 2.82 6.352.144a.515.515 0 0 1 .714 0 .483.483 0 0 1 0 .7l-3.1 3.024a.511.511 0 0 1-.359.14z"/>
        </g>
        <g id="arrow-down-sign-to-navigate-2" data-name="arrow-down-sign-to-navigate" transform="rotate(90 4.008 4.009)">
            <path id="패스_84-2" data-name="패스 84" class="cls-2" d="M3.607 4.008a.511.511 0 0 1-.357-.144L.148.841a.484.484 0 0 1 0-.7.515.515 0 0 1 .715 0L3.607 2.82 6.352.144a.515.515 0 0 1 .714 0 .483.483 0 0 1 0 .7l-3.1 3.024a.511.511 0 0 1-.359.14z"/>
        </g>
    </g>
</svg>
