<svg xmlns="http://www.w3.org/2000/svg" width="16.537" height="19" viewBox="0 0 16.537 19">
    <g id="그룹_35710" data-name="그룹 35710" transform="translate(-872.192 -89.98)">
        <path id="패스_57690" data-name="패스 57690" d="M873.657,102.272v4.173a2.535,2.535,0,1,0,5.071,0V92.9h.247a1.487,1.487,0,0,0,0-2.925h-5.566a1.487,1.487,0,0,0,0,2.925h.247v9.366Zm4.248,0h0v4.173a1.712,1.712,0,1,1-3.424,0v-4.172h0V92.9H877.9Zm-4.495-10.19c-.186,0-.393-.263-.393-.639s.207-.638.393-.638h5.566c.186,0,.394.263.394.638s-.208.639-.394.639Z" fill="#7a8193"/>
        <path id="패스_57691" data-name="패스 57691" d="M887.177,106.445a2.535,2.535,0,0,0,5.071,0V92.9h.248a1.487,1.487,0,0,0,0-2.925h-5.566a1.487,1.487,0,0,0,0,2.925h.247v13.54Zm4.247-8.129v8.129a1.712,1.712,0,1,1-3.424,0V92.9h3.424Zm-4.494-6.235c-.186,0-.394-.263-.394-.639s.208-.638.394-.638h5.566c.186,0,.394.263.394.638s-.208.639-.394.639Z" transform="translate(-4.983)" fill="#7a8193"/>
        <path id="패스_57692" data-name="패스 57692" d="M879.771,115.289a.3.3,0,0,0-.273-.319h0a.3.3,0,0,0-.318.273,1.222,1.222,0,0,1-.039.227,1.044,1.044,0,0,1-.839.746,1.336,1.336,0,0,1-.265.037.3.3,0,0,0,.006.593A1.692,1.692,0,0,0,879.771,115.289Z" transform="translate(-2.046 -9.211)" fill="#7a8193"/>
        <path id="패스_57693" data-name="패스 57693" d="M891.562,116.846a1.691,1.691,0,0,0,1.728-1.556.3.3,0,0,0-.272-.319h0a.3.3,0,0,0-.318.273,1.226,1.226,0,0,1-.039.227,1.045,1.045,0,0,1-.84.746,1.323,1.323,0,0,1-.265.037.3.3,0,0,0,.006.593Z" transform="translate(-7.029 -9.211)" fill="#7a8193"/>
        <g id="그룹_35598" data-name="그룹 35598" transform="translate(873.979 101.884)">
            <g id="그룹_35597" data-name="그룹 35597" transform="translate(0 0)">
                <path id="패스_57694" data-name="패스 57694" d="M875.4,109.606h3.679a.387.387,0,0,0,0-.773H875.4a.387.387,0,0,0,0,.773Z" transform="translate(-875.023 -108.833)" fill="#7a8193"/>
            </g>
        </g>
        <g id="그룹_35600" data-name="그룹 35600" transform="translate(882.345 97.929)">
            <g id="그룹_35599" data-name="그룹 35599">
                <path id="패스_57695" data-name="패스 57695" d="M888.644,103.342h4.022a.386.386,0,0,0,0-.772h-4.022a.386.386,0,0,0,0,.772Z" transform="translate(-888.271 -102.57)" fill="#7a8193"/>
            </g>
        </g>
    </g>
</svg>
