<svg width="24" height="24" viewBox="0 0 24 24" fill="none" xmlns="http://www.w3.org/2000/svg">
<path d="M21.1064 16.3392L19.0594 12.5599V8.625C19.0594 4.69627 15.8631 1.5 11.9344 1.5C8.00568 1.5 4.80942 4.69627 4.80942 8.625V12.5599L2.76229 16.3391C2.66946 16.5105 2.62273 16.703 2.6267 16.8979C2.63066 17.0927 2.68518 17.2832 2.78491 17.4507C2.88464 17.6181 3.02616 17.7568 3.1956 17.8531C3.36505 17.9494 3.5566 18 3.75149 18H7.82657C7.81521 18.1247 7.80946 18.2498 7.80937 18.375C7.80937 19.469 8.24397 20.5182 9.01755 21.2918C9.79114 22.0654 10.8404 22.5 11.9344 22.5C13.0284 22.5 14.0776 22.0654 14.8512 21.2918C15.6248 20.5182 16.0594 19.469 16.0594 18.375C16.0594 18.2484 16.0533 18.1236 16.0422 18H20.1172C20.3121 18 20.5036 17.9493 20.6731 17.853C20.8425 17.7567 20.984 17.6181 21.0837 17.4506C21.1834 17.2832 21.2379 17.0927 21.2419 16.8979C21.2458 16.7031 21.1991 16.5105 21.1063 16.3392H21.1064ZM14.5594 18.375C14.5597 18.7357 14.4856 19.0927 14.3418 19.4235C14.1981 19.7543 13.9876 20.052 13.7237 20.2979C13.4597 20.5438 13.1479 20.7326 12.8077 20.8526C12.4675 20.9726 12.1062 21.0212 11.7464 20.9954C11.3866 20.9696 11.036 20.8698 10.7164 20.7025C10.3969 20.5351 10.1152 20.3036 9.88912 20.0226C9.663 19.7415 9.49724 19.4168 9.40219 19.0688C9.30713 18.7208 9.28482 18.357 9.33665 18H14.5321C14.5502 18.1242 14.5593 18.2495 14.5594 18.375ZM4.38107 16.5L6.30942 12.9401V8.625C6.30942 7.13316 6.90205 5.70242 7.95694 4.64752C9.01183 3.59263 10.4426 3 11.9344 3C13.4263 3 14.857 3.59263 15.9119 4.64752C16.9668 5.70242 17.5594 7.13316 17.5594 8.625V12.9401L19.4877 16.5H4.38107Z" fill="white"/>
</svg>
