<svg width="24" height="24" viewBox="0 0 24 24" fill="none" xmlns="http://www.w3.org/2000/svg">
<path fill-rule="evenodd" clip-rule="evenodd" d="M4.125 10.7946C4.125 7.1111 7.1111 4.125 10.7946 4.125C14.4782 4.125 17.4643 7.1111 17.4643 10.7946C17.4643 14.4782 14.4782 17.4643 10.7946 17.4643C7.1111 17.4643 4.125 14.4782 4.125 10.7946ZM10.7946 3C6.48978 3 3 6.48978 3 10.7946C3 15.0995 6.48978 18.5893 10.7946 18.5893C12.7446 18.5893 14.5273 17.8732 15.8943 16.6898L20.0397 20.8352C20.2594 21.0549 20.6156 21.0549 20.8352 20.8352C21.0549 20.6156 21.0549 20.2594 20.8352 20.0398L16.6897 15.8943C17.8732 14.5274 18.5893 12.7446 18.5893 10.7946C18.5893 6.48978 15.0995 3 10.7946 3Z" fill="white"/>
</svg>
