<svg xmlns="http://www.w3.org/2000/svg" width="19.887" height="16.103" viewBox="0 0 19.887 16.103">
    <g id="그룹_35711" data-name="그룹 35711" transform="translate(-867.694 -224.252)">
        <path id="패스_57696" data-name="패스 57696" d="M878.716,224.252H868.01a.337.337,0,0,0-.316.346v13.057a.337.337,0,0,0,.316.346h7.908v1.989c0,.24.276.46.475.3l.669-.545.492-.4c.042-.034.1-.072.156-.108a.594.594,0,0,1,.085.067,6.094,6.094,0,0,0,.474.389l.729.6a.234.234,0,0,0,.355-.032.324.324,0,0,0,.12-.266V238h7.794a.279.279,0,0,0,.213-.092l.011-.012.005-.006a.335.335,0,0,0,.086-.236V224.6a.337.337,0,0,0-.315-.346h-8.55Zm-2.8,13.057h-7.592V224.943h7.592Zm2.923,1.992-.982-.8a.28.28,0,0,0-.318,0l-.992.808V224.943h2.292Zm.631-14.358h7.478v12.366h-7.478Z" fill="#7a8193"/>
        <path id="패스_57697" data-name="패스 57697" d="M871.194,230.864h4.46c.271,0,.271-.461,0-.461h-4.46C870.923,230.4,870.922,230.864,871.194,230.864Z" transform="translate(-1.433 -2.674)" fill="#7a8193"/>
        <path id="패스_57698" data-name="패스 57698" d="M871.194,234.292h4.46c.271,0,.271-.461,0-.461h-4.46C870.923,233.831,870.922,234.292,871.194,234.292Z" transform="translate(-1.433 -4.165)" fill="#7a8193"/>
        <path id="패스_57699" data-name="패스 57699" d="M871.194,237.719h4.46c.271,0,.271-.461,0-.461h-4.46C870.923,237.258,870.922,237.719,871.194,237.719Z" transform="translate(-1.433 -5.655)" fill="#7a8193"/>
        <path id="패스_57700" data-name="패스 57700" d="M871.194,241.147h4.46c.271,0,.271-.461,0-.461h-4.46C870.923,240.686,870.922,241.147,871.194,241.147Z" transform="translate(-1.433 -7.146)" fill="#7a8193"/>
        <path id="패스_57701" data-name="패스 57701" d="M895.68,230.4H891.22c-.271,0-.271.461,0,.461h4.461C895.951,230.864,895.951,230.4,895.68,230.4Z" transform="translate(-10.141 -2.674)" fill="#7a8193"/>
        <path id="패스_57702" data-name="패스 57702" d="M895.68,233.831H891.22c-.271,0-.271.461,0,.461h4.461C895.951,234.292,895.951,233.831,895.68,233.831Z" transform="translate(-10.141 -4.165)" fill="#7a8193"/>
        <path id="패스_57703" data-name="패스 57703" d="M895.68,237.258H891.22c-.271,0-.271.461,0,.461h4.461C895.951,237.719,895.951,237.258,895.68,237.258Z" transform="translate(-10.141 -5.655)" fill="#7a8193"/>
        <path id="패스_57704" data-name="패스 57704" d="M895.68,240.686H891.22c-.271,0-.271.461,0,.461h4.461C895.951,241.147,895.951,240.686,895.68,240.686Z" transform="translate(-10.141 -7.146)" fill="#7a8193"/>
    </g>
</svg>
