<svg id="image" xmlns="http://www.w3.org/2000/svg" width="21.657" height="21.657" viewBox="0 0 21.657 21.657">
    <g id="그룹_35736" data-name="그룹 35736">
        <g id="그룹_35735" data-name="그룹 35735">
            <path id="패스_57706" data-name="패스 57706" d="M18.89,0H2.767A2.771,2.771,0,0,0,0,2.767V18.89a2.771,2.771,0,0,0,2.767,2.767H18.89a2.771,2.771,0,0,0,2.767-2.767V2.767A2.771,2.771,0,0,0,18.89,0Zm1.492,18.89a1.493,1.493,0,0,1-1.492,1.492H2.767A1.493,1.493,0,0,1,1.276,18.89V16.563l4.2-3.572a.412.412,0,0,1,.531,0l2.63,2.184a.638.638,0,0,0,.859-.04l6.249-6.258a.413.413,0,0,1,.613.031l4.026,4.957V18.89Zm0-7.052L17.346,8.1a1.688,1.688,0,0,0-2.506-.129L9,13.818,6.82,12.006a1.686,1.686,0,0,0-2.173.013L1.276,14.888V2.767A1.493,1.493,0,0,1,2.767,1.276H18.89a1.493,1.493,0,0,1,1.492,1.492Z" fill="#fff"/>
        </g>
    </g>
    <g id="그룹_35738" data-name="그룹 35738" transform="translate(3.742 2.665)">
        <g id="그룹_35737" data-name="그룹 35737">
            <path id="패스_57707" data-name="패스 57707" d="M91.537,62.995a3.076,3.076,0,1,0,3.076,3.076A3.079,3.079,0,0,0,91.537,62.995Zm0,4.876a1.8,1.8,0,1,1,1.8-1.8A1.8,1.8,0,0,1,91.537,67.871Z" transform="translate(-88.461 -62.995)" fill="#fff"/>
        </g>
    </g>
</svg>
