<svg width="24" height="24" viewBox="0 0 24 24" fill="none" xmlns="http://www.w3.org/2000/svg">
<path d="M1.81637 11.8359L10.8726 2.78437L11.4796 2.17734C11.618 2.03994 11.805 1.96283 12 1.96283C12.1949 1.96283 12.382 2.03994 12.5203 2.17734L22.1835 11.8359C22.3253 11.9771 22.4373 12.1452 22.513 12.3304C22.5886 12.5156 22.6264 12.714 22.6242 12.914C22.6148 13.739 21.9281 14.3976 21.1031 14.3976H20.107V22.0312H3.89293V14.3976H2.87574C2.47496 14.3976 2.09762 14.2406 1.81402 13.957C1.67439 13.8178 1.56374 13.6523 1.48851 13.4701C1.41328 13.2878 1.37495 13.0925 1.37574 12.8953C1.37574 12.4969 1.53277 12.1195 1.81637 11.8359ZM10.6875 20.3437H13.3125V15.5625H10.6875V20.3437ZM5.58043 12.7101V20.3437H9.18746V15C9.18746 14.482 9.60699 14.0625 10.125 14.0625H13.875C14.3929 14.0625 14.8125 14.482 14.8125 15V20.3437H18.4195V12.7101H20.6695L11.9976 4.04531L11.4562 4.58671L3.32809 12.7101H5.58043Z" fill="white"/>
</svg>
