<svg xmlns="http://www.w3.org/2000/svg" xmlns:xlink="http://www.w3.org/1999/xlink" width="147" height="43">
    <defs>
        <linearGradient id="linear-gradient" x1="1.021" y1=".094" x2=".021" y2="1.034" gradientUnits="objectBoundingBox">
            <stop offset="0" stop-color="#fff"/>
            <stop offset=".853" stop-color="#fff" stop-opacity="0"/>
        </linearGradient>
        <linearGradient id="linear-gradient-2" x1=".228" y1=".171" x2="1.102" y2=".878" xlink:href="#linear-gradient"/>
        <linearGradient id="linear-gradient-3" x1=".447" y1=".878" x2=".526" y2=".133" xlink:href="#linear-gradient"/>
        <style>
            .cls-1{fill:url(#linear-gradient)}.cls-2{fill:url(#linear-gradient-2)}.cls-3{fill:url(#linear-gradient-3)}
        </style>
    </defs>
    <g id="구성_요소_102_9" data-name="구성 요소 102 – 9">
        <g id="그룹_451" data-name="그룹 451" transform="translate(0 3.347)">
            <g id="그룹_449" data-name="그룹 449">
                <path id="패스_5853" data-name="패스 5853" class="cls-1" d="M6571.527-4103.956c-4.938 14.355-7.129 15.771-9.363 16.583l-.015-.036a1.732 1.732 0 0 1-.674.135h-13.9a1.724 1.724 0 0 1-1.707-1.973 1.2 1.2 0 0 0-.065.224 4.525 4.525 0 0 0 .656 1.754c1.879 3.66 7.185 11.463 8.039 12.716a.622.622 0 0 0 .332-.081l16.459-9.5a.62.62 0 0 0 .258-.291.625.625 0 0 0 .049-.241v-19a.608.608 0 0 0-.069-.29z" transform="translate(-6537.455 4113.788)"/>
                <path id="패스_5854" data-name="패스 5854" class="cls-2" d="m6550.132-4129.169-12.46-7.192-4-2.31a.616.616 0 0 0-.614 0l-16.457 9.5c-.012.006-.021.015-.031.021a.607.607 0 0 0-.261.382c2.65.277 12.354 1.341 16.463 2.464a10.142 10.142 0 0 1 1.015.324 1.7 1.7 0 0 1 1.009.708l6.949 10.347a1.724 1.724 0 0 1-.756 2.548l.016.036c2.232-.812 4.424-2.229 9.361-16.583a.623.623 0 0 0-.234-.245z" transform="translate(-6516.294 4138.753)"/>
                <path id="패스_5855" data-name="패스 5855" class="cls-3" d="M6524.673-4088.851a1.717 1.717 0 0 1 .276-.71l.417-.62c1.124-1.9 3.285-5.028 5.071-7.551l1.461-2.174a1.77 1.77 0 0 1 .38-.4 1.728 1.728 0 0 1 1.472-.306 10.439 10.439 0 0 0-1.016-.324c-4.109-1.124-13.812-2.186-16.463-2.463a.557.557 0 0 0-.015.127v19.005a.613.613 0 0 0 .307.531l16.459 9.5a.6.6 0 0 0 .281.081c-.855-1.252-6.161-9.056-8.04-12.716a4.525 4.525 0 0 1-.656-1.753 1.205 1.205 0 0 1 .066-.227z" transform="translate(-6516.257 4113.391)"/>
            </g>
            <g id="그룹_450" data-name="그룹 450">
                <path id="패스_5853-2" data-name="패스 5853" class="cls-1" d="M6571.527-4103.956c-4.938 14.355-7.129 15.771-9.363 16.583l-.015-.036a1.732 1.732 0 0 1-.674.135h-13.9a1.724 1.724 0 0 1-1.707-1.973 1.2 1.2 0 0 0-.065.224 4.525 4.525 0 0 0 .656 1.754c1.879 3.66 7.185 11.463 8.039 12.716a.622.622 0 0 0 .332-.081l16.459-9.5a.62.62 0 0 0 .258-.291.625.625 0 0 0 .049-.241v-19a.608.608 0 0 0-.069-.29z" transform="translate(-6537.455 4113.788)"/>
                <path id="패스_5854-2" data-name="패스 5854" class="cls-2" d="m6550.132-4129.169-12.46-7.192-4-2.31a.616.616 0 0 0-.614 0l-16.457 9.5c-.012.006-.021.015-.031.021a.607.607 0 0 0-.261.382c2.65.277 12.354 1.341 16.463 2.464a10.142 10.142 0 0 1 1.015.324 1.7 1.7 0 0 1 1.009.708l6.949 10.347a1.724 1.724 0 0 1-.756 2.548l.016.036c2.232-.812 4.424-2.229 9.361-16.583a.623.623 0 0 0-.234-.245z" transform="translate(-6516.294 4138.753)"/>
                <path id="패스_5855-2" data-name="패스 5855" class="cls-3" d="M6524.673-4088.851a1.717 1.717 0 0 1 .276-.71l.417-.62c1.124-1.9 3.285-5.028 5.071-7.551l1.461-2.174a1.77 1.77 0 0 1 .38-.4 1.728 1.728 0 0 1 1.472-.306 10.439 10.439 0 0 0-1.016-.324c-4.109-1.124-13.812-2.186-16.463-2.463a.557.557 0 0 0-.015.127v19.005a.613.613 0 0 0 .307.531l16.459 9.5a.6.6 0 0 0 .281.081c-.855-1.252-6.161-9.056-8.04-12.716a4.525 4.525 0 0 1-.656-1.753 1.205 1.205 0 0 1 .066-.227z" transform="translate(-6516.257 4113.391)"/>
            </g>
        </g>
        <text id="CODiPAI" transform="translate(48 32)" style="fill:#fff;font-size:28px;font-family:TitilliumWeb-SemiBold,Titillium Web;font-weight:600"><tspan x="0" y="0">CODiPAI</tspan></text>
    </g>
</svg>
