<svg width="100" height="33" viewBox="0 0 100 33" fill="none" xmlns="http://www.w3.org/2000/svg">
<g clip-path="url(#clip0_1140_1661)">
<path d="M34.982 20.6981C34.9539 21.295 35.0268 21.8923 35.1978 22.4646C35.9278 25.0918 38.5869 25.9826 40.6966 24.2716C41.1181 23.9284 41.3489 23.8981 41.6399 24.3549C41.7919 24.5572 41.9597 24.7471 42.1416 24.9227C42.6634 25.5107 42.6734 25.5233 42.0412 26.0457C40.2451 27.5322 38.2081 27.7214 36.0908 26.9845C33.9736 26.2476 32.7619 24.5946 32.3681 22.394C31.9968 20.3246 32.2176 18.3283 33.4643 16.5567C35.4035 13.7958 39.4373 13.2532 41.9936 15.3807C42.2795 15.6331 42.3999 15.7819 42.0713 16.0949C41.7427 16.4078 41.4718 16.9782 41.0679 17.1952C40.5662 17.4476 40.2777 16.7838 39.8512 16.592C37.8443 15.6886 35.6318 16.9252 35.1301 19.2873C35.0093 19.7472 34.9594 20.223 34.982 20.6981V20.6981Z" fill="white"/>
<path d="M99.4355 20.789C99.4355 22.7423 99.4229 24.6956 99.4355 26.6489C99.4355 27.0603 99.3351 27.1865 98.9338 27.1537C98.2665 27.1183 97.5967 27.1284 96.9269 27.1537C96.6208 27.1537 96.5431 27.0628 96.5431 26.765C96.5531 22.7271 96.5531 18.6935 96.5431 14.664C96.5431 14.3637 96.6259 14.2678 96.9294 14.2779C97.6168 14.2981 98.3066 14.3056 98.9965 14.2779C99.3552 14.2627 99.4455 14.3814 99.443 14.7321C99.4255 16.7536 99.4355 18.7725 99.4355 20.789Z" fill="white"/>
<path d="M69.1489 22.2476C69.1489 20.8192 69.1665 19.3908 69.1489 17.9574C69.1489 17.5031 69.2869 17.382 69.7159 17.4097C70.2778 17.4451 70.8422 17.4325 71.4067 17.4097C71.7152 17.4097 71.8457 17.4728 71.8457 17.8236C71.8323 20.7864 71.8323 23.7484 71.8457 26.7095C71.8457 27.0477 71.7353 27.1436 71.4142 27.1335C70.8096 27.1133 70.2 27.1032 69.598 27.1335C69.2066 27.1536 69.1565 26.977 69.159 26.6489C69.154 25.1902 69.1489 23.7265 69.1489 22.2476Z" fill="white"/>
<path d="M24.5591 27.787C24.5039 27.941 24.4938 28.1504 24.386 28.2413C23.6986 28.8192 23.7287 29.594 23.7563 30.3763C23.8057 30.8795 23.6778 31.3841 23.3951 31.8022C23.2316 32.021 23.0169 32.1959 22.7701 32.3112C22.5232 32.4266 22.252 32.4788 21.9802 32.4634C20.6474 32.4194 19.3263 32.197 18.0518 31.8022C18.0116 31.459 18.2776 31.3353 18.5033 31.1965C20.2593 30.129 22.0429 29.0842 23.7714 27.9561C23.9971 27.8097 24.2355 27.5498 24.5591 27.787Z" fill="white"/>
<path d="M14.0405 30.5402C13.6404 30.4397 13.2568 30.2816 12.9016 30.0708C12.8313 29.8967 12.9467 29.7907 13.0596 29.7049C14.0175 29.0125 15.0235 28.3901 16.0699 27.8424C16.3835 27.6658 16.7798 27.8752 17.0733 27.633C17.1662 27.4816 17.1536 27.2923 17.254 27.1434C20.1037 25.4374 22.9083 23.6582 25.7832 21.9799C26.1695 21.7553 26.5207 21.2228 27.1127 21.4752C27.2833 21.609 27.4664 21.7276 27.479 21.9799C27.3109 22.2979 26.9773 22.4216 26.6963 22.573C25.3567 23.3301 24.0999 24.2361 22.7202 24.92C22.4501 25.0762 22.1903 25.2499 21.9425 25.4399C20.2066 26.5907 18.3527 27.5472 16.6544 28.7585C16.4863 28.8797 16.3283 29.0109 16.1527 29.127C16.0413 29.1844 15.9163 29.2097 15.7914 29.2002C15.2897 29.1421 15.0564 29.3768 15.0389 29.8639C14.9422 30.0518 14.8 30.2122 14.6256 30.3304C14.4511 30.4486 14.2499 30.5208 14.0405 30.5402V30.5402Z" fill="white"/>
<path d="M14.0403 30.5403L14.9283 29.9346C15.3824 29.9977 15.9017 30.2602 16.1074 29.551C16.1633 29.4612 16.2422 29.388 16.3357 29.339C17.3667 28.8797 18.1795 28.0545 19.1954 27.5725C20.2967 27.0677 21.26 26.3106 22.3136 25.7302C23.0662 25.3037 23.7636 24.751 24.5713 24.3977C24.8373 24.2791 25.1057 24.2084 25.1759 24.6299L25.2938 25.1346C24.7921 25.6747 24.0822 25.9346 23.4701 26.3182C21.4632 27.58 19.4212 28.7838 17.4043 30.028C16.8223 30.3864 16.2654 30.7851 15.6483 31.1056L14.0403 30.5403Z" fill="white"/>
<path d="M25.171 24.6299C25.0355 24.4179 24.8875 24.4255 24.6542 24.5138C23.9217 24.7863 23.3247 25.2911 22.6724 25.6873C21.8245 26.192 21.0042 26.8002 20.1237 27.2368C18.749 27.9157 17.6151 28.9706 16.1777 29.551C16.1433 29.5217 16.1153 29.4856 16.0956 29.4449C16.0758 29.4041 16.0645 29.3597 16.0627 29.3145C16.0608 29.2692 16.0682 29.224 16.0846 29.1817C16.1009 29.1395 16.1258 29.1011 16.1576 29.069C16.4637 28.4886 17.0707 28.2665 17.5649 27.9409C18.8368 27.1056 20.1563 26.3435 21.4583 25.5561C23.0889 24.5735 24.7211 23.596 26.3551 22.6236C26.7213 22.4015 27.0148 22.0557 27.4638 21.9825C27.8527 22.3762 27.7147 22.7018 27.3033 22.934C26.8016 23.2166 26.2723 23.4564 25.7555 23.7113C25.3767 23.898 25.1108 24.1605 25.171 24.6299Z" fill="white"/>
<path d="M24.5587 27.787C24.3924 27.7841 24.2296 27.8354 24.0946 27.9334C22.2283 29.1195 20.3619 30.3056 18.4353 31.3984C18.2895 31.5146 18.1603 31.6504 18.0514 31.8021C17.5786 31.7248 17.1152 31.597 16.6692 31.4211C16.5137 31.0627 16.7971 30.9315 17.0129 30.7952C19.2129 29.4097 21.4481 28.0797 23.6707 26.7321C23.8613 26.6185 24.1222 26.3233 24.3154 26.7624C24.3003 27.1258 24.7469 27.3807 24.5587 27.787Z" fill="white"/>
<path d="M27.0975 21.4727C26.3449 21.71 25.7253 22.1869 25.063 22.5806C23.0235 23.7895 20.9991 25.0261 18.9696 26.2551C18.4303 26.5806 17.9938 27.0904 17.3165 27.156C17.161 26.9982 17.0169 26.8295 16.885 26.6513C16.885 26.3384 17.1359 26.2374 17.3441 26.1138C19.075 25.1422 20.7307 24.0393 22.429 23.0096C23.6431 22.2727 24.8598 21.5459 26.0489 20.7686C26.0891 20.7349 26.1378 20.7131 26.1896 20.7055C26.2414 20.6979 26.2943 20.7049 26.3424 20.7257C26.6312 20.9337 26.886 21.1857 27.0975 21.4727V21.4727Z" fill="white"/>
<path d="M24.3155 26.7549C24.1324 26.5555 23.9919 26.7044 23.8314 26.8053C21.5653 28.1849 19.2992 29.5629 17.0331 30.9391C16.9369 30.9799 16.8528 31.045 16.7891 31.1281C16.7254 31.2113 16.6841 31.3096 16.6693 31.4136L15.6483 31.1006C16.0447 30.4975 16.7295 30.2729 17.2915 29.9069C19.0475 28.7687 20.8436 27.6937 22.6498 26.6261C23.5228 26.1214 24.308 25.4451 25.2888 25.1119C25.3766 26.1441 25.2136 26.4116 24.3155 26.7549Z" fill="white"/>
<path d="M70.4688 13.127C71.4497 13.127 72.0693 13.6317 72.0768 14.4771C72.0843 15.3225 71.4221 15.903 70.509 15.903C69.5958 15.903 68.9085 15.3251 68.8984 14.5175C68.8884 13.7099 69.4955 13.1396 70.4688 13.127Z" fill="white"/>
<path d="M25.0331 19.3478L25.4495 19.84C24.7772 20.5516 23.8666 20.905 23.0563 21.4021C21.6365 22.2703 20.2517 23.1964 18.7917 24.0166C18.3442 24.2455 17.9235 24.524 17.5374 24.8469C17.0683 25.0993 16.6393 25.4173 16.11 25.5409C15.8857 25.5779 15.6556 25.5517 15.4452 25.4652C15.237 25.1826 15.5029 25.064 15.6484 24.9151C15.947 24.6072 16.3659 24.4961 16.7221 24.2816C17.6503 23.7188 18.5333 23.0703 19.4816 22.5479C21.2451 21.5712 22.8983 20.4456 24.6242 19.4362C24.6806 19.3901 24.7471 19.3581 24.8181 19.3427C24.8892 19.3274 24.9628 19.3291 25.0331 19.3478V19.3478Z" fill="white"/>
<path d="M25.6981 20.0924L26.0819 20.4684C26.0231 20.6283 25.9054 20.7594 25.7533 20.8343C24.4087 21.5082 23.2171 22.4318 21.9076 23.1662C20.272 24.0823 18.7091 25.1271 17.1036 26.0962C16.8101 26.2703 16.5166 26.6388 16.1002 26.2804C16.0718 26.2233 16.0552 26.161 16.0513 26.0973C16.0474 26.0335 16.0564 25.9696 16.0776 25.9094C16.2306 25.5839 16.5568 25.4653 16.8302 25.3012C17.5276 24.8975 18.1949 24.4508 18.8772 24.0394C20.9518 22.8154 22.9737 21.5157 25.0584 20.2968C25.2666 20.1706 25.4422 19.999 25.6981 20.0924Z" fill="white"/>
<path d="M16.1778 26.2727C16.4813 26.4266 16.7121 26.1793 16.9053 26.0582C19.0627 24.7005 21.2301 23.3579 23.4276 22.0809C24.3182 21.5762 25.146 20.9351 26.0717 20.4683C26.1296 20.4887 26.1823 20.522 26.2257 20.5657C26.2691 20.6093 26.3022 20.6623 26.3225 20.7206C25.0206 21.7124 23.5631 22.4544 22.1959 23.3427C21.0871 24.0645 19.9382 24.7333 18.8193 25.4197C18.3427 25.7099 17.8686 26.0052 17.3744 26.2576C17.1849 26.3366 17.0209 26.4667 16.9003 26.6336C16.7196 26.8532 16.4888 26.8102 16.2555 26.7623C16.1923 26.7394 16.1373 26.6981 16.0975 26.6437C16.0644 26.5825 16.0542 26.5113 16.069 26.4432C16.0837 26.375 16.1223 26.3145 16.1778 26.2727V26.2727Z" fill="white"/>
<path d="M25.0333 19.3479C23.8066 20.105 22.6401 20.9908 21.3732 21.652C19.9158 22.4091 18.6138 23.4186 17.1939 24.2034C16.5793 24.5416 15.8468 24.741 15.4179 25.3795C15.1218 25.5612 14.9814 25.4501 14.9437 25.1271C15.0466 24.6703 15.5232 24.587 15.7791 24.2817C15.878 24.1672 15.9993 24.0745 16.1353 24.0091C16.8879 23.782 17.5 23.2873 18.1422 22.8709C18.184 22.8345 18.2294 22.8024 18.2777 22.775C18.5294 22.6735 18.7639 22.533 18.9725 22.3586C19.1016 22.2512 19.2474 22.1659 19.404 22.1063C20.1566 21.7403 20.8314 21.2129 21.5438 20.7611C22.3365 20.4205 23.0114 19.8854 23.7464 19.4438C24.07 19.2495 24.3735 18.9391 24.8175 19.088L25.0333 19.3479Z" fill="white"/>
<path d="M24.4109 18.3359L24.6793 18.8406C23.425 19.5069 22.2184 20.2741 21.0218 21.0463C20.9513 21.1048 20.8747 21.1556 20.7935 21.1977C20.2918 21.334 19.9255 21.6772 19.5016 21.9372C18.0491 22.8255 16.5966 23.7265 15.104 24.5492C14.9847 24.5193 14.8798 24.4477 14.808 24.3473C14.7708 24.2987 14.7498 24.2395 14.7478 24.1782C15.1743 23.6078 15.8691 23.4211 16.406 22.9921C16.9428 22.563 17.5348 22.3612 18.0265 21.9321C18.1796 21.8362 18.3652 21.8236 18.5283 21.7403C20.2843 20.6905 22.0553 19.6381 23.7963 18.5403C23.9744 18.4267 24.155 18.2526 24.4109 18.3359Z" fill="white"/>
<path d="M17.2942 27.7795C16.4052 27.9043 15.5565 28.2323 14.8132 28.7385C14.1468 29.1369 13.5082 29.5804 12.9016 30.0659C12.5884 29.9978 12.2889 29.8766 12.0161 29.7075C11.9458 29.3769 12.2218 29.2836 12.4124 29.1523C13.4359 28.4407 14.5297 27.8451 15.5908 27.1915C15.789 27.0703 15.9997 26.9694 16.218 27.1612C16.3459 27.7643 16.9731 27.512 17.2942 27.7795Z" fill="white"/>
<path d="M25.6977 20.0924C23.7334 21.2861 21.724 22.4116 19.82 23.7088C19.5347 23.8737 19.2359 24.0138 18.927 24.1277C18.6084 24.2621 18.3056 24.4314 18.0239 24.6325C17.8859 24.7258 17.7605 24.9252 17.5472 24.7662C17.9862 24.0974 18.7564 23.9056 19.3785 23.5044C21.3252 22.2703 23.302 21.0842 25.2662 19.8829C25.3247 19.8598 25.3865 19.8462 25.4493 19.8425L25.6977 20.0924Z" fill="white"/>
<path d="M17.5472 20.7132C18.1945 20.2791 18.8015 19.7391 19.4964 19.4312C20.8887 18.8255 22.005 17.7782 23.3847 17.1599C23.756 16.9933 24.0069 16.5996 24.4584 16.5845L24.3154 16.9428C24.1273 17.4223 23.6431 17.5409 23.2744 17.7958C21.8545 18.77 20.2816 19.5018 18.8793 20.5113C18.6776 20.6607 18.4519 20.7742 18.212 20.847C17.9737 20.8823 17.7379 20.9227 17.5472 20.7132Z" fill="white"/>
<path d="M24.4111 18.3358C23.069 19.1686 21.7294 20.0065 20.3798 20.8292C19.7852 21.1901 19.1681 21.5181 18.5636 21.8614C18.4995 21.8067 18.4552 21.7323 18.4375 21.6497C18.4198 21.5671 18.4297 21.4809 18.4657 21.4046C18.522 21.2968 18.6095 21.2088 18.7166 21.1522C20.5027 20.1099 22.2662 19.0298 24.0523 17.9901C24.0889 17.9657 24.1308 17.9505 24.1744 17.9456C24.2181 17.9408 24.2622 17.9465 24.3032 17.9623L24.4111 18.3358Z" fill="white"/>
<path d="M11.5117 29.4602L10.9046 29.1574C10.8544 28.9782 10.9698 28.8722 11.0952 28.8016C12.3897 28.0874 13.5863 27.2041 14.9033 26.5303C14.9652 26.5161 15.0281 26.5068 15.0914 26.5025C15.3159 26.4708 15.5448 26.5041 15.7512 26.5984C15.9193 26.8508 15.7211 26.9568 15.5731 27.0375C14.2285 27.7467 13.0193 28.6779 11.6848 29.4047C11.6293 29.4297 11.5712 29.4483 11.5117 29.4602Z" fill="white"/>
<path d="M11.5116 29.4601C11.9105 28.9554 12.515 28.7509 13.0168 28.4128C13.9274 27.8071 14.8656 27.2418 15.7913 26.6613C15.8148 26.6336 15.8441 26.6114 15.877 26.5961C15.9099 26.5809 15.9457 26.573 15.9819 26.573C16.0181 26.573 16.054 26.5809 16.0869 26.5961C16.1198 26.6114 16.149 26.6336 16.1726 26.6613C16.2074 26.6939 16.2348 26.7336 16.2531 26.7777C16.2715 26.8218 16.2802 26.8694 16.2788 26.9171C16.2774 26.9649 16.2658 27.0119 16.2449 27.0548C16.224 27.0977 16.1942 27.1357 16.1575 27.1661C16.0772 27.1661 15.9769 27.1661 15.9067 27.1938C14.6524 27.9964 13.3253 28.6803 12.1187 29.5585C12.0761 29.6046 12.0429 29.6586 12.0208 29.7175L11.5116 29.4601Z" fill="white"/>
<path d="M24.2982 17.9547C23.8651 18.31 23.3929 18.614 22.8909 18.8607C21.4133 19.6178 20.0888 20.6551 18.5736 21.3592C18.5349 21.3314 18.506 21.292 18.4911 21.2466C18.4762 21.2012 18.4761 21.1523 18.4908 21.1068C18.8947 20.6021 19.5218 20.4204 20.0336 20.0721C21.2578 19.2393 22.5422 18.4898 23.7965 17.7377C23.8855 17.6826 23.9859 17.649 24.09 17.6393C24.2029 17.6393 24.248 17.72 24.2756 17.8159L24.2982 17.9547Z" fill="white"/>
<path d="M14.9084 26.6539L10.8947 29.1574C10.707 29.1229 10.5329 29.0354 10.3929 28.905C10.3929 28.587 10.6639 28.5138 10.8746 28.4255C11.2296 28.2683 11.5661 28.0719 11.878 27.84C12.0409 27.7864 12.2092 27.7509 12.3797 27.734C12.5202 27.6861 12.5629 27.5397 12.6632 27.4514C13.1999 27.0596 13.7595 26.7006 14.339 26.3763C14.5321 26.2779 14.7203 26.0861 14.9586 26.293C14.9911 26.3502 15.0038 26.4167 14.9948 26.4821C14.9857 26.5474 14.9553 26.6078 14.9084 26.6539V26.6539Z" fill="white"/>
<path d="M18.3002 20.7132C20.1089 19.4741 22.0079 18.4267 23.8718 17.2785C24.0265 17.1739 24.1756 17.061 24.3183 16.9403L24.2982 17.1927C24.238 17.2936 24.2706 17.4299 24.1728 17.5157C22.3482 18.6547 20.5153 19.7744 18.674 20.8747C18.6322 20.8879 18.588 20.8915 18.5446 20.8854C18.5012 20.8793 18.4597 20.8636 18.4231 20.8394C18.3719 20.8088 18.3295 20.7653 18.3002 20.7132V20.7132Z" fill="white"/>
<path d="M20.9314 20.9756C21.0869 20.6374 21.4331 20.5566 21.7116 20.3926C22.4226 20.0176 23.1029 19.5864 23.746 19.103C24.0132 18.9001 24.3457 18.8039 24.6792 18.833L24.8272 19.0853C23.9793 19.3655 23.307 19.951 22.5695 20.4052C22.2697 20.6236 21.928 20.7766 21.5661 20.8544C21.3629 20.9503 21.1948 21.2027 20.9314 20.9756Z" fill="white"/>
<path d="M9.90398 28.6426C9.61967 28.5455 9.35469 28.3985 9.1213 28.2085C9.05106 27.8905 9.28937 27.84 9.5026 27.7769C9.67318 27.7239 9.87136 27.7769 10.0244 27.6533C10.0993 27.5599 10.1649 27.4593 10.2201 27.353C10.5738 27.0325 10.8999 26.6514 11.4593 26.8104C11.5178 26.9294 11.5523 27.059 11.5609 27.1915C11.5695 27.324 11.552 27.4569 11.5095 27.5826C11.0981 28.1252 10.506 28.3927 9.90398 28.6426Z" fill="white"/>
<path d="M9.90356 28.6426C10.32 28.206 10.8844 27.994 11.3736 27.6685C11.5642 27.729 11.775 27.7442 11.9054 27.9208C11.5668 28.4987 10.8167 28.4407 10.4003 28.9025C10.2135 28.865 10.0413 28.7749 9.90356 28.6426Z" fill="white"/>
<path d="M5.1349 22.1062C4.8138 22.1415 4.63318 22.0305 4.63318 21.6671C4.63318 21.3037 4.79624 21.2128 5.11985 21.2229C5.44346 21.233 5.64163 21.2734 5.64665 21.6545C5.65166 22.0355 5.46603 22.1365 5.1349 22.1062Z" fill="white"/>
<path d="M8.6421 27.9207C8.40505 27.8459 8.18919 27.7152 8.01245 27.5396C7.85943 27.0197 8.30093 26.9137 8.58691 26.6992C8.69841 26.6346 8.82452 26.5999 8.95317 26.5983C8.98454 26.6044 9.01412 26.6176 9.03974 26.6368C9.06536 26.6561 9.08635 26.6808 9.10117 26.7093C9.19416 26.9457 9.20127 27.2076 9.12125 27.4487C9.00836 27.6532 8.77254 27.7339 8.6421 27.9207Z" fill="white"/>
<path d="M8.65448 26.7952C8.40362 27.0097 8.05242 27.1384 8.01228 27.5523L7.38513 27.1763C7.61592 26.5857 8.01479 26.4696 8.65448 26.7952Z" fill="white"/>
<path d="M4.03097 22.1112C4.25925 22.1112 4.37716 22.197 4.37716 22.4342C4.37716 22.6715 4.23417 22.7446 4.02094 22.7421C3.80771 22.7396 3.6271 22.6361 3.63463 22.3762C3.64215 22.1163 3.84283 22.1112 4.03097 22.1112Z" fill="white"/>
<path d="M8.64198 27.9208C8.48143 27.5145 8.76742 27.5473 9.01326 27.5372C9.12352 27.5721 9.23696 27.5958 9.35192 27.6079C9.65796 27.6483 9.98659 27.5499 10.2625 27.7644C10.1296 27.994 9.90632 27.9082 9.71818 27.9107C9.46732 27.9107 9.23151 27.9284 9.12113 28.2085L8.64198 27.9208Z" fill="white"/>
<path d="M8.65459 26.7952C8.19301 26.7952 7.69882 26.659 7.38524 27.1637L7.09424 26.9113L7.5508 26.6186C8.00737 26.3889 8.45891 26.3309 8.89792 26.6665L8.65459 26.7952Z" fill="white"/>
<path d="M3.30123 20.6072C3.4668 20.6072 3.4969 20.7157 3.50191 20.8595C3.50191 21.0413 3.41913 21.1119 3.25106 21.1119C3.22055 21.1136 3.19005 21.1085 3.16167 21.0971C3.13329 21.0857 3.10772 21.0683 3.08672 21.0459C3.06572 21.0236 3.04979 20.997 3.04005 20.9678C3.03031 20.9387 3.02698 20.9078 3.0303 20.8772C3.02277 20.698 3.13566 20.6198 3.30123 20.6072Z" fill="white"/>
<path d="M24.1876 17.4476C24.2227 17.3643 24.2579 17.281 24.2955 17.1952V17.8185L24.1926 17.6999C24.1595 17.6667 24.1404 17.6218 24.1394 17.5748C24.1385 17.5277 24.1558 17.4821 24.1876 17.4476V17.4476Z" fill="white"/>
<path d="M13.7995 22.9971C14.9159 22.4394 15.9344 21.7201 17.0055 21.0892C17.0958 21.044 17.1898 21.0068 17.2865 20.9781C17.3596 21.0501 17.4091 21.1428 17.4284 21.2438C17.4477 21.3448 17.4358 21.4494 17.3944 21.5435C16.8575 22.187 16.0899 22.5024 15.3875 22.8961C14.6349 23.3176 13.94 23.8021 13.2025 24.2286C13.0219 24.3321 12.8638 24.481 12.6305 24.3977C12.5869 24.2514 12.5741 24.0976 12.5929 23.946C12.771 23.4413 13.2803 23.3454 13.6365 23.0627C13.6869 23.032 13.742 23.0098 13.7995 22.9971V22.9971Z" fill="white"/>
<path d="M24.0698 9.60888C23.0965 6.56533 20.9817 4.72053 17.8711 4.13756C17.0483 3.98361 16.3885 3.92305 16.2856 2.91862C16.2305 2.35332 15.9345 2.09338 15.3499 2.38108C15.2019 2.45427 15.0063 2.50979 14.931 2.28014C14.8758 2.11105 14.6801 1.86625 14.8407 1.76026C15.5005 1.32114 14.9586 0.861832 14.8984 0.422713C14.8432 0.0239727 14.6049 -0.0820215 14.2186 0.0593041C13.3531 0.362145 12.4751 0.632178 11.6071 0.924924C11.3563 1.00568 10.9549 1.05615 11.1054 1.41452C11.2961 1.84354 11.0853 2.58045 11.8103 2.64354C12.2142 2.67635 12.1339 2.96657 12.2167 3.14828C12.3421 3.42841 12.0587 3.45364 11.9006 3.48393C11.2986 3.60254 11.2133 3.92809 11.4566 4.43788C11.5469 4.62463 11.5645 4.84671 11.6573 5.03346C11.868 5.44987 11.7125 5.70476 11.3889 5.99751C9.25657 7.93316 8.42121 10.3534 8.86021 13.195C8.9455 13.7376 8.7674 13.9521 8.31585 14.1187C7.8643 14.2852 7.58335 14.4796 7.21208 13.8991C6.2839 12.448 4.37486 11.8802 2.72169 12.448C1.92714 12.7245 1.23802 13.2433 0.750189 13.9322C0.262363 14.6211 9.81076e-05 15.4458 -0.00012207 16.2916C0.0776443 19.0676 2.61633 20.8342 5.34818 20.0014C5.62162 19.9206 5.79973 19.9105 5.86997 20.2007C5.99289 20.7231 6.84833 21.2102 6.3441 21.6922C5.95914 22.0416 5.66567 22.481 5.48964 22.9716C5.31362 23.4622 5.26046 23.9889 5.33486 24.5051C5.40926 25.0213 5.60893 25.511 5.91621 25.9311C6.2235 26.3512 6.62893 26.6887 7.09668 26.9137C7.34754 26.9869 7.47046 26.8355 7.55324 26.6311C7.49304 26.3131 7.19953 26.2399 6.9863 26.0885C6.56013 25.8004 6.23721 25.3823 6.06513 24.8957C5.89305 24.4091 5.88092 23.8797 6.03053 23.3856C6.19428 22.8735 6.51501 22.4268 6.94675 22.1094C7.37849 21.792 7.89905 21.6204 8.43376 21.619C8.97562 21.619 9.42465 21.9219 9.93892 21.9925C10.0598 21.9988 10.1806 21.9781 10.2926 21.932H10.3629C11.3864 21.9547 11.3864 21.9547 11.4165 22.9768C11.4244 23.0045 11.4387 23.03 11.4584 23.0511C11.478 23.0721 11.5023 23.0882 11.5294 23.0979C11.6536 23.1105 11.7789 23.1105 11.9031 23.0979C12.4801 22.997 12.6231 23.267 12.5729 23.7995C12.5228 24.332 12.5403 24.8468 12.5278 25.3692C12.7786 25.397 12.7611 25.185 12.8087 25.0336C12.8175 24.9328 12.8175 24.8315 12.8087 24.7307C12.8135 24.5948 12.7648 24.4624 12.6733 24.3623C12.6733 24.1957 12.6733 24.0291 12.6733 23.8575C12.7084 23.5673 13.0446 23.4184 13.042 23.1004C12.8087 23.1004 12.6407 23.0298 12.6632 22.737C12.6858 22.4443 12.6632 22.149 12.6783 21.8537C13.772 21.8739 13.772 21.8739 13.8122 22.9692C13.8122 22.9692 13.8122 22.9894 13.8122 22.9995C13.8695 23.0264 13.9331 23.0368 13.9959 23.0297C14.0588 23.0226 14.1185 22.9982 14.1684 22.9591C15.2496 22.3812 16.2731 21.6973 17.3041 21.0487C17.4095 20.9514 17.5257 20.8667 17.6503 20.7963C17.787 20.7433 17.9188 20.6783 18.0442 20.602C19.1078 19.7969 20.3546 19.2846 21.4333 18.5149C22.4167 17.8108 23.5706 17.3843 24.4787 16.5666C24.5208 16.4962 24.5561 16.4218 24.5841 16.3446C25.1084 14.0581 24.7722 11.807 24.0698 9.60888ZM12.8112 6.36596C13.1999 6.38568 13.5666 6.55289 13.8376 6.83389C14.1085 7.11489 14.2635 7.48877 14.2712 7.88016C14.2674 8.0695 14.226 8.25617 14.1496 8.42922C14.0731 8.60228 13.9631 8.75824 13.8259 8.88798C13.6888 9.01771 13.5273 9.11861 13.3509 9.18477C13.1745 9.25092 12.9868 9.28099 12.7987 9.27323C12.6108 9.28348 12.4229 9.25431 12.2468 9.18757C12.0707 9.12083 11.9103 9.01799 11.7758 8.88556C11.6414 8.75314 11.5357 8.59403 11.4657 8.41834C11.3956 8.24265 11.3626 8.05422 11.3688 7.86502C11.3638 7.67082 11.3973 7.47756 11.4675 7.29655C11.5376 7.11554 11.6429 6.95042 11.7772 6.81083C11.9115 6.67125 12.0721 6.56001 12.2497 6.48363C12.4272 6.40724 12.6181 6.36724 12.8112 6.36596V6.36596ZM3.97599 19.8247C3.27117 19.8257 2.58194 19.616 1.99577 19.2223C1.40961 18.8285 0.952915 18.2685 0.683662 17.6132C0.414409 16.9579 0.344735 16.2369 0.483468 15.5418C0.622201 14.8466 0.963086 14.2085 1.46288 13.7086C1.96268 13.2086 2.59885 12.8693 3.29066 12.7336C3.98247 12.598 4.69873 12.6722 5.34856 12.9468C5.99839 13.2214 6.55249 13.684 6.94055 14.2759C7.32861 14.8678 7.53312 15.5623 7.52815 16.2714C7.51763 17.214 7.13939 18.1147 6.47493 18.7794C5.81048 19.4441 4.91301 19.8195 3.97599 19.8247V19.8247ZM13.2227 20.5591C12.9969 20.5768 12.7536 20.544 12.5855 20.7534C12.4973 21.0311 12.4861 21.3278 12.5529 21.6115C12.4927 21.8033 12.3196 21.8638 12.011 21.8638C11.5268 21.8638 11.4917 21.6468 11.4817 21.2556C11.4666 20.7029 11.6146 20.1351 11.3914 19.5925C11.3506 19.5446 11.2971 19.5093 11.2371 19.491C11.1771 19.4727 11.1131 19.472 11.0527 19.4891C10.4507 19.5824 10.1471 19.3881 10.2675 18.732C10.2901 18.6007 10.3202 18.3786 10.1471 18.3585C9.82318 18.2953 9.4902 18.2953 9.16627 18.3585C8.89785 18.4316 9.05839 18.7547 9.01825 18.9667C8.92543 19.484 9.17629 19.6304 9.6454 19.5749C9.85171 19.561 10.0587 19.561 10.265 19.5749C10.2475 20.7156 10.2475 20.7156 11.2509 20.7231C11.2509 20.7559 11.2509 20.7887 11.2509 20.8216C11 21.1143 10.7492 21.4045 10.4983 21.6973C10.4666 21.7012 10.4355 21.7089 10.4055 21.72C10.3353 21.4399 10.097 21.3137 9.87369 21.2001C9.52854 21.0061 9.1481 20.884 8.75504 20.8411C8.36198 20.7982 7.96435 20.8353 7.58586 20.9503C6.92108 21.1648 6.84833 20.5818 6.58242 20.2361C6.31651 19.8903 6.41684 19.6354 6.73042 19.373C7.28778 18.8925 7.70612 18.2697 7.94141 17.5703C8.17671 16.8708 8.22026 16.1205 8.0675 15.3982C7.91699 14.8278 8.38359 14.7976 8.69716 14.6411C9.06091 14.4669 9.10857 14.79 9.19888 15.0095C9.8152 16.5229 10.8849 17.8055 12.2594 18.679C12.4726 18.8178 12.6206 18.9313 12.4575 19.2241C12.2568 19.59 12.4851 19.7137 12.8112 19.7465C12.9342 19.7465 13.0621 19.7465 13.185 19.7616C13.461 19.7616 13.6165 19.8853 13.614 20.1805C13.6115 20.4758 13.4685 20.5414 13.2227 20.5591V20.5591ZM15.5456 20.7408C15.1116 20.7408 14.9109 20.6626 14.9285 20.1629C14.9435 19.7162 15.0314 19.4689 15.5155 19.5824C15.9294 19.5219 16.1778 19.5824 16.1728 20.1099C16.1703 20.5995 16.0398 20.7559 15.5456 20.7408V20.7408ZM22.6525 15.9029C21.0595 18.3408 18.724 19.4361 15.8441 19.1837C12.9643 18.9313 10.3528 16.7206 9.59022 13.9345C9.31929 12.9427 9.86366 11.7767 10.9574 11.06C11.562 10.6853 12.2203 10.4061 12.9091 10.2322C13.2201 10.1439 13.3431 10.212 13.4409 10.5325C13.8749 11.9559 14.359 13.3641 14.7905 14.79C14.9461 15.2947 15.1468 15.5824 15.7087 15.2947C16.0248 15.1357 16.1226 15.2947 16.2254 15.595C16.7748 17.1723 16.7874 17.1824 18.3502 16.6398C19.4063 16.2764 19.4967 16.5414 19.0652 15.1711C19.02 15.0297 18.9849 14.8859 18.9272 14.7521C18.7967 14.4543 18.8118 14.2247 19.1906 14.1641C19.7676 14.0733 19.7952 13.7654 19.6296 13.2657C18.7315 10.5376 17.8736 7.79941 16.9855 5.06375C16.9429 4.92494 16.9103 4.78362 16.8425 4.5363C19.5719 4.78867 21.644 5.97227 22.9284 8.32181C24.3207 10.8884 24.2404 13.4777 22.6525 15.9029Z" fill="white"/>
<path d="M49.379 14.0961C46.5494 13.879 44.2189 15.315 43.3584 18.0784C42.9374 19.4689 42.8617 20.9419 43.1377 22.3686C44.1411 27.9611 49.9911 28.3119 52.6402 26.1693C53.3336 25.6133 53.898 24.9118 54.294 24.1137C54.69 23.3155 54.9081 22.4401 54.9331 21.5485C54.9381 16.761 52.9714 14.3686 49.379 14.0961ZM51.5389 23.5623C50.385 25.6141 47.6406 25.7049 46.4841 23.6608C45.9636 22.7793 45.6832 21.7753 45.6713 20.75C45.6594 19.7248 45.9164 18.7145 46.4164 17.821C47.5101 15.7465 50.3524 15.7819 51.5415 17.8058C51.9779 18.5478 52.1786 19.4387 52.1786 20.6526C52.2354 21.6632 52.0141 22.67 51.5389 23.5623Z" fill="white"/>
<path d="M66.8213 19.4614C66.5529 16.8519 64.9148 15.0551 62.3761 14.5301C60.6577 14.1743 58.9218 14.3812 57.1933 14.303C56.7267 14.2803 56.5913 14.409 56.5963 14.8885C56.6239 16.8191 56.5963 18.7522 56.5963 20.693C56.5963 22.6665 56.5963 24.64 56.5963 26.616C56.5963 26.8381 56.4809 27.1561 56.9124 27.1435C58.6007 27.1006 60.299 27.2772 61.9772 27.0097C64.6037 26.5883 66.2142 24.9908 66.7235 22.351C66.8983 21.398 66.9313 20.4242 66.8213 19.4614ZM63.9164 22.4494C63.5075 24.0343 62.2807 24.9352 60.4771 25.021C59.3056 25.0791 59.3056 25.0791 59.3056 23.9359V20.7232C59.3056 19.4235 59.3056 18.1213 59.3056 16.8191C59.3056 16.4608 59.4009 16.332 59.7571 16.3699C60.1936 16.4153 60.6351 16.3951 61.0666 16.4532C62.647 16.6727 63.6078 17.5686 63.974 19.1485C64.2248 20.2368 64.205 21.3706 63.9164 22.4494Z" fill="white"/>
<path d="M95.324 26.6363C93.9743 22.6775 92.6414 18.7095 91.3253 14.7322C91.2224 14.4243 91.097 14.293 90.7608 14.3056C89.9882 14.3284 89.213 14.3258 88.4404 14.3056C88.3101 14.286 88.1774 14.3186 88.0709 14.3965C87.9643 14.4744 87.8925 14.5913 87.8709 14.7221C87.5022 15.8981 87.0908 17.0615 86.6994 18.2325C85.7186 21.17 84.7402 24.1051 83.7292 27.136C84.5245 27.136 85.2344 27.1082 85.9418 27.136C86.0206 27.1539 86.1023 27.1548 86.1814 27.1384C86.2605 27.122 86.3352 27.0888 86.4005 27.041C86.4658 26.9932 86.5203 26.9319 86.5601 26.8613C86.6 26.7906 86.6244 26.7122 86.6317 26.6313C86.8274 25.8388 87.0682 25.059 87.2839 24.2716C87.3542 24.0193 87.4269 23.8325 87.7706 23.8401C88.9622 23.8678 90.1513 23.8577 91.3428 23.8401C91.3978 23.8304 91.4542 23.8324 91.5084 23.8457C91.5626 23.8591 91.6135 23.8836 91.6578 23.9178C91.7021 23.9519 91.7389 23.995 91.7659 24.0441C91.7928 24.0933 91.8094 24.1476 91.8145 24.2035C92.0302 25.0338 92.3162 25.8489 92.5118 26.6843C92.5996 27.0527 92.7627 27.1461 93.1139 27.1309C93.7185 27.1057 94.3255 27.1057 94.9301 27.1309C95.334 27.1562 95.487 27.1108 95.324 26.6363ZM90.7006 21.8413C89.8276 21.8161 88.9446 21.8413 88.0114 21.8413C88.5131 20.0192 89.0149 18.2426 89.5467 16.2893C90.0634 18.0861 90.5326 19.7341 91.0067 21.3795C91.087 21.6647 91.102 21.8565 90.7006 21.8464V21.8413Z" fill="white"/>
<path d="M84.4014 17.7328C84.2659 16.1656 83.2775 15.0526 81.5893 14.5984C81.2467 14.508 80.8979 14.4439 80.5457 14.4066C78.8373 14.2148 77.124 14.3687 75.4131 14.3031C74.9365 14.2854 74.7709 14.399 74.7784 14.9138C74.8111 16.847 74.791 18.7801 74.791 20.7183C74.791 22.6918 74.791 24.6678 74.791 26.6413C74.791 27.0073 74.8612 27.1738 75.2726 27.1461C75.8772 27.1107 76.4843 27.1183 77.0889 27.1461C77.4325 27.1637 77.5103 27.0325 77.5028 26.7145C77.4827 25.9372 77.4827 25.1599 77.5028 24.3826C77.5178 23.7997 77.2519 23.03 77.6157 22.6943C77.9267 22.4091 78.6843 22.611 79.2437 22.6009C80.2683 22.62 81.2847 22.4133 82.2214 21.9953C83.852 21.2028 84.5795 19.7971 84.4014 17.7328ZM80.1167 20.4457C79.3366 20.6098 78.5413 20.5315 77.7511 20.5467C77.4501 20.5467 77.5003 20.3574 77.5003 20.1706C77.5003 19.6053 77.5003 19.04 77.5003 18.4747V17.8968C77.5003 16.3649 77.5003 16.3624 79.0054 16.3826C79.3173 16.3864 79.6288 16.4067 79.9386 16.4432C81.1051 16.5694 81.7323 17.1347 81.7899 18.1012C81.8476 19.4085 81.3183 20.1757 80.1167 20.4457Z" fill="white"/>
<path d="M12.5255 25.387C12.6986 25.3087 12.6534 25.1346 12.6785 25.0059C12.952 24.5794 13.2706 24.2488 13.845 24.4052C13.9193 24.5523 13.9588 24.7147 13.9604 24.8797C13.9611 24.9273 13.9718 24.9743 13.9917 25.0174C14.0117 25.0606 14.0405 25.0991 14.0762 25.1303C14.112 25.1615 14.1539 25.1848 14.1992 25.1986C14.2445 25.2123 14.2922 25.2163 14.3392 25.2103C14.3903 25.2176 14.4424 25.2136 14.4919 25.1988C14.5414 25.1839 14.5871 25.1585 14.626 25.1242C14.6648 25.09 14.6958 25.0477 14.7169 25.0003C14.738 24.9528 14.7486 24.9014 14.7481 24.8494C14.7336 24.6423 14.7884 24.4362 14.9036 24.2639C15.0215 24.3043 15.0466 24.4002 15.0567 24.5163C15.0906 24.5484 15.117 24.5877 15.1339 24.6314C15.1508 24.675 15.1578 24.7219 15.1545 24.7687C15.1402 24.8584 15.1077 24.9443 15.0592 25.021C15.0241 25.3037 15.1445 25.4299 15.4279 25.3895H16.1805C16.1909 25.4021 16.1987 25.4167 16.2033 25.4324C16.208 25.4481 16.2094 25.4646 16.2075 25.4809C16.2057 25.4971 16.2005 25.5129 16.1924 25.5271C16.1843 25.5413 16.1735 25.5537 16.1604 25.5636C16.0972 25.6165 16.0192 25.6482 15.9372 25.6545C15.4505 25.6393 15.1645 25.8235 15.1971 26.3636C15.1921 26.4669 15.1482 26.5644 15.0742 26.6362L14.9237 26.6538C14.9237 26.5277 14.9061 26.4015 14.8986 26.2778C14.8162 26.1521 14.7614 26.0101 14.7381 25.8614C14.4571 25.5358 14.0833 25.7428 13.7572 25.6873C13.4275 25.6995 13.0973 25.6902 12.7688 25.6595C12.7016 25.6447 12.6378 25.6173 12.5807 25.5787C12.5665 25.5691 12.5544 25.5568 12.545 25.5423C12.5356 25.5279 12.5292 25.5118 12.5262 25.4948C12.5232 25.4779 12.5235 25.4605 12.5273 25.4437C12.531 25.4269 12.5381 25.411 12.5481 25.397L12.5255 25.387Z" fill="white"/>
<path d="M16.1504 25.5434L16.1654 25.3895C16.6671 25.2734 17.0208 24.8242 17.5476 24.7586C18.0494 24.6223 18.3529 24.0873 18.9274 24.1277C18.082 24.8318 17.071 25.2684 16.1679 25.8942C16.1425 25.8733 16.1217 25.8472 16.1069 25.8176C16.0921 25.7881 16.0836 25.7558 16.082 25.7227C16.0803 25.6897 16.0855 25.6567 16.0973 25.6258C16.1091 25.5949 16.1272 25.5669 16.1504 25.5434V25.5434Z" fill="white"/>
<path d="M15.0464 24.7562V24.5038C16.3007 23.6079 17.6854 22.8987 18.9924 22.0735C19.384 21.8424 19.7625 21.5896 20.1263 21.3164C20.2189 21.2351 20.3268 21.1733 20.4436 21.1347C20.5603 21.0962 20.6836 21.0816 20.8061 21.0918C20.8688 21.3442 20.6506 21.3946 20.5026 21.4905C20.126 21.7086 19.7662 21.955 19.4264 22.2275L19.0501 22.4798C18.7992 22.5909 18.4957 22.6237 18.2975 22.8584C17.56 23.2369 16.9153 23.7694 16.1652 24.1202C16.1081 24.1421 16.0562 24.1759 16.013 24.2194C15.9698 24.2629 15.9362 24.3151 15.9144 24.3726C15.5933 24.423 15.3825 24.736 15.0464 24.7562Z" fill="white"/>
<path d="M19.4265 22.2375C19.725 21.6571 20.43 21.5738 20.8062 21.1019L20.9317 20.9757L21.5588 20.8495C20.9232 21.4197 20.204 21.8879 19.4265 22.2375V22.2375Z" fill="white"/>
<path d="M16.1676 24.1276C16.8449 23.6531 17.4671 23.0777 18.2999 22.8657C17.7084 23.4633 16.9741 23.8978 16.1676 24.1276Z" fill="white"/>
<path d="M15.0464 24.7561C15.2972 24.5693 15.5356 24.2917 15.9169 24.3801L15.0464 25.011V24.7561Z" fill="white"/>
<path d="M18.3002 22.8684C18.4055 22.4495 18.7417 22.4974 19.0527 22.4899C18.8464 22.6907 18.5837 22.8229 18.3002 22.8684Z" fill="white"/>
<path d="M18.0515 21.9952C18.0365 22.2148 17.8784 22.2779 17.7078 22.3813C16.7245 22.987 15.7587 23.6205 14.7878 24.2438C14.7169 24.3204 14.6226 24.3709 14.5199 24.3873C14.4172 24.4038 14.312 24.3853 14.2209 24.3347C13.955 24.0823 14.1657 23.9157 14.3564 23.8047C15.41 23.199 16.3783 22.452 17.4796 21.9271C17.6702 21.9599 17.8734 21.8589 18.0515 21.9952Z" fill="white"/>
<path d="M18.0517 21.9951H17.4195C17.4104 22.0054 17.3991 22.0136 17.3866 22.0192C17.3741 22.0248 17.3605 22.0277 17.3468 22.0277C17.3331 22.0277 17.3195 22.0248 17.3069 22.0192C17.2944 22.0136 17.2832 22.0054 17.274 21.9951C17.2648 21.9681 17.2629 21.9391 17.2686 21.9111C17.2744 21.8831 17.2875 21.8572 17.3066 21.8361H17.3694C18.5333 21.9245 18.5609 21.8942 18.4104 20.7181L18.5635 20.8368C18.5907 20.8731 18.6055 20.9174 18.6055 20.9629C18.6055 21.0085 18.5907 21.0528 18.5635 21.0891C18.5635 21.1774 18.5635 21.2633 18.5635 21.3415C18.5635 21.508 18.5635 21.6771 18.5635 21.8462C18.4255 22.0355 18.2273 21.9724 18.0517 21.9951Z" fill="white"/>
<path d="M18.5684 21.0992C18.5684 21.0159 18.5684 20.9327 18.5684 20.8469C19.6772 20.1604 20.7759 19.4588 21.8973 18.7976C22.6498 18.3459 23.3698 17.7882 24.1926 17.4449C24.1926 17.5308 24.1926 17.614 24.1926 17.6973C22.6607 18.6311 21.1271 19.5648 19.5919 20.4986C19.2482 20.698 18.907 20.9024 18.5684 21.0992Z" fill="white"/>
<path d="M14.8859 25.7756C14.8859 25.9421 14.8859 26.1087 14.8859 26.2803C14.0832 26.5756 13.4686 27.2065 12.6859 27.5421C12.3874 27.1888 12.4677 26.8835 12.8038 26.6134C13.0772 26.4519 13.4385 26.5529 13.6918 26.3283C14.0506 26.0582 14.3391 25.609 14.8859 25.7756Z" fill="white"/>
<path d="M12.9067 26.659C12.583 26.8861 12.6558 27.2167 12.6834 27.5372C12.6558 27.671 12.6834 27.8274 12.5304 27.9132C12.4902 27.8651 12.4541 27.8136 12.4225 27.7593C12.4049 27.2344 12.3422 26.7498 11.6699 26.6893C11.7678 26.1366 12.1716 26.018 12.6433 25.9725C12.798 26.1693 12.8898 26.4086 12.9067 26.659V26.659Z" fill="white"/>
<path d="M12.5328 27.7971C12.5328 27.835 12.5328 27.8754 12.5328 27.9132H11.9082C11.7025 27.888 11.4466 27.9687 11.3789 27.6608V26.7902C11.3654 26.7815 11.3543 26.7696 11.3467 26.7554C11.339 26.7413 11.335 26.7255 11.335 26.7094C11.335 26.6933 11.339 26.6775 11.3467 26.6634C11.3543 26.6493 11.3654 26.6373 11.3789 26.6287C11.374 26.6102 11.3733 26.5909 11.3768 26.5721C11.3802 26.5534 11.3878 26.5356 11.3989 26.5201C11.5244 26.5201 11.5645 26.5984 11.5996 26.6918C11.5796 27.3555 11.9558 27.6634 12.5328 27.7971Z" fill="white"/>
<path d="M10.2827 27.4059L10.2701 26.6488H11.3965C11.3965 26.7043 11.3965 26.7573 11.3965 26.8103L10.2827 27.4059Z" fill="white"/>
<path d="M9.14366 26.6514C9.14366 27.0299 9.14366 27.4085 9.14366 27.787C9.09968 27.7627 9.06399 27.7256 9.04118 27.6806C9.01837 27.6356 9.00951 27.5848 9.01573 27.5347C9.01573 27.2495 9.01573 26.9643 9.01573 26.6791L9.14366 26.6514Z" fill="white"/>
<path d="M8.4136 22.3485C8.87321 22.3577 9.31089 22.5479 9.63265 22.8782C9.95441 23.2085 10.1346 23.6526 10.1345 24.1151C10.1289 24.3471 10.0779 24.5757 9.9845 24.7878C9.89108 25 9.75703 25.1916 9.59001 25.3517C9.42299 25.5117 9.22627 25.6371 9.01108 25.7207C8.79589 25.8043 8.56644 25.8444 8.33584 25.8387C8.10523 25.8331 7.878 25.7818 7.66709 25.6878C7.45618 25.5939 7.26574 25.459 7.10664 25.291C6.94754 25.123 6.82289 24.925 6.73981 24.7086C6.65674 24.4921 6.61687 24.2612 6.62247 24.0293C6.64504 23.0375 7.38508 22.3384 8.4136 22.3485Z" fill="white"/>
<path d="M11.4141 22.9946L11.527 23.1158C11.527 23.4035 11.5069 23.6937 11.4994 23.9814C11.4994 24.1454 11.4367 24.2615 11.2486 24.2615C11.1005 24.2615 11.0328 24.1883 11.0102 24.042C10.9858 23.8376 10.9473 23.6352 10.8949 23.4363C10.7293 22.876 11.3288 23.2419 11.4141 22.9946Z" fill="white"/>
<path d="M12.5327 25.3971C12.5327 25.4375 12.5327 25.4778 12.5327 25.5157C12.3746 26.081 11.8905 26.1618 11.4239 26.2728C11.3812 25.2078 11.306 25.4021 12.5327 25.3971Z" fill="white"/>
<path d="M11.4216 26.2703C11.7352 25.9372 12.2645 25.922 12.5304 25.5132H12.6559C12.7788 25.6873 12.8139 25.8589 12.6333 26.0179C12.2783 26.1709 11.9478 26.3759 11.6524 26.6261C11.6173 26.6842 11.5747 26.6867 11.5245 26.6413L11.4166 26.5252L11.4216 26.2703Z" fill="white"/>
<path d="M10.2777 26.6539H9.15881L10.2777 26.0104V26.6539Z" fill="white"/>
<path d="M17.3068 21.8336V21.985C15.8016 22.9466 14.2964 23.9686 12.6859 24.7611V24.38C14.0723 23.5236 15.4596 22.6689 16.8477 21.8159C16.9928 21.7373 17.1428 21.6682 17.2967 21.609C17.2942 21.6847 17.3017 21.7604 17.3068 21.8336Z" fill="white"/>
<path d="M13.0294 23.1283L13.782 23.093L12.6757 23.8804C12.5829 23.5296 12.766 23.3101 13.0294 23.1283Z" fill="white"/>
<path d="M12.6757 24.7561C14.1636 23.7454 15.7063 22.8186 17.2965 21.9801H17.4194C16.5163 22.7372 15.4627 23.2596 14.4793 23.8905C14.3414 23.9763 14.1658 24.0218 14.1607 24.2312C14.0328 24.2691 13.8748 24.2312 13.7794 24.3675C13.3868 24.527 13.0166 24.7374 12.6782 24.9934C12.6782 24.9227 12.6782 24.8394 12.6757 24.7561Z" fill="white"/>
<path d="M13.8046 26.3965C13.8046 26.1012 13.8046 25.8085 13.8046 25.5132C14.1482 25.6772 14.6374 25.2305 14.8908 25.7656C14.4795 25.8752 14.1046 26.093 13.8046 26.3965V26.3965Z" fill="white"/>
</g>
<defs>
<clipPath id="clip0_1140_1661">
<rect width="99.438" height="32.4696" fill="white" transform="translate(0.00769043 0.00390625)"/>
</clipPath>
</defs>
</svg>
