<?xml version="1.0" encoding="iso-8859-1"?>
<!-- Generator: Adobe Illustrator 18.1.1, SVG Export Plug-In . SVG Version: 6.00 Build 0)  -->
<svg version="1.1" id="Capa_1" xmlns="http://www.w3.org/2000/svg" xmlns:xlink="http://www.w3.org/1999/xlink" x="0px" y="0px"
	 viewBox="0 0 467.5 467.5" style="enable-background:new 0 0 467.5 467.5;" xml:space="preserve">
<g>
	<g>
		<path fill="#6b7078" d="M114.183,467.5h239.133c38.817,0,70.267-30.6,70.267-69.417V242.817c0-31.45-19.833-58.367-51-67.15V126.65
			C372.583,57.233,317.333,0,247.917,0h-28.333c-69.417,0-127.5,56.95-127.5,126.65v49.017c-28.333,8.783-48.167,35.7-48.167,67.15
			v155.267C43.917,436.9,75.367,467.5,114.183,467.5z M219.583,34h28.333c50.717,0,90.667,41.933,90.667,92.65v46.183h-212.5V126.65
			C126.083,75.933,168.867,34,219.583,34z M389.583,397.233c0,20.117-16.15,36.267-36.267,36.267H114.183
			c-20.117,0-36.267-16.15-36.267-36.267V243.1c0-20.117,16.15-36.267,36.267-36.267h239.133c20.117,0,36.267,16.15,36.267,36.267
			L389.583,397.233L389.583,397.233z"/>
		<path fill="#6b7078" d="M228.083,391c9.35,0,17-7.65,17-17v-53.833c0-9.35-7.65-17-17-17c-9.35,0-17,7.65-17,17V374
			C211.083,383.35,218.733,391,228.083,391z"/>
	</g>
</g>
<g>
</g>
<g>
</g>
<g>
</g>
<g>
</g>
<g>
</g>
<g>
</g>
<g>
</g>
<g>
</g>
<g>
</g>
<g>
</g>
<g>
</g>
<g>
</g>
<g>
</g>
<g>
</g>
<g>
</g>
</svg>
