<svg width="40" height="40" viewBox="0 0 40 40" fill="none" xmlns="http://www.w3.org/2000/svg">
<path fill-rule="evenodd" clip-rule="evenodd" d="M23.8712 8.13793C26.9819 8.7209 29.0966 10.5657 30.0699 13.6093C30.7723 15.8074 31.1085 18.0585 30.5842 20.3449C30.5563 20.4222 30.521 20.4966 30.4788 20.567L30.4583 20.5854L30.3157 20.9429L30.3184 20.9406L30.2983 21.1929L30.2957 21.1974V21.8189L30.2655 21.784C30.2692 21.7945 30.2726 21.8053 30.2757 21.8163L30.2983 21.9551L30.2934 21.9591L30.3032 21.9627L30.4111 22.3362L30.411 22.3362L30.4111 22.3362L30.6753 22.8329L30.6795 22.8333L30.8275 23.0857L30.8181 23.0888L31.0334 23.3483L31.0333 23.3483L31.4496 23.8403L31.447 23.8431L31.4494 23.8429L31.6975 24.0924L31.6982 24.0927L32.082 24.4687L32.0808 24.4719C32.1352 24.4926 32.1847 24.5246 32.2258 24.566C32.2685 24.6089 32.3012 24.6608 32.3216 24.7179C32.3287 24.7203 32.3357 24.723 32.3426 24.726C32.6297 24.9327 32.8831 25.1829 33.0938 25.4677L33.1127 25.4756L33.1567 25.5096C33.3134 25.6306 33.4675 25.7495 33.479 25.9803L33.4727 25.9919C33.8507 26.3815 33.7117 26.7039 33.3034 26.9343C32.9392 27.1395 32.5604 27.3221 32.1824 27.5042L32.1824 27.5042L32.1824 27.5042L32.1824 27.5043L32.1823 27.5043L32.1823 27.5043L32.1823 27.5043L32.1823 27.5043L32.1823 27.5043L32.1822 27.5043L32.1822 27.5043L32.1822 27.5044L32.1822 27.5044L32.1822 27.5044L32.1822 27.5044L32.1821 27.5044L32.1821 27.5044L32.1821 27.5044L32.1821 27.5044L32.1821 27.5044L32.1821 27.5045L32.182 27.5045L32.182 27.5045L32.1817 27.5046L32.1812 27.5049L32.1809 27.505L32.1798 27.5055L32.1798 27.5056L32.1797 27.5056L32.1797 27.5056L32.1796 27.5056L32.1796 27.5056C32.0379 27.5739 31.8963 27.6422 31.7556 27.7116C31.3911 27.8913 31.1311 28.1412 31.1657 28.5782L31.1694 28.595L31.1716 28.6063C31.1731 28.6141 31.1746 28.6221 31.1759 28.6302L31.2886 29.1124L31.289 29.1123L31.2892 29.1152L31.2938 29.1349L31.2911 29.1379C31.374 30.1489 31.2062 30.4148 30.3156 30.7552L30.3087 30.7478L30.3154 30.7626C30.3091 30.9155 30.3844 31.0492 30.4598 31.183C30.5637 31.3672 30.6677 31.5517 30.5588 31.787L30.5592 31.7873C30.5417 31.836 30.5288 31.8903 30.5158 31.9446C30.4878 32.0619 30.4598 32.1794 30.3861 32.2415C29.7014 32.8172 29.7286 33.5882 29.7561 34.3674L29.7564 34.3765C29.8058 34.8797 29.678 35.3844 29.3952 35.8024C29.2317 36.0213 29.017 36.1961 28.7702 36.3115C28.5234 36.4268 28.2521 36.4791 27.9804 36.4636C26.6475 36.4196 25.3264 36.1972 24.0519 35.8024L24.0518 35.8019L24.0514 35.8024C23.5786 35.7251 23.1152 35.5973 22.6692 35.4213L22.6655 35.4127L21.6544 35.1028L21.6483 35.106L20.0403 34.5406L20.0404 34.5406C19.6403 34.44 19.2568 34.2819 18.9016 34.0712L18.8994 34.0658C18.5897 33.9982 18.2935 33.8786 18.0231 33.7123L18.021 33.7179L17.5117 33.4605L17.5117 33.4604L16.9048 33.1577L16.9034 33.1523L16.8948 33.1576C16.7071 33.1232 16.5331 33.0356 16.3931 32.9052L16.3931 32.9014C16.2091 32.8631 16.0395 32.7735 15.9036 32.6429L15.9038 32.6427C15.6196 32.5456 15.3547 32.3987 15.1214 32.2088L15.1214 32.2085L15.1213 32.2088L14.6421 31.9211L14.6421 31.921C14.4055 31.8464 14.1901 31.7161 14.0136 31.541L14.0124 31.5526L13.3853 31.1766C13.3896 31.1654 13.3941 31.1543 13.3986 31.1434L13.3855 31.164L13.0976 30.9143L13.0968 30.9141C12.6291 30.6891 12.2236 30.3516 11.9163 29.9315C11.609 29.5114 11.4094 29.0216 11.335 28.5054C11.2606 27.9893 11.3137 27.4626 11.4898 26.972C11.6658 26.4814 11.9593 26.042 12.3442 25.6926C12.6674 25.3836 12.432 25.0725 12.1889 24.7514C12.0527 24.5716 11.9142 24.3886 11.8701 24.2011C11.7999 23.9109 11.6217 23.921 11.3483 24.0017C8.61645 24.8345 6.07777 23.068 6 20.2919C6.00022 19.4461 6.26248 18.6214 6.75031 17.9325C7.23814 17.2437 7.92726 16.7249 8.72182 16.4484C10.375 15.8806 12.284 16.4484 13.2122 17.8995C13.5447 18.4194 13.8048 18.3177 14.1799 18.1712C14.2236 18.1541 14.2688 18.1364 14.316 18.1191C14.7675 17.9525 14.9456 17.738 14.8603 17.1954C14.4213 14.3537 15.2567 11.9335 17.389 9.99788C17.7126 9.70513 17.8681 9.45024 17.6574 9.03383C17.6103 8.93905 17.5826 8.83517 17.5549 8.73143C17.528 8.63076 17.5012 8.53022 17.4567 8.43825C17.2134 7.92847 17.2987 7.60291 17.9008 7.4843C17.913 7.48196 17.9259 7.47966 17.9393 7.47726C18.1001 7.4486 18.3326 7.40717 18.2168 7.14865C18.1956 7.10207 18.1851 7.04835 18.1744 6.99367L18.1744 6.99366C18.1434 6.83505 18.1108 6.66831 17.8104 6.64392C17.304 6.59984 17.2542 6.2269 17.2051 5.85982C17.184 5.70146 17.163 5.54419 17.1055 5.41489C16.9754 5.10515 17.2576 5.02542 17.4986 4.95734C17.5364 4.94665 17.5732 4.93625 17.6072 4.9253C17.9659 4.80433 18.3263 4.68725 18.6867 4.57012L18.6867 4.57012L18.6868 4.57011C19.1987 4.40378 19.7109 4.23738 20.2187 4.05968C20.605 3.91835 20.8433 4.02434 20.8985 4.42308C20.9156 4.54773 20.9715 4.674 21.0277 4.80097C21.1695 5.12132 21.3133 5.44615 20.8408 5.76063C20.7227 5.83863 20.7974 5.9918 20.8672 6.13465C20.8922 6.18592 20.9166 6.23585 20.9311 6.28051C21.0064 6.51016 21.2021 6.45464 21.3501 6.38145C21.9346 6.09376 22.2306 6.35369 22.2858 6.919C22.3827 7.86583 22.9746 7.97394 23.7314 8.11218C23.7774 8.12058 23.824 8.1291 23.8712 8.13793ZM13.5509 30.619L13.551 30.6189C13.981 30.4026 14.4065 30.3385 14.8212 30.6121C14.8646 30.6037 14.9088 30.5992 14.9533 30.5986C14.9847 30.6048 15.0142 30.618 15.0399 30.6372C15.0517 30.6461 15.0625 30.6561 15.0722 30.6672L15.1438 30.6516V30.842C15.1875 31.0157 15.1876 31.1979 15.1438 31.3722V31.5732C15.2124 31.5891 15.2819 31.6008 15.352 31.6082C15.4461 31.6206 15.5422 31.6199 15.6383 31.6192H15.6384C15.77 31.6182 15.9015 31.6173 16.0274 31.65C16.1011 31.5577 16.1657 31.4583 16.2202 31.3532C16.2405 31.3348 16.2608 31.3162 16.281 31.2975L16.2703 30.6542H15.1589L16.2778 30.0107V30.6492H17.3564C17.3628 30.6413 17.3703 30.6345 17.3789 30.629C17.374 30.6106 17.3733 30.5913 17.3768 30.5725C17.3802 30.5537 17.3878 30.536 17.3989 30.5205C17.4051 30.5205 17.4111 30.5207 17.4168 30.5211L17.4218 30.2705L17.4239 30.2683C17.4212 30.2018 17.4184 30.1403 17.4159 30.0834C17.3994 29.7212 17.3913 29.544 17.476 29.4594C17.5571 29.3783 17.7235 29.3825 18.0495 29.3908L18.0496 29.3908H18.0496H18.0497H18.0497H18.0497C18.1826 29.3942 18.342 29.3982 18.5329 29.3975V29.4262C18.5368 29.416 18.542 29.4063 18.5483 29.3974L18.5257 29.3873C18.5364 29.3825 18.5463 29.3773 18.5554 29.3717C18.5466 29.3714 18.5374 29.3706 18.5279 29.3696C18.5318 29.2088 18.5328 29.0488 18.5338 28.8888V28.8887C18.5361 28.5287 18.5383 28.1685 18.5731 27.7999C18.6232 27.2674 18.4802 26.9973 17.9033 27.0983C17.779 27.1109 17.6538 27.1109 17.5295 27.0983C17.5174 27.0939 17.5058 27.0883 17.495 27.0815L17.5271 27.116C17.5271 27.2933 17.5195 27.4716 17.5119 27.6496L17.5119 27.6497C17.5072 27.7606 17.5024 27.8713 17.4995 27.9817C17.4995 28.1457 17.4368 28.2618 17.2487 28.2618C17.1007 28.2618 17.0329 28.1886 17.0104 28.0422C16.9859 27.8379 16.9474 27.6355 16.895 27.4366C16.7954 27.0995 16.9727 27.0977 17.1483 27.0958C17.2647 27.0946 17.3803 27.0934 17.4143 26.9949L17.431 27.0128C17.4249 27.0015 17.4201 26.9896 17.4166 26.9771V26.9771C17.4015 26.4663 17.394 26.2108 17.2625 26.0801C17.1308 25.9494 16.8749 25.9437 16.363 25.9323H16.2927C16.1807 25.9785 16.0599 25.9991 15.939 25.9929C15.7169 25.9624 15.5069 25.8885 15.2964 25.8145C15.0195 25.7171 14.7417 25.6194 14.4339 25.6194C13.8992 25.6208 13.3786 25.7924 12.9469 26.1098C12.5151 26.4271 12.1944 26.8739 12.0306 27.386C11.881 27.8801 11.8932 28.4094 12.0653 28.896C12.2373 29.3827 12.5603 29.8008 12.9864 30.0888C13.0391 30.1262 13.0967 30.1589 13.1545 30.1916C13.3274 30.2896 13.5018 30.3885 13.5509 30.619ZM17.5996 30.6921L17.5922 30.6729C17.6143 30.6715 17.6344 30.6563 17.6526 30.6264C17.6653 30.6156 17.6781 30.6049 17.6909 30.5943C17.6828 30.6245 17.6758 30.6563 17.6699 30.6896C18.3236 30.7485 18.401 31.2082 18.4209 31.7162C18.4082 31.7232 18.3946 31.7292 18.3799 31.7343C18.363 31.7359 18.3461 31.7378 18.3292 31.7398C17.8692 31.5825 17.582 31.2741 17.5996 30.6921ZM18.8973 30.5691C18.8679 30.3605 18.7862 30.1624 18.6593 29.9938C18.7683 29.884 18.779 29.7684 18.7326 29.6505C18.7446 29.654 18.7568 29.6572 18.7691 29.6599C19.0976 29.6906 19.4277 29.6998 19.7575 29.6876C19.7731 29.6903 19.7888 29.6923 19.8047 29.6939V30.2371C19.7676 30.269 19.7302 30.2998 19.692 30.3286C19.5517 30.4529 19.3784 30.4775 19.2052 30.5021C19.1001 30.517 18.9949 30.5319 18.8973 30.5691ZM21.7514 30.5987C21.5688 30.5152 21.3685 30.4795 21.1692 30.4944C21.1856 30.4531 21.1952 30.4091 21.1974 30.364C21.1648 29.8239 21.4508 29.6397 21.9374 29.6548C21.9983 29.6502 22.0569 29.6315 22.109 29.6005C22.1047 29.6088 22.1008 29.6174 22.0974 29.6262C22.0857 29.6571 22.0804 29.6901 22.0821 29.7231C22.0837 29.7562 22.0922 29.7885 22.107 29.818C22.1102 29.8242 22.1136 29.8303 22.1172 29.8362C22.103 29.8595 22.0898 29.884 22.0777 29.9098C22.0565 29.9699 22.0475 30.0338 22.0514 30.0976C22.0553 30.1613 22.0719 30.2236 22.1003 30.2807C22.1126 30.2913 22.1249 30.3013 22.137 30.3107C22.1034 30.348 22.0799 30.3937 22.0691 30.4435C22.0584 30.4929 22.0608 30.5439 22.0755 30.5916C22.0459 30.5796 22.0141 30.5734 21.982 30.5734C21.9458 30.5734 21.91 30.5813 21.8771 30.5965C21.8442 30.6118 21.8149 30.634 21.7914 30.6617L21.7883 30.6636C21.7788 30.6431 21.7666 30.6215 21.7514 30.5987ZM21.3992 29.3911L21.4003 29.3933L21.3943 29.3939L21.3992 29.3911ZM20.8083 28.3476C20.8171 28.36 20.8264 28.3719 20.8363 28.3834C20.7677 28.5279 20.7371 28.6885 20.7484 28.8497C20.7489 28.9017 20.7382 28.9532 20.7171 29.0006C20.6961 29.048 20.665 29.0903 20.6262 29.1246C20.5874 29.1588 20.5417 29.1843 20.4922 29.1991C20.4427 29.214 20.3906 29.2179 20.3395 29.2106C20.2925 29.2167 20.2448 29.2127 20.1995 29.1989C20.1542 29.1851 20.1122 29.1619 20.0765 29.1306C20.0407 29.0994 20.0119 29.061 19.992 29.0178C19.972 28.9746 19.9613 28.9277 19.9607 28.88C19.9591 28.715 19.9196 28.5527 19.8453 28.4056C19.8106 28.3961 19.7768 28.3885 19.7439 28.3825L19.7796 28.3678C19.8459 28.2729 19.9427 28.2625 20.0385 28.2521C20.0723 28.2484 20.1059 28.2448 20.1381 28.2374C20.1579 28.2684 20.1851 28.3009 20.2209 28.3349C20.312 28.3855 20.4172 28.4041 20.5199 28.3876C20.6119 28.3729 20.697 28.3309 20.7648 28.2673C20.7749 28.296 20.7895 28.3232 20.8083 28.3476ZM23.2964 25.6552C23.3299 25.6191 23.3627 25.582 23.3946 25.5438C23.436 25.4497 23.4479 25.3452 23.4286 25.2441C23.4134 25.1642 23.3792 25.0896 23.3294 25.0262C23.4269 24.9395 23.5332 24.8633 23.6466 24.7989C23.8125 24.9068 24.0034 24.8784 24.1966 24.8496L24.2121 24.8473C24.2635 24.8318 24.3142 24.8143 24.3642 24.7951C24.3821 24.8119 24.4019 24.8269 24.4232 24.8396L24.426 24.8414C24.4542 25.0682 24.4734 25.2474 24.4748 25.3881L24.4699 25.397L24.4657 25.405C24.4297 25.4813 24.4198 25.5675 24.4375 25.6501L24.4394 25.6586C24.3468 25.8994 24.0555 25.8886 23.3694 25.8365H23.3069V25.8339L23.3039 25.7923C23.3005 25.7472 23.2971 25.7013 23.2964 25.6552ZM19.0415 27.1281L19.0421 27.1146L19.0422 27.1008C18.8089 27.1008 18.6408 27.0301 18.6634 26.7374C18.6757 26.5777 18.6746 26.4173 18.6734 26.2566C18.6725 26.1226 18.6716 25.9884 18.6784 25.8541C19.7722 25.8743 19.7722 25.8743 19.8123 26.9696V26.9911L19.7998 26.9974C19.7422 27.0102 19.6872 27.0323 19.6367 27.063C19.6196 27.0766 19.6021 27.0898 19.5842 27.1026L19.0415 27.1281ZM19.8377 10.8343C19.5668 10.5533 19.2 10.3861 18.8114 10.3663C18.6183 10.3676 18.4273 10.4076 18.2498 10.484C18.0722 10.5604 17.9116 10.6716 17.7773 10.8112C17.643 10.9508 17.5377 11.1159 17.4676 11.2969C17.3975 11.4779 17.3639 11.6712 17.3689 11.8654C17.3627 12.0546 17.3957 12.243 17.4658 12.4187C17.5359 12.5944 17.6415 12.7535 17.776 12.8859C17.9104 13.0184 18.0708 13.1212 18.2469 13.1879C18.423 13.2547 18.6109 13.2839 18.7988 13.2736C18.9869 13.2814 19.1747 13.2513 19.3511 13.1851C19.5274 13.119 19.6889 13.0181 19.8261 12.8883C19.9632 12.7586 20.0732 12.6026 20.1497 12.4296C20.2262 12.2565 20.2675 12.0699 20.2714 11.8805C20.2636 11.4891 20.1086 11.1153 19.8377 10.8343ZM7.9959 23.2226C8.58206 23.6164 9.27129 23.8261 9.97611 23.8251C10.9131 23.8198 11.8106 23.4444 12.4751 22.7797C13.1395 22.1151 13.5178 21.2144 13.5283 20.2717C13.5332 19.5627 13.3287 18.8682 12.9407 18.2762C12.5526 17.6843 11.9985 17.2217 11.3487 16.9472C10.6989 16.6726 9.98259 16.5984 9.29078 16.734C8.59897 16.8696 7.9628 17.209 7.463 17.7089C6.96321 18.2089 6.62232 18.8469 6.48359 19.5421C6.34486 20.2373 6.41453 20.9583 6.68378 21.6136C6.95304 22.2689 7.40973 22.8289 7.9959 23.2226ZM19.1048 24.5656C19.1443 24.5641 19.1838 24.5625 19.2228 24.5595C19.4686 24.5418 19.6116 24.4762 19.6141 24.1809C19.6166 23.8856 19.4611 23.762 19.1852 23.762C19.0623 23.7468 18.9343 23.7468 18.8114 23.7468H18.8114C18.4852 23.714 18.257 23.5904 18.4577 23.2244C18.6207 22.9317 18.4727 22.8181 18.2595 22.6793C16.8851 21.8059 15.8153 20.5233 15.199 19.0099C15.1864 18.9794 15.1747 18.9469 15.1629 18.914C15.0893 18.7102 15.0105 18.4915 14.6973 18.6415C14.637 18.6715 14.571 18.697 14.5049 18.7224C14.2271 18.8295 13.946 18.9379 14.0676 19.3986C14.2204 20.1208 14.1768 20.8712 13.9415 21.5706C13.7062 22.2701 13.2879 22.8928 12.7305 23.3733C12.417 23.6358 12.3166 23.8907 12.5825 24.2364C12.6461 24.3191 12.6986 24.4153 12.7508 24.5109C12.917 24.8153 13.0801 25.1139 13.586 24.9506C13.9645 24.8357 14.3621 24.7985 14.7552 24.8414C15.1482 24.8844 15.5287 25.0065 15.8738 25.2005C16.0971 25.314 16.3354 25.4402 16.4056 25.7204C16.4356 25.7092 16.4667 25.7016 16.4984 25.6976C16.6239 25.5512 16.7494 25.4055 16.8748 25.2597L16.8755 25.2589L16.8761 25.2582L16.8768 25.2574C17.0015 25.1124 17.1263 24.9675 17.251 24.8219V24.7235C16.7707 24.7199 16.5203 24.718 16.3917 24.5919C16.2516 24.4546 16.256 24.1699 16.2652 23.5752C16.0588 23.5614 15.8518 23.5614 15.6455 23.5752C15.1764 23.6308 14.9256 23.4844 15.0184 22.967C15.0312 22.8993 15.0235 22.8203 15.0159 22.7417C14.9997 22.5742 14.9837 22.4086 15.1664 22.3588C15.4903 22.2956 15.8233 22.2956 16.1472 22.3588C16.3203 22.379 16.2902 22.6011 16.2677 22.7323C16.1473 23.3885 16.4508 23.5828 17.0529 23.4894C17.1132 23.4724 17.1772 23.473 17.2372 23.4914C17.2972 23.5097 17.3508 23.5449 17.3915 23.5929C17.5467 23.9701 17.5225 24.3595 17.4984 24.7475C17.4878 24.9176 17.4772 25.0875 17.4818 25.256C17.4918 25.6472 17.527 25.8642 18.0111 25.8642C18.3197 25.8642 18.4928 25.8036 18.553 25.6118C18.4862 25.3281 18.4975 25.0315 18.5856 24.7538C18.7247 24.5805 18.9152 24.573 19.1048 24.5656ZM20.9286 24.1632C20.9111 24.6629 21.1117 24.7412 21.5457 24.7412C22.0399 24.7563 22.1704 24.5998 22.1729 24.1103C22.1779 23.5828 21.9295 23.5222 21.5156 23.5828C21.0315 23.4692 20.9437 23.7166 20.9286 24.1632ZM21.8443 23.1841C24.7241 23.4364 27.0596 22.3412 28.6526 19.9033C30.2405 17.478 30.3208 14.8888 28.9285 12.3222C27.6441 9.97264 25.572 8.78904 22.8427 8.53667C22.8703 8.63768 22.8921 8.72101 22.9112 8.79371C22.9387 8.89901 22.9604 8.98201 22.9857 9.06412C23.3552 10.2025 23.7195 11.3413 24.0837 12.4797L24.0837 12.4797L24.0837 12.4798L24.0837 12.4798L24.0837 12.4798L24.0837 12.4798L24.0838 12.4799L24.0838 12.4799L24.0838 12.4799L24.0838 12.48L24.0838 12.4802L24.0839 12.4803L24.0839 12.4804L24.084 12.4805L24.084 12.4806L24.084 12.4808L24.0841 12.4809L24.0841 12.481L24.0842 12.4811L24.0842 12.4813L24.0842 12.4814L24.0843 12.4815L24.0843 12.4816L24.0844 12.4818L24.0844 12.4819C24.5951 14.0784 25.1056 15.6739 25.6297 17.2661C25.7953 17.7657 25.7677 18.0736 25.1907 18.1645C24.8119 18.225 24.7969 18.4547 24.9273 18.7525C24.9679 18.8466 24.9973 18.9457 25.0269 19.0454L25.027 19.0456C25.0394 19.0875 25.0519 19.1296 25.0653 19.1714C25.4265 20.3184 25.422 20.3197 24.7917 20.5028C24.6689 20.5384 24.5225 20.581 24.3503 20.6402C22.7875 21.1828 22.7749 21.1727 22.2256 19.5954C22.1227 19.2951 22.0249 19.1361 21.7088 19.2951C21.1469 19.5828 20.9462 19.2951 20.7906 18.7904C20.5686 18.0566 20.3326 17.3275 20.0967 16.5986L20.0966 16.5985L20.0966 16.5984L20.0966 16.5983L20.0966 16.5982L20.0965 16.5982L20.0965 16.5981L20.0965 16.598L20.0965 16.598L20.0964 16.5979L20.0964 16.5978L20.0964 16.5977L20.0964 16.5977L20.0964 16.5976L20.0963 16.5975L20.0963 16.5975L20.0963 16.5974L20.0963 16.5973L20.0962 16.5972L20.0962 16.5972L20.0962 16.5971L20.0962 16.597L20.0961 16.5969L20.0961 16.5969L20.0961 16.5968L20.0961 16.5967C19.8737 15.9099 19.6515 15.2232 19.441 14.5329C19.3432 14.2124 19.2203 14.1443 18.9092 14.2326C18.2204 14.4065 17.5622 14.6856 16.9575 15.0604C15.8638 15.7771 15.3194 16.943 15.5903 17.9348C16.353 20.721 18.9644 22.9317 21.8443 23.1841ZM30.2795 21.2328L30.2913 21.2058C30.2868 21.2146 30.2829 21.2236 30.2795 21.2328ZM22.2443 30.7583C22.2475 30.7648 22.2505 30.7714 22.2533 30.7781C22.2716 30.8222 22.2803 30.8697 22.2789 30.9175C22.2775 30.9653 22.2659 31.0122 22.245 31.0552C22.2303 31.0853 22.2113 31.113 22.1885 31.1374C22.1983 31.1448 22.2081 31.1529 22.218 31.1615C22.2975 31.5366 22.5701 31.5809 22.8421 31.625C22.9076 31.6356 22.9731 31.6463 23.0358 31.6615C23.0485 31.6529 23.061 31.6435 23.0733 31.6333C23.1182 31.5602 23.1384 31.4783 23.1587 31.3963C23.1804 31.3085 23.2021 31.2207 23.254 31.1437L23.2858 31.1247C23.1421 30.976 23.0083 30.818 22.8853 30.6516C22.707 30.8511 22.4825 30.8093 22.2557 30.7627L22.2443 30.7583ZM22.0978 33.1526C22.001 33.192 21.8962 33.2085 21.7914 33.2005C21.2897 33.1425 21.0564 33.3772 21.0389 33.8642C21.0247 33.8918 21.0095 33.9188 20.9934 33.9452C21.0497 33.9549 21.1068 33.9668 21.1638 33.9787C21.55 34.0592 21.9367 34.1399 22.1074 33.5514C22.1164 33.5368 22.1261 33.5227 22.1364 33.509C22.1204 33.4894 22.1068 33.468 22.0957 33.4452C22.0759 33.4045 22.0647 33.3601 22.0628 33.3148C22.0609 33.2695 22.0684 33.2243 22.0847 33.1821C22.0886 33.172 22.093 33.1622 22.0978 33.1526ZM11.135 26.1066C10.8139 26.1419 10.6333 26.0309 10.6333 25.6674C10.6333 25.304 10.7964 25.2132 11.12 25.2233C11.4436 25.2334 11.6418 25.2738 11.6468 25.6548C11.6518 26.0359 11.4662 26.1369 11.135 26.1066ZM10.3773 26.4345C10.3773 26.1973 10.2594 26.1115 10.0311 26.1115C9.84295 26.1115 9.64227 26.1166 9.63475 26.3765C9.62722 26.6364 9.80784 26.7399 10.0211 26.7424C10.2343 26.745 10.3773 26.6718 10.3773 26.4345ZM9.30123 24.6075C9.4668 24.6075 9.4969 24.716 9.50191 24.8599C9.50191 25.0416 9.41913 25.1123 9.25106 25.1123C9.22055 25.1139 9.19005 25.1089 9.16167 25.0975C9.13329 25.0861 9.10772 25.0686 9.08672 25.0463C9.06572 25.0239 9.04979 24.9973 9.04005 24.9682C9.03031 24.939 9.02698 24.9081 9.0303 24.8776C9.02277 24.6984 9.13566 24.6201 9.30123 24.6075ZM15.6328 26.8785C15.311 26.5483 14.8733 26.3581 14.4137 26.3488C13.3852 26.3387 12.6452 27.0378 12.6226 28.0296C12.617 28.2616 12.6569 28.4924 12.7399 28.7089C12.823 28.9254 12.9477 29.1233 13.1068 29.2913C13.2659 29.4593 13.4563 29.5942 13.6672 29.6882C13.8781 29.7821 14.1054 29.8334 14.336 29.839C14.5666 29.8447 14.796 29.8046 15.0112 29.721C15.2264 29.6374 15.4231 29.512 15.5901 29.352C15.7572 29.1919 15.8912 29.0003 15.9846 28.7881C16.078 28.576 16.129 28.3474 16.1346 28.1154C16.1347 27.6529 15.9545 27.2088 15.6328 26.8785Z" fill="white"/>
</svg>
